<svg width="305" height="368" viewBox="0 0 305 368" fill="none" xmlns="http://www.w3.org/2000/svg">
<mask id="mask0_761_836" style="mask-type:alpha" maskUnits="userSpaceOnUse" x="0" y="0" width="305" height="368">
<rect width="305" height="368" fill="#C4C4C4"/>
</mask>
<g mask="url(#mask0_761_836)">
<path d="M29.5591 -46.1597C28.5738 -45.6605 27.3703 -46.0547 26.8712 -47.04C26.372 -48.0254 26.7662 -49.2288 27.7515 -49.728L29.5591 -46.1597ZM137.009 -30.4329L135.185 -31.2524L137.009 -30.4329ZM260.589 130.125L258.741 130.889L260.589 130.125ZM296.153 361.26C295.755 362.29 294.597 362.803 293.567 362.405L276.777 355.916C275.747 355.518 275.234 354.36 275.632 353.329C276.03 352.299 277.188 351.787 278.219 352.185L293.143 357.953L298.911 343.028C299.309 341.998 300.467 341.486 301.497 341.884C302.528 342.282 303.04 343.44 302.642 344.47L296.153 361.26ZM27.7515 -49.728C56.5473 -64.3152 88.8232 -70.7288 111.654 -68.0127C123.029 -66.6594 132.452 -62.9895 137.739 -56.4938C143.167 -49.8235 143.823 -40.7213 138.834 -29.6135L135.185 -31.2524C139.776 -41.4743 138.811 -48.8396 134.636 -53.969C130.32 -59.273 122.157 -62.735 111.182 -64.0407C89.3125 -66.6423 57.8309 -60.4815 29.5591 -46.1597L27.7515 -49.728ZM138.834 -29.6135C132.609 -15.7554 118.473 -3.17141 101.971 8.82535C93.6809 14.8524 84.7059 20.7902 75.7028 26.7061C66.6861 32.6309 57.6445 38.5315 49.1586 44.5191C32.1253 56.5378 17.6456 68.6996 10.2659 81.7003C6.60343 88.1525 4.72884 94.7471 5.11511 101.607C5.50146 108.468 8.15973 115.774 13.8636 123.631L10.6267 125.981C4.57072 117.639 1.55951 109.611 1.12143 101.832C0.683286 94.0507 2.82935 86.6984 6.78729 79.7257C14.6485 65.8766 29.8089 53.2768 46.8525 41.2508C55.4051 35.2161 64.5113 29.2736 73.5062 23.3632C82.5148 17.4437 91.4154 11.554 99.6193 5.58996C116.106 -6.39548 129.433 -18.4481 135.185 -31.2524L138.834 -29.6135ZM13.8636 123.631C24.9239 138.866 42.7372 141.29 64.8201 137.199C86.9138 133.106 112.446 122.639 138.134 113.072C163.652 103.569 189.348 94.9469 211.276 94.9864C222.292 95.0062 232.477 97.2076 241.248 102.668C250.034 108.138 257.232 116.773 262.438 129.361L258.741 130.889C253.797 118.933 247.092 111.018 239.134 106.064C231.162 101.101 221.764 99.0053 211.269 98.9864C190.177 98.9484 165.144 107.282 139.53 116.82C114.088 126.296 88.086 136.957 65.5488 141.132C43.0008 145.31 23.0861 143.143 10.6267 125.981L13.8636 123.631ZM262.438 129.361C269.255 145.848 266.708 160.06 259.246 172.513C251.86 184.84 239.666 195.44 227.201 205.003C214.594 214.675 201.844 223.201 192.671 231.666C183.429 240.196 178.763 247.839 180.825 255.588L176.959 256.617C174.251 246.437 180.685 237.284 189.958 228.727C199.301 220.105 212.483 211.253 224.766 201.83C237.192 192.297 248.848 182.085 255.815 170.457C262.708 158.955 265.018 146.069 258.741 130.889L262.438 129.361ZM180.825 255.588C183.029 263.869 189.035 270.167 197.728 276.077C206.47 282.02 217.506 287.308 229.536 293.83C253.443 306.791 280.396 324.204 296.117 359.73L292.459 361.348C277.286 327.062 251.312 310.186 227.63 297.346C215.866 290.968 204.442 285.478 195.479 279.385C186.469 273.259 179.527 266.265 176.959 256.617L180.825 255.588Z" fill="#66C195"/>
</g>
</svg>
