<svg width="574" height="411" viewBox="0 0 574 411" fill="none" xmlns="http://www.w3.org/2000/svg">
<mask id="mask0_760_6995" style="mask-type:alpha" maskUnits="userSpaceOnUse" x="0" y="0" width="574" height="411">
<rect width="574" height="411" fill="#C4C4C4"/>
</mask>
<g mask="url(#mask0_760_6995)">
<path d="M55.4359 -154.284C55.8312 -155.316 55.3156 -156.472 54.2842 -156.868C53.2528 -157.263 52.0962 -156.747 51.7008 -155.716L55.4359 -154.284ZM251.614 217.289L249.718 216.655L251.614 217.289ZM463.172 406.046C464.154 406.553 465.36 406.168 465.867 405.187L474.129 389.195C474.636 388.214 474.252 387.007 473.27 386.5C472.289 385.993 471.082 386.378 470.575 387.359L463.231 401.574L449.016 394.23C448.035 393.723 446.829 394.107 446.322 395.089C445.815 396.07 446.199 397.277 447.18 397.784L463.172 406.046ZM51.7008 -155.716C46.3899 -141.86 51.0602 -127.86 62.4619 -114.189C73.8484 -100.537 92.2065 -86.8609 115.157 -73.3276C161.09 -46.2422 226.052 -19.3683 292.349 5.76524C358.767 30.9447 426.372 54.3243 478.087 74.5689C503.918 84.6811 525.648 93.9603 541.142 102.224C548.895 106.358 555.008 110.198 559.277 113.716C563.635 117.307 565.702 120.267 566.065 122.566L570.017 121.942C569.409 118.095 566.299 114.319 561.821 110.629C557.254 106.866 550.874 102.881 543.024 98.6941C527.312 90.3147 505.4 80.9656 479.545 70.8441C427.886 50.6214 359.942 27.1123 293.767 2.025C227.471 -23.1082 162.798 -49.879 117.189 -76.7732C94.3688 -90.2295 76.4794 -103.627 65.5337 -116.751C54.6031 -129.857 50.8566 -142.337 55.4359 -154.284L51.7008 -155.716ZM566.065 122.566C566.235 123.637 566.02 124.375 565.576 124.967C565.085 125.62 564.162 126.296 562.572 126.874C559.358 128.041 554.185 128.541 547.097 128.337C533.007 127.931 512.315 124.791 487.033 119.903C436.488 110.13 368.198 93.496 298.801 78.2586C229.483 63.0386 159.102 49.2229 104.638 45.1735C77.4255 43.1502 54.0211 43.5501 36.6575 47.5117C19.3652 51.457 7.38331 59.1195 4.35185 72.1589L8.24795 73.0647C10.7429 62.3329 20.7029 55.2546 37.5473 51.4114C54.3205 47.5845 77.2477 47.148 104.341 49.1625C158.489 53.1884 228.618 66.944 297.943 82.1655C367.188 97.3695 435.674 114.047 486.273 123.83C511.563 128.72 532.536 131.919 546.982 132.335C554.162 132.542 559.975 132.073 563.938 130.633C565.936 129.907 567.648 128.869 568.775 127.367C569.948 125.804 570.333 123.943 570.017 121.942L566.065 122.566ZM500.165 155.545C525.935 167.145 542.658 176.527 552.262 183.585C557.091 187.134 559.963 189.983 561.329 192.113C562.008 193.173 562.216 193.905 562.236 194.351C562.251 194.712 562.153 194.95 561.906 195.194C561.599 195.497 560.991 195.86 559.901 196.151C558.829 196.436 557.424 196.615 555.679 196.652C552.189 196.726 547.572 196.227 542.023 195.1C530.94 192.851 516.407 188.153 500.257 180.884L498.615 184.531C514.971 191.894 529.791 196.699 541.227 199.02C546.938 200.18 551.871 200.733 555.763 200.651C557.709 200.61 559.453 200.409 560.93 200.016C562.389 199.627 563.73 199.013 564.715 198.042C565.759 197.012 566.296 195.68 566.232 194.179C566.171 192.763 565.584 191.34 564.696 189.955C562.927 187.195 559.575 183.996 554.631 180.362C544.687 173.055 527.664 163.537 501.807 151.897L500.165 155.545ZM500.257 180.884C452.63 159.445 396.967 148.152 349.772 152.24C302.617 156.325 263.353 175.864 249.718 216.655L253.511 217.923C266.414 179.325 303.685 160.247 350.118 156.225C396.511 152.207 451.49 163.318 498.615 184.531L500.257 180.884ZM249.718 216.655C248.727 219.618 248.442 222.335 248.948 224.828C249.46 227.342 250.742 229.457 252.599 231.251C256.209 234.739 262.119 237.128 269.295 239.252C276.527 241.393 285.508 243.383 295.461 245.847C305.462 248.322 316.568 251.302 328.26 255.461C351.631 263.773 377.332 276.79 401.064 299.854C424.794 322.915 446.64 356.102 462.185 404.876L465.996 403.662C450.275 354.333 428.105 320.555 403.852 296.985C379.602 273.419 353.356 260.141 329.6 251.692C317.728 247.469 306.476 244.452 296.422 241.964C286.319 239.463 277.548 237.523 270.43 235.416C263.257 233.293 258.218 231.118 255.379 228.374C254.011 227.052 253.194 225.635 252.868 224.031C252.538 222.405 252.677 220.419 253.511 217.923L249.718 216.655ZM4.35185 72.1589C2.91022 78.3599 2.9152 83.9211 4.34774 88.8731C5.78345 93.8361 8.61607 98.058 12.6235 101.624C20.5672 108.694 33.1709 113.229 49.0266 116.167C80.7852 122.051 126.953 121.74 179.043 120.96C231.231 120.179 289.517 118.917 345.811 122.819C402.12 126.721 456.257 135.78 500.165 155.545L501.807 151.897C457.261 131.845 402.572 122.743 346.088 118.828C289.589 114.913 231.115 116.18 178.983 116.961C126.751 117.743 81.036 118.029 49.7553 112.234C34.0914 109.332 22.3864 104.958 15.2828 98.6365C11.7666 95.5072 9.39101 91.9125 8.19019 87.7615C6.9862 83.5996 6.92637 78.7493 8.24795 73.0647L4.35185 72.1589Z" fill="#FFD857"/>
</g>
</svg>
