<svg width="341" height="442" viewBox="0 0 341 442" fill="none" xmlns="http://www.w3.org/2000/svg">
<mask id="mask0_760_6998" style="mask-type:alpha" maskUnits="userSpaceOnUse" x="0" y="0" width="341" height="442">
<rect width="341" height="442" fill="#C4C4C4"/>
</mask>
<g mask="url(#mask0_760_6998)">
<path d="M473.84 -0.0678537C474.743 0.567999 475.99 0.351273 476.626 -0.551924C477.262 -1.45512 477.045 -2.70277 476.142 -3.33862L473.84 -0.0678537ZM283.766 51.1521L282.034 50.1532L283.766 51.1521ZM193.527 156.511L195.499 156.177L193.527 156.511ZM17.2341 438.478C17.8413 439.4 19.0815 439.656 20.0042 439.049L35.0413 429.155C35.964 428.548 36.2199 427.308 35.6128 426.385C35.0056 425.463 33.7654 425.207 32.8427 425.814L19.4764 434.608L10.6819 421.242C10.0748 420.319 8.8346 420.063 7.91184 420.671C6.9891 421.278 6.73322 422.518 7.34038 423.441L17.2341 438.478ZM476.142 -3.33862C457.29 -16.6108 422.785 -27.4506 386.012 -22.9042C349.118 -18.3428 309.965 1.70541 282.034 50.1532L285.499 52.1511C312.777 4.83542 350.803 -14.5207 386.503 -18.9344C422.324 -23.3632 455.827 -12.749 473.84 -0.0678537L476.142 -3.33862ZM282.034 50.1532C265.688 78.5064 261.801 100.451 265.257 116.695C268.728 133.012 279.535 143.224 291.721 148.156C303.82 153.052 317.473 152.823 326.906 148.07C331.652 145.678 335.432 142.08 337.263 137.308C339.101 132.516 338.863 126.828 336.112 120.492L332.443 122.085C334.872 127.681 334.913 132.266 333.528 135.876C332.136 139.506 329.191 142.439 325.106 144.498C316.876 148.645 304.447 148.991 293.222 144.448C282.085 139.94 272.326 130.699 269.169 115.862C265.997 100.952 269.419 80.0419 285.499 52.1511L282.034 50.1532ZM336.112 120.492C330.574 107.734 317.874 100.224 302.648 96.8611C287.393 93.4916 269.253 94.188 252.141 98.1398C235.037 102.09 218.761 109.339 207.312 119.257C195.837 129.197 189.041 142.001 191.556 156.845L195.499 156.177C193.291 143.137 199.138 131.63 209.931 122.28C220.749 112.909 236.367 105.888 253.041 102.037C269.708 98.1882 287.232 97.5525 301.786 100.767C316.369 103.988 327.622 110.978 332.443 122.085L336.112 120.492ZM191.556 156.845C198.927 200.367 194.473 225.456 183.436 242.221C172.34 259.074 154.379 267.925 133.405 278.45C112.55 288.915 89.0542 300.908 67.9729 324.165C46.8757 347.439 28.3199 381.843 16.9462 436.974L20.8636 437.783C32.1263 383.19 50.4192 349.486 70.9366 326.851C91.4698 304.199 114.355 292.484 135.199 282.025C155.924 271.626 174.981 262.337 186.777 244.42C198.63 226.415 202.939 200.103 195.499 156.177L191.556 156.845Z" fill="white"/>
</g>
</svg>
