<svg width="109" height="36" viewBox="0 0 109 36" fill="none" xmlns="http://www.w3.org/2000/svg">
<path d="M94.7412 12.1504V15.5781H85.1904V12.1504H94.7412ZM87.1973 8.20996H92.1338V22.8291C92.1338 23.249 92.1826 23.5762 92.2803 23.8105C92.3779 24.0352 92.5439 24.1963 92.7783 24.2939C93.0225 24.3818 93.3447 24.4258 93.7451 24.4258C94.0283 24.4258 94.2627 24.4209 94.4482 24.4111C94.6338 24.3916 94.8096 24.3672 94.9756 24.3379V27.8682C94.5557 28.0049 94.1162 28.1074 93.6572 28.1758C93.1982 28.2539 92.71 28.293 92.1924 28.293C91.1377 28.293 90.2344 28.127 89.4824 27.7949C88.7402 27.4629 88.1738 26.9404 87.7832 26.2275C87.3926 25.5146 87.1973 24.5869 87.1973 23.4443V8.20996Z" fill="#ECF1F4"/>
<path d="M94.7412 12.1504H94.8412V12.0504H94.7412V12.1504ZM94.7412 15.5781V15.6781H94.8412V15.5781H94.7412ZM85.1904 15.5781H85.0904V15.6781H85.1904V15.5781ZM85.1904 12.1504V12.0504H85.0904V12.1504H85.1904ZM87.1973 8.20996V8.10996H87.0973V8.20996H87.1973ZM92.1338 8.20996H92.2338V8.10996H92.1338V8.20996ZM92.2803 23.8105L92.188 23.849L92.1886 23.8504L92.2803 23.8105ZM92.7783 24.2939L92.7398 24.3864L92.7444 24.388L92.7783 24.2939ZM94.4482 24.4111L94.4535 24.5111L94.4587 24.5106L94.4482 24.4111ZM94.9756 24.3379H95.0756V24.2187L94.9582 24.2394L94.9756 24.3379ZM94.9756 27.8682L95.0065 27.9633L95.0756 27.9408V27.8682H94.9756ZM93.6572 28.1758L93.6425 28.0769L93.6404 28.0772L93.6572 28.1758ZM89.4824 27.7949L89.4416 27.8862L89.442 27.8864L89.4824 27.7949ZM94.6412 12.1504V15.5781H94.8412V12.1504H94.6412ZM94.7412 15.4781H85.1904V15.6781H94.7412V15.4781ZM85.2904 15.5781V12.1504H85.0904V15.5781H85.2904ZM85.1904 12.2504H94.7412V12.0504H85.1904V12.2504ZM87.1973 8.30996H92.1338V8.10996H87.1973V8.30996ZM92.0338 8.20996V22.8291H92.2338V8.20996H92.0338ZM92.0338 22.8291C92.0338 23.2547 92.083 23.597 92.188 23.849L92.3726 23.7721C92.2823 23.5553 92.2338 23.2433 92.2338 22.8291H92.0338ZM92.1886 23.8504C92.2969 24.0997 92.4826 24.2791 92.7399 24.3863L92.8168 24.2016C92.6053 24.1135 92.4589 23.9706 92.372 23.7707L92.1886 23.8504ZM92.7444 24.388C93.0037 24.4814 93.3388 24.5258 93.7451 24.5258V24.3258C93.3507 24.3258 93.0412 24.2823 92.8122 24.1999L92.7444 24.388ZM93.7451 24.5258C94.0293 24.5258 94.2655 24.5209 94.4535 24.511L94.443 24.3113C94.2598 24.3209 94.0274 24.3258 93.7451 24.3258V24.5258ZM94.4587 24.5106C94.6463 24.4908 94.8244 24.4661 94.993 24.4364L94.9582 24.2394C94.7947 24.2683 94.6212 24.2924 94.4378 24.3117L94.4587 24.5106ZM94.8756 24.3379V27.8682H95.0756V24.3379H94.8756ZM94.9446 27.7731C94.5303 27.908 94.0963 28.0093 93.6425 28.0769L93.672 28.2747C94.1362 28.2056 94.5811 28.1018 95.0065 27.9633L94.9446 27.7731ZM93.6404 28.0772C93.1876 28.1543 92.705 28.193 92.1924 28.193V28.393C92.715 28.393 93.2089 28.3535 93.674 28.2744L93.6404 28.0772ZM92.1924 28.193C91.1478 28.193 90.259 28.0285 89.5228 27.7034L89.442 27.8864C90.2098 28.2254 91.1276 28.393 92.1924 28.393V28.193ZM89.5233 27.7036C88.801 27.3805 88.251 26.8732 87.8709 26.1795L87.6955 26.2756C88.0966 27.0076 88.6795 27.5453 89.4416 27.8862L89.5233 27.7036ZM87.8709 26.1795C87.491 25.4861 87.2973 24.5766 87.2973 23.4443H87.0973C87.0973 24.5973 87.2942 25.5432 87.6955 26.2756L87.8709 26.1795ZM87.2973 23.4443V8.20996H87.0973V23.4443H87.2973Z" fill="#EC6055"/>
<path d="M77.0859 24.4844C77.5449 24.4844 77.9355 24.4014 78.2578 24.2354C78.5898 24.0596 78.8389 23.8154 79.0049 23.5029C79.1807 23.1807 79.2637 22.7949 79.2539 22.3457H83.8975C83.9072 23.5371 83.6143 24.582 83.0186 25.4805C82.4326 26.3691 81.6318 27.0625 80.6162 27.5605C79.6104 28.0488 78.4727 28.293 77.2031 28.293C75.9629 28.293 74.8789 28.0928 73.9512 27.6924C73.0234 27.2822 72.2471 26.7158 71.6221 25.9932C71.0068 25.2607 70.543 24.4062 70.2305 23.4297C69.9277 22.4531 69.7764 21.3936 69.7764 20.251V19.9141C69.7764 18.7715 69.9277 17.7119 70.2305 16.7354C70.543 15.749 71.0068 14.8945 71.6221 14.1719C72.2471 13.4395 73.0186 12.873 73.9365 12.4727C74.8643 12.0625 75.9434 11.8574 77.1738 11.8574C78.4922 11.8574 79.6543 12.1064 80.6602 12.6045C81.6758 13.1025 82.4717 13.8252 83.0479 14.7725C83.624 15.7197 83.9072 16.8672 83.8975 18.2148H79.2539C79.2637 17.7363 79.1904 17.3066 79.0342 16.9258C78.8779 16.5449 78.6338 16.2422 78.3018 16.0176C77.9795 15.7832 77.5645 15.666 77.0566 15.666C76.5488 15.666 76.1387 15.7783 75.8262 16.0029C75.5137 16.2275 75.2744 16.54 75.1084 16.9404C74.9521 17.3311 74.8447 17.7803 74.7861 18.2881C74.7373 18.7959 74.7129 19.3379 74.7129 19.9141V20.251C74.7129 20.8369 74.7373 21.3887 74.7861 21.9062C74.8447 22.4141 74.957 22.8633 75.123 23.2539C75.2891 23.6348 75.5283 23.9375 75.8408 24.1621C76.1533 24.377 76.5684 24.4844 77.0859 24.4844Z" fill="#ECF1F4"/>
<path d="M78.2578 24.2354L78.3036 24.3243L78.3046 24.3237L78.2578 24.2354ZM79.0049 23.5029L78.9171 23.455L78.9166 23.456L79.0049 23.5029ZM79.2539 22.3457V22.2457H79.1517L79.1539 22.3479L79.2539 22.3457ZM83.8975 22.3457L83.9975 22.3449L83.9966 22.2457H83.8975V22.3457ZM83.0186 25.4805L82.9352 25.4252L82.9351 25.4254L83.0186 25.4805ZM80.6162 27.5605L80.6599 27.6505L80.6602 27.6503L80.6162 27.5605ZM73.9512 27.6924L73.9107 27.7838L73.9115 27.7842L73.9512 27.6924ZM71.6221 25.9932L71.5455 26.0575L71.5464 26.0586L71.6221 25.9932ZM70.2305 23.4297L70.1349 23.4593L70.1352 23.4602L70.2305 23.4297ZM70.2305 16.7354L70.1351 16.7051L70.135 16.7057L70.2305 16.7354ZM71.6221 14.1719L71.546 14.107L71.5459 14.1071L71.6221 14.1719ZM73.9365 12.4727L73.9765 12.5643L73.977 12.5641L73.9365 12.4727ZM80.6602 12.6045L80.6158 12.6941L80.6161 12.6943L80.6602 12.6045ZM83.8975 18.2148V18.3148H83.9967L83.9975 18.2156L83.8975 18.2148ZM79.2539 18.2148L79.1539 18.2128L79.1518 18.3148H79.2539V18.2148ZM78.3018 16.0176L78.2429 16.0985L78.2457 16.1004L78.3018 16.0176ZM75.1084 16.9404L75.016 16.9021L75.0156 16.9033L75.1084 16.9404ZM74.7861 18.2881L74.6868 18.2766L74.6866 18.2785L74.7861 18.2881ZM74.7861 21.9062L74.6866 21.9156L74.6868 21.9177L74.7861 21.9062ZM75.123 23.2539L75.031 23.293L75.0314 23.2939L75.123 23.2539ZM75.8408 24.1621L75.7824 24.2433L75.7842 24.2445L75.8408 24.1621ZM77.0859 24.5844C77.5567 24.5844 77.9639 24.4992 78.3036 24.3242L78.212 24.1465C77.9072 24.3035 77.5331 24.3844 77.0859 24.3844V24.5844ZM78.3046 24.3237C78.6532 24.1392 78.9172 23.8811 79.0932 23.5498L78.9166 23.456C78.7605 23.7497 78.5265 23.9799 78.211 24.147L78.3046 24.3237ZM79.0927 23.5508C79.2785 23.2101 79.3639 22.8063 79.3539 22.3435L79.1539 22.3479C79.1634 22.7835 79.0828 23.1512 78.9171 23.455L79.0927 23.5508ZM79.2539 22.4457H83.8975V22.2457H79.2539V22.4457ZM83.7975 22.3465C83.8071 23.5202 83.5187 24.5451 82.9352 25.4252L83.1019 25.5357C83.7098 24.6189 84.0074 23.554 83.9975 22.3449L83.7975 22.3465ZM82.9351 25.4254C82.3596 26.2983 81.5728 26.9801 80.5722 27.4708L80.6602 27.6503C81.6908 27.1449 82.5057 26.44 83.102 25.5355L82.9351 25.4254ZM80.5725 27.4706C79.582 27.9514 78.4596 28.193 77.2031 28.193V28.393C78.4857 28.393 79.6387 28.1462 80.6599 27.6505L80.5725 27.4706ZM77.2031 28.193C75.9735 28.193 74.9035 27.9945 73.9908 27.6006L73.9115 27.7842C74.8543 28.1911 75.9523 28.393 77.2031 28.393V28.193ZM73.9916 27.6009C73.0765 27.1964 72.3125 26.6385 71.6977 25.9277L71.5464 26.0586C72.1817 26.7931 72.9703 27.3681 73.9107 27.7838L73.9916 27.6009ZM71.6986 25.9288C71.0924 25.2071 70.6345 24.3643 70.3257 23.3992L70.1352 23.4602C70.4514 24.4482 70.9213 25.3144 71.5455 26.0575L71.6986 25.9288ZM70.326 23.4001C70.0265 22.4342 69.8764 21.3847 69.8764 20.251H69.6764C69.6764 21.4024 69.8289 22.4721 70.135 23.4593L70.326 23.4001ZM69.8764 20.251V19.9141H69.6764V20.251H69.8764ZM69.8764 19.9141C69.8764 18.7804 70.0265 17.7309 70.326 16.765L70.135 16.7057C69.8289 17.6929 69.6764 18.7626 69.6764 19.9141H69.8764ZM70.3258 16.7656C70.6346 15.7908 71.0924 14.9483 71.6982 14.2367L71.5459 14.1071C70.9213 14.8407 70.4513 15.7073 70.1351 16.7051L70.3258 16.7656ZM71.6981 14.2368C72.3129 13.5164 73.0719 12.9589 73.9765 12.5643L73.8965 12.381C72.9652 12.7872 72.1812 13.3625 71.546 14.107L71.6981 14.2368ZM73.977 12.5641C74.8895 12.1607 75.9544 11.9574 77.1738 11.9574V11.7574C75.9323 11.7574 74.839 11.9643 73.8961 12.3812L73.977 12.5641ZM77.1738 11.9574C78.4795 11.9574 79.6259 12.204 80.6158 12.6941L80.7045 12.5149C79.6827 12.0089 78.5049 11.7574 77.1738 11.7574V11.9574ZM80.6161 12.6943C81.615 13.1841 82.3964 13.8938 82.9624 14.8244L83.1333 14.7205C82.547 13.7566 81.7366 13.021 80.7042 12.5147L80.6161 12.6943ZM82.9624 14.8244C83.527 15.7527 83.8071 16.881 83.7975 18.2141L83.9975 18.2156C84.0073 16.8534 83.721 15.6867 83.1333 14.7205L82.9624 14.8244ZM83.8975 18.1148H79.2539V18.3148H83.8975V18.1148ZM79.3539 18.2169C79.3639 17.7269 79.2889 17.2833 79.1267 16.8878L78.9417 16.9637C79.0919 17.33 79.1635 17.7458 79.1539 18.2128L79.3539 18.2169ZM79.1267 16.8878C78.9632 16.4893 78.7066 16.1707 78.3578 15.9347L78.2457 16.1004C78.561 16.3137 78.7927 16.6006 78.9417 16.9637L79.1267 16.8878ZM78.3606 15.9367C78.017 15.6869 77.5798 15.566 77.0566 15.566V15.766C77.5491 15.766 77.9419 15.8795 78.2429 16.0985L78.3606 15.9367ZM77.0566 15.566C76.5345 15.566 76.102 15.6815 75.7678 15.9217L75.8845 16.0841C76.1753 15.8751 76.5631 15.766 77.0566 15.766V15.566ZM75.7678 15.9217C75.4384 16.1585 75.1882 16.4868 75.016 16.9021L75.2008 16.9787C75.3606 16.5933 75.589 16.2966 75.8845 16.0841L75.7678 15.9217ZM75.0156 16.9033C74.8554 17.3037 74.7462 17.7618 74.6868 18.2766L74.8855 18.2995C74.9433 17.7987 75.0489 17.3584 75.2012 16.9776L75.0156 16.9033ZM74.6866 18.2785C74.6374 18.7899 74.6129 19.3351 74.6129 19.9141H74.8129C74.8129 19.3407 74.8372 18.8019 74.8857 18.2977L74.6866 18.2785ZM74.6129 19.9141V20.251H74.8129V19.9141H74.6129ZM74.6129 20.251C74.6129 20.8397 74.6374 21.3946 74.6866 21.9156L74.8857 21.8969C74.8372 21.3828 74.8129 20.8342 74.8129 20.251H74.6129ZM74.6868 21.9177C74.7463 22.4332 74.8606 22.892 75.031 23.293L75.2151 23.2148C75.0535 22.8346 74.9432 22.395 74.8855 21.8948L74.6868 21.9177ZM75.0314 23.2939C75.204 23.6899 75.4542 24.0074 75.7825 24.2433L75.8992 24.0809C75.6025 23.8676 75.3741 23.5797 75.2147 23.2139L75.0314 23.2939ZM75.7842 24.2445C76.1184 24.4743 76.5553 24.5844 77.0859 24.5844V24.3844C76.5814 24.3844 76.1882 24.2796 75.8975 24.0797L75.7842 24.2445Z" fill="url(#paint0_angular_1131_265)"/>
<path d="M62.0674 28.293C60.7783 28.293 59.626 28.0928 58.6104 27.6924C57.5947 27.2822 56.7354 26.7207 56.0322 26.0078C55.3389 25.2949 54.8066 24.4746 54.4355 23.5469C54.0742 22.6191 53.8936 21.6377 53.8936 20.6025V20.0459C53.8936 18.8838 54.0547 17.8096 54.377 16.8232C54.6992 15.8271 55.1777 14.958 55.8125 14.2158C56.4473 13.4736 57.2432 12.8975 58.2002 12.4873C59.1572 12.0674 60.2705 11.8574 61.54 11.8574C62.6631 11.8574 63.6689 12.0381 64.5576 12.3994C65.4463 12.7607 66.1982 13.2783 66.8135 13.9521C67.4385 14.626 67.9121 15.4414 68.2344 16.3984C68.5664 17.3555 68.7324 18.4297 68.7324 19.6211V21.6279H55.7832V18.5371H63.9131V18.1562C63.9229 17.6289 63.8301 17.1797 63.6348 16.8086C63.4492 16.4375 63.1758 16.1543 62.8145 15.959C62.4531 15.7637 62.0137 15.666 61.4961 15.666C60.959 15.666 60.5146 15.7832 60.1631 16.0176C59.8213 16.252 59.5527 16.5742 59.3574 16.9844C59.1719 17.3848 59.04 17.8486 58.9619 18.376C58.8838 18.9033 58.8447 19.46 58.8447 20.0459V20.6025C58.8447 21.1885 58.9229 21.7207 59.0791 22.1992C59.2451 22.6777 59.4795 23.0879 59.7822 23.4297C60.0947 23.7617 60.4658 24.0205 60.8955 24.2061C61.335 24.3916 61.833 24.4844 62.3896 24.4844C63.0635 24.4844 63.7275 24.3574 64.3818 24.1035C65.0361 23.8496 65.5977 23.4297 66.0664 22.8438L68.3076 25.5098C67.9854 25.9688 67.5264 26.4131 66.9307 26.8428C66.3447 27.2725 65.6416 27.624 64.8213 27.8975C64.001 28.1611 63.083 28.293 62.0674 28.293Z" fill="#ECF1F4"/>
<path d="M58.6104 27.6924L58.5729 27.7851L58.5737 27.7854L58.6104 27.6924ZM56.0322 26.0078L55.9605 26.0775L55.961 26.078L56.0322 26.0078ZM54.4355 23.5469L54.3424 23.5832L54.3427 23.584L54.4355 23.5469ZM54.377 16.8232L54.472 16.8543L54.4721 16.854L54.377 16.8232ZM58.2002 12.4873L58.2396 12.5792L58.2404 12.5789L58.2002 12.4873ZM66.8135 13.9521L66.7396 14.0196L66.7402 14.0202L66.8135 13.9521ZM68.2344 16.3984L68.1396 16.4304L68.1399 16.4312L68.2344 16.3984ZM68.7324 21.6279V21.7279H68.8324V21.6279H68.7324ZM55.7832 21.6279H55.6832V21.7279H55.7832V21.6279ZM55.7832 18.5371V18.4371H55.6832V18.5371H55.7832ZM63.9131 18.5371V18.6371H64.0131V18.5371H63.9131ZM63.9131 18.1562L63.8131 18.1544V18.1562H63.9131ZM63.6348 16.8086L63.5453 16.8533L63.5463 16.8552L63.6348 16.8086ZM60.1631 16.0176L60.1076 15.9344L60.1065 15.9351L60.1631 16.0176ZM59.3574 16.9844L59.2671 16.9414L59.2667 16.9423L59.3574 16.9844ZM59.0791 22.1992L58.984 22.2303L58.9846 22.232L59.0791 22.1992ZM59.7822 23.4297L59.7073 23.496L59.7094 23.4982L59.7822 23.4297ZM60.8955 24.2061L60.8559 24.2979L60.8566 24.2982L60.8955 24.2061ZM66.0664 22.8438L66.143 22.7794L66.0645 22.6861L65.9883 22.7813L66.0664 22.8438ZM68.3076 25.5098L68.3895 25.5672L68.4337 25.5043L68.3842 25.4454L68.3076 25.5098ZM66.9307 26.8428L66.8722 26.7617L66.8715 26.7621L66.9307 26.8428ZM64.8213 27.8975L64.8519 27.9927L64.8529 27.9923L64.8213 27.8975ZM62.0674 28.193C60.7886 28.193 59.6491 27.9944 58.647 27.5994L58.5737 27.7854C59.6029 28.1912 60.768 28.393 62.0674 28.393V28.193ZM58.6478 27.5997C57.6436 27.1941 56.7961 26.6399 56.1034 25.9376L55.961 26.078C56.6746 26.8015 57.5458 27.3703 58.5729 27.7851L58.6478 27.5997ZM56.1039 25.9381C55.4197 25.2346 54.8947 24.4254 54.5284 23.5097L54.3427 23.584C54.7186 24.5238 55.258 25.3552 55.9605 26.0775L56.1039 25.9381ZM54.5287 23.5106C54.1721 22.5949 53.9936 21.6258 53.9936 20.6025H53.7936C53.7936 21.6496 53.9764 22.6434 54.3424 23.5832L54.5287 23.5106ZM53.9936 20.6025V20.0459H53.7936V20.6025H53.9936ZM53.9936 20.0459C53.9936 18.8931 54.1534 17.8295 54.472 16.8543L54.2819 16.7922C53.956 17.7897 53.7936 18.8745 53.7936 20.0459H53.9936ZM54.4721 16.854C54.7906 15.8696 55.2629 15.0123 55.8885 14.2808L55.7365 14.1508C55.0926 14.9037 54.6078 15.7847 54.2818 16.7925L54.4721 16.854ZM55.8885 14.2808C56.5126 13.5511 57.2957 12.9837 58.2396 12.5792L58.1608 12.3954C57.1906 12.8112 56.3819 13.3962 55.7365 14.1508L55.8885 14.2808ZM58.2404 12.5789C59.1823 12.1656 60.2814 11.9574 61.54 11.9574V11.7574C60.2596 11.7574 59.1321 11.9692 58.16 12.3957L58.2404 12.5789ZM61.54 11.9574C62.6523 11.9574 63.6451 12.1363 64.52 12.492L64.5953 12.3068C63.6928 11.9398 62.6738 11.7574 61.54 11.7574V11.9574ZM64.52 12.492C65.3956 12.8481 66.1349 13.3573 66.7396 14.0196L66.8873 13.8847C66.2615 13.1993 65.497 12.6734 64.5953 12.3068L64.52 12.492ZM66.7402 14.0202C67.3546 14.6826 67.8214 15.4854 68.1396 16.4304L68.3291 16.3665C68.0028 15.3974 67.5223 14.5693 66.8868 13.8841L66.7402 14.0202ZM68.1399 16.4312C68.4677 17.376 68.6324 18.4389 68.6324 19.6211H68.8324C68.8324 18.4204 68.6651 17.3349 68.3289 16.3657L68.1399 16.4312ZM68.6324 19.6211V21.6279H68.8324V19.6211H68.6324ZM68.7324 21.5279H55.7832V21.7279H68.7324V21.5279ZM55.8832 21.6279V18.5371H55.6832V21.6279H55.8832ZM55.7832 18.6371H63.9131V18.4371H55.7832V18.6371ZM64.0131 18.5371V18.1562H63.8131V18.5371H64.0131ZM64.0131 18.1581C64.0231 17.6182 63.9282 17.1514 63.7233 16.762L63.5463 16.8552C63.732 17.208 63.8226 17.6396 63.8131 18.1544L64.0131 18.1581ZM63.7242 16.7639C63.5296 16.3746 63.2416 16.0762 62.862 15.871L62.7669 16.047C63.11 16.2324 63.3689 16.5004 63.5453 16.8533L63.7242 16.7639ZM62.862 15.871C62.4828 15.666 62.026 15.566 61.4961 15.566V15.766C62.0013 15.766 62.4235 15.8613 62.7669 16.047L62.862 15.871ZM61.4961 15.566C60.9446 15.566 60.4795 15.6864 60.1076 15.9344L60.2186 16.1008C60.5498 15.88 60.9734 15.766 61.4961 15.766V15.566ZM60.1065 15.9351C59.7488 16.1804 59.4693 16.5169 59.2671 16.9414L59.4477 17.0274C59.6362 16.6315 59.8937 16.3235 60.2196 16.1001L60.1065 15.9351ZM59.2667 16.9423C59.0764 17.353 58.9422 17.8264 58.863 18.3613L59.0608 18.3906C59.1378 17.8709 59.2674 17.4165 59.4482 17.0264L59.2667 16.9423ZM58.863 18.3613C58.7841 18.894 58.7447 19.4555 58.7447 20.0459H58.9447C58.9447 19.4644 58.9835 18.9127 59.0608 18.3906L58.863 18.3613ZM58.7447 20.0459V20.6025H58.9447V20.0459H58.7447ZM58.7447 20.6025C58.7447 21.1973 58.824 21.7402 58.984 22.2303L59.1742 22.1682C59.0217 21.7012 58.9447 21.1796 58.9447 20.6025H58.7447ZM58.9846 22.232C59.1545 22.7215 59.3951 23.1434 59.7074 23.496L59.8571 23.3634C59.5639 23.0324 59.3358 22.634 59.1736 22.1664L58.9846 22.232ZM59.7094 23.4982C60.0315 23.8405 60.414 24.107 60.8559 24.2979L60.9352 24.1142C60.5177 23.934 60.1579 23.683 59.855 23.3612L59.7094 23.4982ZM60.8566 24.2982C61.3103 24.4897 61.8218 24.5844 62.3896 24.5844V24.3844C61.8442 24.3844 61.3597 24.2935 60.9344 24.1139L60.8566 24.2982ZM62.3896 24.5844C63.0764 24.5844 63.7527 24.4549 64.418 24.1967L64.3457 24.0103C63.7024 24.2599 63.0506 24.3844 62.3896 24.3844V24.5844ZM64.418 24.1967C65.0899 23.936 65.6655 23.5049 66.1445 22.9062L65.9883 22.7813C65.5298 23.3544 64.9824 23.7632 64.3457 24.0103L64.418 24.1967ZM65.9899 22.9081L68.2311 25.5741L68.3842 25.4454L66.143 22.7794L65.9899 22.9081ZM68.2258 25.4523C67.9116 25.8998 67.4615 26.3366 66.8722 26.7617L66.9892 26.9239C67.5913 26.4896 68.0591 26.0377 68.3895 25.5672L68.2258 25.4523ZM66.8715 26.7621C66.2954 27.1846 65.6019 27.5318 64.7897 27.8026L64.8529 27.9923C65.6813 27.7162 66.3941 27.3603 66.9898 26.9234L66.8715 26.7621ZM64.7907 27.8023C63.9818 28.0622 63.0744 28.193 62.0674 28.193V28.393C63.0916 28.393 64.0201 28.26 64.8519 27.9927L64.7907 27.8023Z" fill="#66C195"/>
<path d="M29.7764 20.2363V19.9287C29.7764 18.7666 29.9424 17.6973 30.2744 16.7207C30.6064 15.7344 31.0947 14.8799 31.7393 14.1572C32.3838 13.4346 33.1797 12.873 34.127 12.4727C35.0742 12.0625 36.168 11.8574 37.4082 11.8574C38.6582 11.8574 39.7568 12.0625 40.7041 12.4727C41.6611 12.873 42.4619 13.4346 43.1064 14.1572C43.751 14.8799 44.2393 15.7344 44.5713 16.7207C44.9033 17.6973 45.0693 18.7666 45.0693 19.9287V20.2363C45.0693 21.3887 44.9033 22.458 44.5713 23.4443C44.2393 24.4209 43.751 25.2754 43.1064 26.0078C42.4619 26.7305 41.666 27.292 40.7188 27.6924C39.7715 28.0928 38.6777 28.293 37.4375 28.293C36.1973 28.293 35.0986 28.0928 34.1416 27.6924C33.1846 27.292 32.3838 26.7305 31.7393 26.0078C31.0947 25.2754 30.6064 24.4209 30.2744 23.4443C29.9424 22.458 29.7764 21.3887 29.7764 20.2363ZM34.7129 19.9287V20.2363C34.7129 20.832 34.7568 21.3887 34.8447 21.9062C34.9326 22.4238 35.0791 22.8779 35.2842 23.2686C35.4893 23.6494 35.7676 23.9473 36.1191 24.1621C36.4707 24.377 36.9102 24.4844 37.4375 24.4844C37.9551 24.4844 38.3848 24.377 38.7266 24.1621C39.0781 23.9473 39.3564 23.6494 39.5615 23.2686C39.7666 22.8779 39.9131 22.4238 40.001 21.9062C40.0889 21.3887 40.1328 20.832 40.1328 20.2363V19.9287C40.1328 19.3525 40.0889 18.8105 40.001 18.3027C39.9131 17.7852 39.7666 17.3311 39.5615 16.9404C39.3564 16.54 39.0781 16.2275 38.7266 16.0029C38.375 15.7783 37.9355 15.666 37.4082 15.666C36.8906 15.666 36.4561 15.7783 36.1045 16.0029C35.7627 16.2275 35.4893 16.54 35.2842 16.9404C35.0791 17.3311 34.9326 17.7852 34.8447 18.3027C34.7568 18.8105 34.7129 19.3525 34.7129 19.9287Z" fill="#ECF1F4"/>
<path d="M30.2744 16.7207L30.3691 16.7529L30.3692 16.7526L30.2744 16.7207ZM34.127 12.4727L34.1659 12.5648L34.1667 12.5644L34.127 12.4727ZM40.7041 12.4727L40.6644 12.5644L40.6655 12.5649L40.7041 12.4727ZM44.5713 16.7207L44.4765 16.7526L44.4766 16.7529L44.5713 16.7207ZM44.5713 23.4443L44.666 23.4765L44.6661 23.4762L44.5713 23.4443ZM43.1064 26.0078L43.1811 26.0744L43.1815 26.0739L43.1064 26.0078ZM40.7188 27.6924L40.6798 27.6003L40.7188 27.6924ZM31.7393 26.0078L31.6642 26.0739L31.6646 26.0744L31.7393 26.0078ZM30.2744 23.4443L30.1796 23.4762L30.1797 23.4765L30.2744 23.4443ZM35.2842 23.2686L35.1956 23.315L35.1961 23.316L35.2842 23.2686ZM38.7266 24.1621L38.6744 24.0768L38.6733 24.0774L38.7266 24.1621ZM39.5615 23.2686L39.6496 23.316L39.6501 23.315L39.5615 23.2686ZM40.001 18.3027L39.9024 18.3195L39.9024 18.3198L40.001 18.3027ZM39.5615 16.9404L39.4725 16.986L39.473 16.9869L39.5615 16.9404ZM36.1045 16.0029L36.0506 15.9187L36.0496 15.9194L36.1045 16.0029ZM35.2842 16.9404L35.3727 16.9869L35.3732 16.986L35.2842 16.9404ZM34.8447 18.3027L34.9433 18.3198L34.9433 18.3195L34.8447 18.3027ZM29.8764 20.2363V19.9287H29.6764V20.2363H29.8764ZM29.8764 19.9287C29.8764 18.7762 30.041 17.7179 30.3691 16.7529L30.1797 16.6885C29.8438 17.6767 29.6764 18.757 29.6764 19.9287H29.8764ZM30.3692 16.7526C30.6972 15.7781 31.179 14.9356 31.8139 14.2238L31.6646 14.0907C31.0105 14.8241 30.5157 15.6906 30.1796 16.6888L30.3692 16.7526ZM31.8139 14.2238C32.448 13.5129 33.2314 12.9598 34.1659 12.5648L34.088 12.3805C33.128 12.7863 32.3196 13.3563 31.6646 14.0907L31.8139 14.2238ZM34.1667 12.5644C35.0991 12.1607 36.1789 11.9574 37.4082 11.9574V11.7574C36.157 11.7574 35.0493 11.9643 34.0872 12.3809L34.1667 12.5644ZM37.4082 11.9574C38.6474 11.9574 39.732 12.1607 40.6644 12.5644L40.7438 12.3809C39.7817 11.9643 38.6691 11.7574 37.4082 11.7574V11.9574ZM40.6655 12.5649C41.6098 12.96 42.3979 13.5131 43.0318 14.2238L43.1811 14.0907C42.5259 13.3561 41.7125 12.7861 40.7427 12.3804L40.6655 12.5649ZM43.0318 14.2238C43.6667 14.9356 44.1485 15.7781 44.4765 16.7526L44.6661 16.6888C44.3301 15.6906 43.8352 14.8241 43.1811 14.0907L43.0318 14.2238ZM44.4766 16.7529C44.8047 17.7179 44.9693 18.7762 44.9693 19.9287H45.1693C45.1693 18.757 45.0019 17.6767 44.666 16.6885L44.4766 16.7529ZM44.9693 19.9287V20.2363H45.1693V19.9287H44.9693ZM44.9693 20.2363C44.9693 21.379 44.8047 22.4374 44.4765 23.4124L44.6661 23.4762C45.0019 22.4786 45.1693 21.3984 45.1693 20.2363H44.9693ZM44.4766 23.4121C44.1486 24.377 43.6667 25.2198 43.0314 25.9417L43.1815 26.0739C43.8352 25.331 44.3299 24.4648 44.666 23.4765L44.4766 23.4121ZM43.0318 25.9413C42.3978 26.6522 41.6143 27.2053 40.6798 27.6003L40.7577 27.7845C41.7177 27.3787 42.5261 26.8088 43.1811 26.0744L43.0318 25.9413ZM40.6798 27.6003C39.7471 27.9945 38.6671 28.193 37.4375 28.193V28.393C38.6884 28.393 39.7958 28.191 40.7577 27.7845L40.6798 27.6003ZM37.4375 28.193C36.208 28.193 35.1229 27.9945 34.1802 27.6001L34.103 27.7846C35.0744 28.191 36.1866 28.393 37.4375 28.393V28.193ZM34.1802 27.6001C33.2359 27.2051 32.4478 26.652 31.8139 25.9413L31.6646 26.0744C32.3198 26.809 33.1332 27.3789 34.103 27.7846L34.1802 27.6001ZM31.8143 25.9417C31.179 25.2198 30.6971 24.377 30.3691 23.4121L30.1797 23.4765C30.5158 24.4648 31.0105 25.331 31.6642 26.0739L31.8143 25.9417ZM30.3692 23.4124C30.041 22.4374 29.8764 21.379 29.8764 20.2363H29.6764C29.6764 21.3984 29.8438 22.4786 30.1796 23.4762L30.3692 23.4124ZM34.6129 19.9287V20.2363H34.8129V19.9287H34.6129ZM34.6129 20.2363C34.6129 20.8369 34.6572 21.3992 34.7461 21.923L34.9433 21.8895C34.8565 21.3781 34.8129 20.8272 34.8129 20.2363H34.6129ZM34.7461 21.923C34.8355 22.449 34.9848 22.9135 35.1956 23.315L35.3727 23.2221C35.1734 22.8423 35.0298 22.3986 34.9433 21.8895L34.7461 21.923ZM35.1961 23.316C35.4092 23.7116 35.6996 24.0229 36.067 24.2474L36.1713 24.0768C35.8356 23.8716 35.5693 23.5872 35.3722 23.2211L35.1961 23.316ZM36.067 24.2474C36.4381 24.4742 36.8968 24.5844 37.4375 24.5844V24.3844C36.9235 24.3844 36.5033 24.2797 36.1713 24.0768L36.067 24.2474ZM37.4375 24.5844C37.9687 24.5844 38.4181 24.4741 38.7798 24.2468L38.6733 24.0774C38.3514 24.2798 37.9415 24.3844 37.4375 24.3844V24.5844ZM38.7787 24.2474C39.1462 24.0229 39.4365 23.7116 39.6496 23.316L39.4735 23.2211C39.2764 23.5872 39.0101 23.8716 38.6744 24.0768L38.7787 24.2474ZM39.6501 23.315C39.8609 22.9135 40.0102 22.449 40.0996 21.923L39.9024 21.8895C39.8159 22.3986 39.6723 22.8423 39.473 23.2221L39.6501 23.315ZM40.0996 21.923C40.1885 21.3992 40.2328 20.8369 40.2328 20.2363H40.0328C40.0328 20.8272 39.9892 21.3781 39.9024 21.8895L40.0996 21.923ZM40.2328 20.2363V19.9287H40.0328V20.2363H40.2328ZM40.2328 19.9287C40.2328 19.3475 40.1885 18.7997 40.0995 18.2857L39.9024 18.3198C39.9893 18.8214 40.0328 19.3576 40.0328 19.9287H40.2328ZM40.0996 18.286C40.0102 17.7599 39.8609 17.2955 39.6501 16.8939L39.473 16.9869C39.6723 17.3666 39.8159 17.8104 39.9024 18.3195L40.0996 18.286ZM39.6505 16.8948C39.438 16.4799 39.1481 16.1536 38.7804 15.9187L38.6727 16.0872C39.0082 16.3015 39.2749 16.6001 39.4725 16.986L39.6505 16.8948ZM38.7804 15.9187C38.409 15.6814 37.9496 15.566 37.4082 15.566V15.766C37.9215 15.766 38.341 15.8753 38.6727 16.0872L38.7804 15.9187ZM37.4082 15.566C36.8761 15.566 36.4218 15.6816 36.0507 15.9187L36.1583 16.0872C36.4903 15.8751 36.9051 15.766 37.4082 15.766V15.566ZM36.0496 15.9194C35.6919 16.1544 35.4073 16.4806 35.1952 16.8948L35.3732 16.986C35.5712 16.5994 35.8335 16.3007 36.1594 16.0865L36.0496 15.9194ZM35.1956 16.8939C34.9848 17.2955 34.8355 17.7599 34.7461 18.286L34.9433 18.3195C35.0298 17.8104 35.1734 17.3666 35.3727 16.9869L35.1956 16.8939ZM34.7462 18.2857C34.6572 18.7997 34.6129 19.3475 34.6129 19.9287H34.8129C34.8129 19.3576 34.8565 18.8214 34.9433 18.3198L34.7462 18.2857Z" fill="#2A7DDD"/>
<path d="M47.7578 13.1504H52.709V29.5127C52.709 30.7822 52.4648 31.8516 51.9766 32.7207C51.4883 33.5996 50.79 34.2637 49.8818 34.7129C48.9736 35.1719 47.8896 35.4014 46.6299 35.4014C46.21 35.4014 45.8242 35.3818 45.4727 35.3428C45.1113 35.3135 44.7158 35.25 44.2861 35.1523V31.417C44.54 31.4561 44.7744 31.4854 44.9893 31.5049C45.2041 31.5342 45.4385 31.5488 45.6924 31.5488C46.1416 31.5488 46.5176 31.4756 46.8203 31.3291C47.123 31.1826 47.3525 30.958 47.5088 30.6553C47.6748 30.3525 47.7578 29.9717 47.7578 29.5127V13.1504ZM47.3916 9.06348C47.3916 8.36035 47.6455 7.78418 48.1533 7.33496C48.6611 6.88574 49.3203 6.66113 50.1309 6.66113C50.9414 6.66113 51.6006 6.88574 52.1084 7.33496C52.6162 7.78418 52.8701 8.36035 52.8701 9.06348C52.8701 9.7666 52.6162 10.3428 52.1084 10.792C51.6006 11.2412 50.9414 11.4658 50.1309 11.4658C49.3203 11.4658 48.6611 11.2412 48.1533 10.792C47.6455 10.3428 47.3916 9.7666 47.3916 9.06348Z" fill="#ECF1F4"/>
<path d="M47.7578 13.1504V13.0504H47.6578V13.1504H47.7578ZM52.709 13.1504H52.809V13.0504H52.709V13.1504ZM51.9766 32.7207L51.8894 32.6717L51.8891 32.6721L51.9766 32.7207ZM49.8818 34.7129L49.8375 34.6233L49.8367 34.6236L49.8818 34.7129ZM45.4727 35.3428L45.4837 35.2433L45.4807 35.2431L45.4727 35.3428ZM44.2861 35.1523H44.1861V35.2322L44.264 35.2499L44.2861 35.1523ZM44.2861 31.417L44.3013 31.3182L44.1861 31.3004V31.417H44.2861ZM44.9893 31.5049L45.0028 31.4057L44.9983 31.4053L44.9893 31.5049ZM47.5088 30.6553L47.4211 30.6072L47.4199 30.6094L47.5088 30.6553ZM47.7578 13.2504H52.709V13.0504H47.7578V13.2504ZM52.609 13.1504V29.5127H52.809V13.1504H52.609ZM52.609 29.5127C52.609 30.7697 52.3673 31.8211 51.8894 32.6717L52.0637 32.7697C52.5624 31.882 52.809 30.7948 52.809 29.5127H52.609ZM51.8891 32.6721C51.4108 33.5332 50.7277 34.183 49.8375 34.6233L49.9262 34.8025C50.8524 34.3444 51.5658 33.6661 52.064 32.7693L51.8891 32.6721ZM49.8367 34.6236C48.9454 35.0741 47.8776 35.3014 46.6299 35.3014V35.5014C47.9017 35.5014 49.0018 35.2697 49.9269 34.8021L49.8367 34.6236ZM46.6299 35.3014C46.213 35.3014 45.831 35.282 45.4837 35.2434L45.4616 35.4422C45.8174 35.4817 46.2069 35.5014 46.6299 35.5014V35.3014ZM45.4807 35.2431C45.125 35.2143 44.7343 35.1516 44.3083 35.0548L44.264 35.2499C44.6973 35.3484 45.0976 35.4127 45.4646 35.4424L45.4807 35.2431ZM44.3861 35.1523V31.417H44.1861V35.1523H44.3861ZM44.2709 31.5158C44.5265 31.5551 44.763 31.5847 44.9802 31.6045L44.9983 31.4053C44.7859 31.386 44.5536 31.357 44.3013 31.3182L44.2709 31.5158ZM44.9757 31.604C45.1957 31.634 45.4347 31.6488 45.6924 31.6488V31.4488C45.4423 31.4488 45.2125 31.4344 45.0028 31.4058L44.9757 31.604ZM45.6924 31.6488C46.1519 31.6488 46.5438 31.574 46.8639 31.4191L46.7768 31.2391C46.4914 31.3772 46.1313 31.4488 45.6924 31.4488V31.6488ZM46.8639 31.4191C47.1864 31.2631 47.4316 31.0228 47.5977 30.7011L47.4199 30.6094C47.2735 30.8932 47.0597 31.1022 46.7768 31.2391L46.8639 31.4191ZM47.5965 30.7034C47.7728 30.3818 47.8578 29.9832 47.8578 29.5127H47.6578C47.6578 29.9602 47.5768 30.3233 47.4211 30.6072L47.5965 30.7034ZM47.8578 29.5127V13.1504H47.6578V29.5127H47.8578ZM47.4916 9.06348C47.4916 8.38779 47.7341 7.83931 48.2196 7.40986L48.0871 7.26006C47.5569 7.72905 47.2916 8.33291 47.2916 9.06348H47.4916ZM48.2196 7.40986C48.7057 6.97986 49.3397 6.76113 50.1309 6.76113V6.56113C49.3009 6.56113 48.6166 6.79163 48.0871 7.26006L48.2196 7.40986ZM50.1309 6.76113C50.922 6.76113 51.5561 6.97986 52.0421 7.40986L52.1747 7.26006C51.6451 6.79163 50.9608 6.56113 50.1309 6.56113V6.76113ZM52.0421 7.40986C52.5276 7.83931 52.7701 8.38779 52.7701 9.06348H52.9701C52.9701 8.33291 52.7048 7.72905 52.1747 7.26006L52.0421 7.40986ZM52.7701 9.06348C52.7701 9.73916 52.5276 10.2876 52.0421 10.7171L52.1747 10.8669C52.7048 10.3979 52.9701 9.79404 52.9701 9.06348H52.7701ZM52.0421 10.7171C51.5561 11.1471 50.922 11.3658 50.1309 11.3658V11.5658C50.9608 11.5658 51.6451 11.3353 52.1747 10.8669L52.0421 10.7171ZM50.1309 11.3658C49.3397 11.3658 48.7057 11.1471 48.2196 10.7171L48.0871 10.8669C48.6166 11.3353 49.3009 11.5658 50.1309 11.5658V11.3658ZM48.2196 10.7171C47.7341 10.2876 47.4916 9.73916 47.4916 9.06348H47.2916C47.2916 9.79404 47.5569 10.3979 48.0871 10.8669L48.2196 10.7171Z" fill="#EC6055"/>
<path d="M23.3721 16.0762V28H18.4355V12.1504H23.0498L23.3721 16.0762ZM28.0596 12.0332L27.9717 16.6182C27.7764 16.5986 27.5127 16.5742 27.1807 16.5449C26.8486 16.5156 26.5703 16.501 26.3457 16.501C25.7695 16.501 25.2715 16.5693 24.8516 16.7061C24.4414 16.833 24.0996 17.0283 23.8262 17.292C23.5625 17.5459 23.3672 17.8682 23.2402 18.2588C23.123 18.6494 23.0693 19.1035 23.0791 19.6211L22.1855 19.0352C22.1855 17.9707 22.2881 17.0039 22.4932 16.1348C22.708 15.2559 23.0107 14.499 23.4014 13.8643C23.792 13.2197 24.2656 12.7266 24.8223 12.3848C25.3789 12.0332 26.0039 11.8574 26.6973 11.8574C26.9414 11.8574 27.1807 11.8721 27.415 11.9014C27.6592 11.9307 27.874 11.9746 28.0596 12.0332Z" fill="#ECF1F4"/>
<path d="M23.3721 16.0762H23.4724L23.4717 16.068L23.3721 16.0762ZM23.3721 28V28.1H23.4721V28H23.3721ZM18.4355 28H18.3355V28.1H18.4355V28ZM18.4355 12.1504V12.0504H18.3355V12.1504H18.4355ZM23.0498 12.1504L23.1495 12.1422L23.1419 12.0504H23.0498V12.1504ZM28.0596 12.0332L28.1596 12.0351L28.161 11.9604L28.0897 11.9378L28.0596 12.0332ZM27.9717 16.6182L27.9617 16.7177L28.0696 16.7285L28.0717 16.6201L27.9717 16.6182ZM24.8516 16.7061L24.8811 16.8016L24.8825 16.8011L24.8516 16.7061ZM23.8262 17.292L23.8955 17.364L23.8956 17.364L23.8262 17.292ZM23.2402 18.2588L23.1451 18.2279L23.1445 18.2301L23.2402 18.2588ZM23.0791 19.6211L23.0243 19.7047L23.1827 19.8086L23.1791 19.6192L23.0791 19.6211ZM22.1855 19.0352H22.0855V19.0892L22.1307 19.1188L22.1855 19.0352ZM22.4932 16.1348L22.396 16.111L22.3958 16.1118L22.4932 16.1348ZM23.4014 13.8643L23.4865 13.9167L23.4869 13.9161L23.4014 13.8643ZM24.8223 12.3848L24.8746 12.47L24.8757 12.4693L24.8223 12.3848ZM27.415 11.9014L27.4026 12.0006L27.4031 12.0007L27.415 11.9014ZM23.2721 16.0762V28H23.4721V16.0762H23.2721ZM23.3721 27.9H18.4355V28.1H23.3721V27.9ZM18.5355 28V12.1504H18.3355V28H18.5355ZM18.4355 12.2504H23.0498V12.0504H18.4355V12.2504ZM22.9501 12.1586L23.2724 16.0844L23.4717 16.068L23.1495 12.1422L22.9501 12.1586ZM27.9596 12.0313L27.8717 16.6162L28.0717 16.6201L28.1596 12.0351L27.9596 12.0313ZM27.9816 16.5187C27.7858 16.4991 27.5216 16.4746 27.1895 16.4453L27.1719 16.6445C27.5037 16.6738 27.767 16.6982 27.9617 16.7177L27.9816 16.5187ZM27.1895 16.4453C26.8558 16.4159 26.5743 16.401 26.3457 16.401V16.601C26.5663 16.601 26.8415 16.6154 27.1719 16.6445L27.1895 16.4453ZM26.3457 16.401C25.762 16.401 25.253 16.4702 24.8206 16.611L24.8825 16.8011C25.2899 16.6685 25.777 16.601 26.3457 16.601V16.401ZM24.822 16.6105C24.3989 16.7415 24.0428 16.9441 23.7568 17.22L23.8956 17.364C24.1564 17.1125 24.484 16.9245 24.8811 16.8016L24.822 16.6105ZM23.7568 17.22C23.4799 17.4866 23.2765 17.8236 23.1451 18.2279L23.3353 18.2897C23.4578 17.9128 23.6451 17.6052 23.8955 17.364L23.7568 17.22ZM23.1445 18.2301C23.0236 18.6329 22.9692 19.0977 22.9791 19.623L23.1791 19.6192C23.1695 19.1093 23.2225 18.666 23.336 18.2875L23.1445 18.2301ZM23.1339 19.5375L22.2404 18.9515L22.1307 19.1188L23.0243 19.7047L23.1339 19.5375ZM22.2855 19.0352C22.2855 17.977 22.3875 17.0181 22.5905 16.1577L22.3958 16.1118C22.1887 16.9897 22.0855 17.9644 22.0855 19.0352H22.2855ZM22.5903 16.1585C22.8032 15.2876 23.1024 14.5409 23.4865 13.9167L23.3162 13.8118C22.9191 14.4571 22.6128 15.2241 22.396 16.111L22.5903 16.1585ZM23.4869 13.9161C23.8705 13.2831 24.3335 12.8023 24.8746 12.47L24.7699 12.2995C24.1978 12.6509 23.7134 13.1564 23.3158 13.8124L23.4869 13.9161ZM24.8757 12.4693C25.4155 12.1284 26.0218 11.9574 26.6973 11.9574V11.7574C25.9861 11.7574 25.3424 11.938 24.7689 12.3002L24.8757 12.4693ZM26.6973 11.9574C26.9374 11.9574 27.1725 11.9718 27.4026 12.0006L27.4274 11.8021C27.1888 11.7723 26.9454 11.7574 26.6973 11.7574V11.9574ZM27.4031 12.0007C27.6426 12.0294 27.8512 12.0723 28.0295 12.1286L28.0897 11.9378C27.8969 11.877 27.6757 11.8319 27.427 11.8021L27.4031 12.0007Z" fill="#EC6055"/>
<path d="M6.37207 15.1973V34.0938H1.43555V12.1504H6.03516L6.37207 15.1973ZM16.0986 19.8848V20.1924C16.0986 21.3447 15.9668 22.4141 15.7031 23.4004C15.4395 24.3867 15.0488 25.2461 14.5312 25.9785C14.0137 26.7109 13.3691 27.2822 12.5977 27.6924C11.8359 28.0928 10.9521 28.293 9.94629 28.293C8.99902 28.293 8.18359 28.083 7.5 27.6631C6.81641 27.2432 6.24512 26.6621 5.78613 25.9199C5.32715 25.1777 4.95605 24.3281 4.67285 23.3711C4.38965 22.4141 4.16504 21.4033 3.99902 20.3389V19.9434C4.16504 18.8008 4.38965 17.7412 4.67285 16.7646C4.95605 15.7783 5.32715 14.9189 5.78613 14.1865C6.24512 13.4541 6.81152 12.8828 7.48535 12.4727C8.16895 12.0625 8.98438 11.8574 9.93164 11.8574C10.9375 11.8574 11.8213 12.0479 12.583 12.4287C13.3545 12.8096 13.999 13.3564 14.5166 14.0693C15.0439 14.7725 15.4395 15.6172 15.7031 16.6035C15.9668 17.5898 16.0986 18.6836 16.0986 19.8848ZM11.1621 20.1924V19.8848C11.1621 19.2695 11.1182 18.708 11.0303 18.2002C10.9424 17.6826 10.8008 17.2334 10.6055 16.8525C10.4199 16.4717 10.1709 16.1787 9.8584 15.9736C9.5459 15.7686 9.16016 15.666 8.70117 15.666C8.17383 15.666 7.72949 15.749 7.36816 15.915C7.0166 16.0713 6.7334 16.3154 6.51855 16.6475C6.31348 16.9697 6.16699 17.375 6.0791 17.8633C6.00098 18.3418 5.9668 18.9033 5.97656 19.5479V20.749C5.95703 21.4912 6.03027 22.1455 6.19629 22.7119C6.3623 23.2686 6.65039 23.7031 7.06055 24.0156C7.4707 24.3281 8.02734 24.4844 8.73047 24.4844C9.19922 24.4844 9.58984 24.377 9.90234 24.1621C10.2148 23.9375 10.4639 23.6299 10.6494 23.2393C10.835 22.8389 10.9668 22.3799 11.0449 21.8623C11.123 21.3447 11.1621 20.7881 11.1621 20.1924Z" fill="#ECF1F4"/>
<path d="M6.37207 15.1973H6.47268L6.47146 15.1863L6.37207 15.1973ZM6.37207 34.0938V34.1938H6.47207V34.0938H6.37207ZM1.43555 34.0938H1.33555V34.1938H1.43555V34.0938ZM1.43555 12.1504V12.0504H1.33555V12.1504H1.43555ZM6.03516 12.1504L6.13455 12.1394L6.12471 12.0504H6.03516V12.1504ZM14.5312 25.9785L14.6129 26.0362L14.5312 25.9785ZM12.5977 27.6924L12.6442 27.7809L12.6446 27.7807L12.5977 27.6924ZM3.99902 20.3389H3.89902V20.3466L3.90022 20.3543L3.99902 20.3389ZM3.99902 19.9434L3.90006 19.929L3.89902 19.9361V19.9434H3.99902ZM4.67285 16.7646L4.76889 16.7925L4.76897 16.7922L4.67285 16.7646ZM7.48535 12.4727L7.4339 12.3869L7.43336 12.3872L7.48535 12.4727ZM12.583 12.4287L12.5383 12.5182L12.5387 12.5184L12.583 12.4287ZM14.5166 14.0693L14.4357 14.1281L14.4366 14.1293L14.5166 14.0693ZM11.0303 18.2002L10.9317 18.2169L10.9317 18.2172L11.0303 18.2002ZM10.6055 16.8525L10.5156 16.8963L10.5165 16.8982L10.6055 16.8525ZM7.36816 15.915L7.40878 16.0064L7.40991 16.0059L7.36816 15.915ZM6.51855 16.6475L6.4346 16.5931L6.43419 16.5938L6.51855 16.6475ZM6.0791 17.8633L5.98067 17.8456L5.98041 17.8472L6.0791 17.8633ZM5.97656 19.5479H6.07657L6.07655 19.5463L5.97656 19.5479ZM5.97656 20.749L6.07656 20.7517V20.749H5.97656ZM6.19629 22.7119L6.10033 22.74L6.10046 22.7405L6.19629 22.7119ZM9.90234 24.1621L9.95901 24.2445L9.96071 24.2433L9.90234 24.1621ZM10.6494 23.2393L10.7397 23.2822L10.7401 23.2813L10.6494 23.2393ZM6.27207 15.1973V34.0938H6.47207V15.1973H6.27207ZM6.37207 33.9937H1.43555V34.1938H6.37207V33.9937ZM1.53555 34.0938V12.1504H1.33555V34.0938H1.53555ZM1.43555 12.2504H6.03516V12.0504H1.43555V12.2504ZM5.93576 12.1614L6.27268 15.2083L6.47146 15.1863L6.13455 12.1394L5.93576 12.1614ZM15.9986 19.8848V20.1924H16.1986V19.8848H15.9986ZM15.9986 20.1924C15.9986 21.3371 15.8677 22.3977 15.6065 23.3746L15.7997 23.4262C16.0659 22.4305 16.1986 21.3523 16.1986 20.1924H15.9986ZM15.6065 23.3746C15.3455 24.351 14.9595 25.1993 14.4496 25.9208L14.6129 26.0362C15.1382 25.2929 15.5334 24.4224 15.7997 23.4262L15.6065 23.3746ZM14.4496 25.9208C13.9408 26.6408 13.308 27.2015 12.5507 27.6041L12.6446 27.7807C13.4303 27.363 14.0866 26.7811 14.6129 26.0362L14.4496 25.9208ZM12.5511 27.6039C11.806 27.9955 10.9387 28.193 9.94629 28.193V28.393C10.9656 28.393 11.8659 28.19 12.6442 27.7809L12.5511 27.6039ZM9.94629 28.193C9.01412 28.193 8.21754 27.9865 7.55234 27.5779L7.44766 27.7483C8.14965 28.1795 8.98392 28.393 9.94629 28.393V28.193ZM7.55234 27.5779C6.88319 27.1668 6.32269 26.5974 5.87118 25.8673L5.70108 25.9725C6.16754 26.7268 6.74963 27.3195 7.44766 27.7483L7.55234 27.5779ZM5.87118 25.8673C5.41749 25.1337 5.04978 24.2924 4.76874 23.3427L4.57696 23.3995C4.86233 24.3638 5.23681 25.2218 5.70108 25.9725L5.87118 25.8673ZM4.76874 23.3427C4.48689 22.3903 4.26321 21.3839 4.09783 20.3235L3.90022 20.3543C4.06686 21.4228 4.29241 22.4379 4.57696 23.3995L4.76874 23.3427ZM4.09902 20.3389V19.9434H3.89902V20.3389H4.09902ZM4.09798 19.9577C4.26343 18.8191 4.48713 17.7641 4.76889 16.7925L4.57681 16.7368C4.29217 17.7183 4.06665 18.7824 3.90006 19.929L4.09798 19.9577ZM4.76897 16.7922C5.05006 15.8133 5.41768 14.9628 5.87087 14.2396L5.7014 14.1334C5.23662 14.8751 4.86205 15.7434 4.57674 16.7371L4.76897 16.7922ZM5.87087 14.2396C6.3224 13.5191 6.87803 12.9594 7.53735 12.5581L7.43336 12.3872C6.74502 12.8062 6.16783 13.3891 5.7014 14.1334L5.87087 14.2396ZM7.5368 12.5584C8.20215 12.1592 8.99906 11.9574 9.93164 11.9574V11.7574C8.96969 11.7574 8.13574 11.9658 7.4339 12.3869L7.5368 12.5584ZM9.93164 11.9574C10.9248 11.9574 11.7928 12.1454 12.5383 12.5182L12.6277 12.3393C11.8498 11.9503 10.9502 11.7574 9.93164 11.7574V11.9574ZM12.5387 12.5184C13.2953 12.8919 13.9274 13.428 14.4357 14.1281L14.5975 14.0106C14.0707 13.2849 13.4137 12.7273 12.6273 12.339L12.5387 12.5184ZM14.4366 14.1293C14.9551 14.8207 15.3456 15.6534 15.6065 16.6293L15.7997 16.5777C15.5333 15.581 15.1327 14.7242 14.5966 14.0093L14.4366 14.1293ZM15.6065 16.6293C15.8676 17.6059 15.9986 18.6908 15.9986 19.8848H16.1986C16.1986 18.6764 16.066 17.5738 15.7997 16.5777L15.6065 16.6293ZM11.2621 20.1924V19.8848H11.0621V20.1924H11.2621ZM11.2621 19.8848C11.2621 19.2649 11.2178 18.6975 11.1288 18.1831L10.9317 18.2172C11.0185 18.7185 11.0621 19.2742 11.0621 19.8848H11.2621ZM11.1289 18.1835C11.0396 17.658 10.8953 17.1986 10.6945 16.8069L10.5165 16.8982C10.7062 17.2682 10.8451 17.7072 10.9317 18.2169L11.1289 18.1835ZM10.6954 16.8087C10.503 16.4139 10.2427 16.1062 9.91326 15.89L9.80353 16.0572C10.0991 16.2512 10.3368 16.5295 10.5156 16.8963L10.6954 16.8087ZM9.91326 15.89C9.58109 15.672 9.17518 15.566 8.70117 15.566V15.766C9.14513 15.766 9.51071 15.8651 9.80353 16.0572L9.91326 15.89ZM8.70117 15.566C8.16389 15.566 7.70437 15.6505 7.32641 15.8242L7.40991 16.0059C7.75461 15.8475 8.18376 15.766 8.70117 15.766V15.566ZM7.32755 15.8237C6.95773 15.988 6.65967 16.2453 6.4346 16.5931L6.60251 16.7018C6.80712 16.3856 7.07547 16.1546 7.40878 16.0064L7.32755 15.8237ZM6.43419 16.5938C6.22039 16.9297 6.07022 17.3481 5.98068 17.8456L6.17752 17.881C6.26376 17.4019 6.40656 17.0097 6.60292 16.7011L6.43419 16.5938ZM5.98041 17.8472C5.90108 18.3331 5.86675 18.9007 5.87657 19.5494L6.07655 19.5463C6.06685 18.9059 6.10087 18.3505 6.17779 17.8794L5.98041 17.8472ZM5.87656 19.5479V20.749H6.07656V19.5479H5.87656ZM5.8766 20.7464C5.85686 21.4964 5.93074 22.1615 6.10033 22.74L6.29225 22.6838C6.1298 22.1296 6.0572 21.486 6.07653 20.7517L5.8766 20.7464ZM6.10046 22.7405C6.27173 23.3147 6.57085 23.7682 6.99994 24.0952L7.12115 23.9361C6.72993 23.638 6.45288 23.2224 6.29212 22.6833L6.10046 22.7405ZM6.99994 24.0952C7.43287 24.425 8.01331 24.5844 8.73047 24.5844V24.3844C8.04138 24.3844 7.50853 24.2312 7.12115 23.9361L6.99994 24.0952ZM8.73047 24.5844C9.21463 24.5844 9.62626 24.4733 9.959 24.2445L9.84569 24.0797C9.55343 24.2806 9.18381 24.3844 8.73047 24.3844V24.5844ZM9.96071 24.2433C10.2886 24.0077 10.5479 23.6861 10.7397 23.2822L10.5591 23.1964C10.3799 23.5736 10.1411 23.8673 9.84398 24.0809L9.96071 24.2433ZM10.7401 23.2813C10.9303 22.8709 11.0645 22.4025 11.1438 21.8772L10.946 21.8474C10.8691 22.3573 10.7396 22.8069 10.5587 23.1972L10.7401 23.2813ZM11.1438 21.8772C11.2228 21.3541 11.2621 20.7924 11.2621 20.1924H11.0621C11.0621 20.7838 11.0233 21.3354 10.946 21.8474L11.1438 21.8772Z" fill="#2A7DDD"/>
<defs>
<radialGradient id="paint0_angular_1131_265" cx="0" cy="0" r="1" gradientUnits="userSpaceOnUse" gradientTransform="translate(77 14) rotate(13.5359) scale(17.7231 7.35102)">
<stop stop-color="#2A7DDD"/>
<stop offset="0.8125" stop-color="#EC6055"/>
</radialGradient>
</defs>
</svg>
