<svg width="70" height="71" viewBox="0 0 70 71" fill="none" xmlns="http://www.w3.org/2000/svg">
<path d="M0.838309 37.5685C-0.279439 36.4182 -0.279438 34.5818 0.83831 33.4315L5.94305 28.178C6.62616 27.4749 6.91771 26.4772 6.7213 25.5147L5.25355 18.322C4.93216 16.7471 5.92022 15.2022 7.47946 14.8417L14.6005 13.1953C15.5534 12.975 16.3355 12.294 16.6881 11.3776L19.3234 4.52938C19.9004 3.02987 21.5628 2.26701 23.0685 2.81079L29.9449 5.29424C30.8651 5.62658 31.8894 5.47858 32.6791 4.89921L38.5807 0.569704C39.8729 -0.378297 41.6819 -0.116954 42.656 1.15846L47.1046 6.98329C47.6999 7.76276 48.6412 8.19473 49.6173 8.13636L56.9115 7.70016C58.5086 7.60465 59.8898 8.80722 60.023 10.4093L60.6314 17.7262C60.7128 18.7053 61.2723 19.5801 62.1249 20.0613L68.4958 23.6569C69.8908 24.4442 70.4057 26.2062 69.6557 27.6263L66.2307 34.1121C65.7724 34.9801 65.7724 36.0199 66.2307 36.8879L69.6557 43.3737C70.4057 44.7938 69.8908 46.5558 68.4958 47.3431L62.1249 50.9387C61.2723 51.4199 60.7128 52.2947 60.6314 53.2738L60.023 60.5907C59.8898 62.1928 58.5086 63.3954 56.9115 63.2998L49.6173 62.8636C48.6412 62.8053 47.6999 63.2372 47.1045 64.0167L42.656 69.8415C41.6819 71.117 39.8729 71.3783 38.5807 70.4303L32.6791 66.1008C31.8894 65.5214 30.8651 65.3734 29.9449 65.7058L23.0685 68.1892C21.5628 68.733 19.9004 67.9701 19.3234 66.4706L16.6881 59.6224C16.3355 58.706 15.5534 58.025 14.6005 57.8047L7.47946 56.1583C5.92022 55.7978 4.93217 54.2529 5.25355 52.678L6.7213 45.4853C6.91771 44.5228 6.62616 43.5251 5.94305 42.822L0.838309 37.5685Z" fill="#1E2227"/>
</svg>
