<svg width="86" height="86" viewBox="0 0 86 86" fill="none" xmlns="http://www.w3.org/2000/svg">
<path d="M77.4573 86L8.56174 86C7.43739 86 6.32406 85.7782 5.2853 85.3475C4.24654 84.9167 3.30273 84.2857 2.50769 83.4898C1.71266 82.6939 1.08196 81.7486 0.651695 80.7087C0.221426 79.6688 -3.25461e-07 78.5543 -3.74662e-07 77.4287L-3.38535e-06 8.55212C0.00505771 6.28219 0.909299 4.10695 2.5144 2.50365C4.11949 0.900356 6.29432 -5.66036e-06 8.56174 -1.04511e-07L34.4573 -1.23644e-06C36.723 -1.33548e-06 38.8958 0.901208 40.4979 2.50505C42.1 4.1089 43 6.28394 43 8.55212L43 34.3234C43 36.6372 43.9182 38.8562 45.5525 40.4924C47.1868 42.1285 49.4034 43.0479 51.7147 43.0479L77.3235 43.0479C78.4629 43.0479 79.5912 43.2728 80.6439 43.7093C81.6966 44.1458 82.653 44.7856 83.4587 45.5922C84.2644 46.3987 84.9035 47.3563 85.3396 48.4102C85.7756 49.464 86 50.5934 86 51.7341L86 77.5245C85.9798 79.7794 85.0709 81.9352 83.471 83.5225C81.8711 85.1098 79.7098 86.0001 77.4573 86V86Z" fill="#66C195"/>
</svg>
