<svg width="80" height="80" viewBox="0 0 80 80" fill="none" xmlns="http://www.w3.org/2000/svg">
<path d="M18.7638 40L1.74645 57.0175C0.633987 58.1298 0.00624689 59.6369 4.55333e-05 61.211C-0.00615347 62.7851 0.609629 64.2987 1.71329 65.4222L14.4503 78.1594C15.0136 78.7227 15.6822 79.1697 16.418 79.4748C17.1538 79.7799 17.9424 79.9372 18.7386 79.9376C19.5349 79.9381 20.3232 79.7817 21.0587 79.4774C21.7941 79.1731 22.4624 78.7269 23.0251 78.1642L35.6725 65.5167C36.8139 64.3752 38.3627 63.7346 39.9778 63.7355C41.593 63.7364 43.1423 64.3788 44.2851 65.5216L57.0126 78.2492C58.1328 79.3694 59.6515 79.9991 61.2348 80C62.8181 80.0009 64.3362 79.3728 65.4552 78.2539L78.2441 65.4648C79.3639 64.345 79.9933 62.8263 79.9942 61.2417C79.9951 59.6572 79.3674 58.1364 78.2489 57.0128L61.2362 40L78.2535 22.9825C79.366 21.8701 79.9937 20.363 79.9999 18.789C80.0061 17.2149 79.3904 15.7013 78.2867 14.5777L65.5497 1.8406C64.9863 1.27725 64.3178 0.830329 63.582 0.52521C62.8462 0.220088 62.0576 0.0628126 61.2614 0.0623703C60.4651 0.061928 59.6768 0.218326 58.9413 0.522631C58.2059 0.826931 57.5376 1.27309 56.9749 1.83581L44.3275 14.4833C43.1861 15.6248 41.6373 16.2654 40.0221 16.2645C38.407 16.2636 36.8576 15.6212 35.7149 14.4784L22.9874 1.75075C21.8672 0.630568 20.3485 0.000876208 18.7652 -3.49845e-06C17.1819 -0.000885635 15.6638 0.627146 14.5448 1.74609L1.75588 14.5352C0.63607 15.655 0.00665515 17.1737 0.00576573 18.7582C0.00487631 20.3428 0.63258 21.8636 1.75112 22.9872L18.7638 40Z" fill="#2A7DDD"/>
</svg>
