<svg width="88" height="88" viewBox="0 0 88 88" fill="none" xmlns="http://www.w3.org/2000/svg">
<path d="M2.34012 46.4524C-0.780055 46.1562 -0.780035 41.6382 2.34014 41.342L26.4931 39.0491C28.5486 38.854 29.5562 36.4648 28.2537 34.8747L12.8807 16.109C10.8999 13.691 14.1562 10.5183 16.5558 12.5282L34.9295 27.9179C36.5271 29.256 38.9814 28.2578 39.1732 26.1918L41.3886 2.33126C41.6772 -0.777166 46.251 -0.777166 46.5396 2.33126L48.755 26.1918C48.9468 28.2578 51.401 29.256 52.9986 27.9179L71.3724 12.5282C73.772 10.5183 77.0282 13.6911 75.0474 16.109L59.6745 34.8747C58.3719 36.4648 59.3796 38.854 61.4351 39.0491L85.5881 41.342C88.7082 41.6382 88.7082 46.1562 85.588 46.4524L61.4351 48.7453C59.3796 48.9404 58.3719 51.3296 59.6745 52.9197L75.0474 71.6854C77.0282 74.1033 73.772 77.2761 71.3724 75.2662L52.9986 59.8765C51.401 58.5383 48.9468 59.5366 48.755 61.6026L46.5396 85.4631C46.251 88.5715 41.6772 88.5715 41.3886 85.4631L39.1732 61.6025C38.9814 59.5366 36.5271 58.5383 34.9295 59.8765L16.5558 75.2662C14.1562 77.2761 10.8999 74.1033 12.8807 71.6854L28.2537 52.9197C29.5563 51.3296 28.5486 48.9404 26.4931 48.7453L2.34012 46.4524Z" fill="#FFD857"/>
</svg>
