<svg width="112" height="112" viewBox="0 0 112 112" fill="none" xmlns="http://www.w3.org/2000/svg">
<path d="M2.98076 59.2597C-0.993608 58.8818 -0.993583 53.1182 2.98079 52.7403L33.746 49.8153C36.3643 49.5664 37.6478 46.5184 35.9886 44.4899L16.4071 20.5504C13.884 17.4658 18.0316 13.4183 21.0882 15.9824L44.4921 35.6151C46.5271 37.3222 49.6532 36.0487 49.8975 33.4132L52.7194 2.97409C53.087 -0.991353 58.913 -0.991354 59.2806 2.97409L62.1025 33.4132C62.3468 36.0487 65.473 37.3222 67.5079 35.6151L90.9118 15.9824C93.9684 13.4183 98.116 17.4658 95.5929 20.5505L76.0114 44.49C74.3522 46.5184 75.6357 49.5664 78.254 49.8153L109.019 52.7403C112.994 53.1182 112.994 58.8818 109.019 59.2597L78.254 62.1847C75.6357 62.4336 74.3522 65.4816 76.0114 67.5101L95.593 91.4496C98.116 94.5342 93.9684 98.5817 90.9118 96.0176L67.5079 76.3849C65.4729 74.6778 62.3468 75.9513 62.1025 78.5869L59.2806 109.026C58.913 112.991 53.087 112.991 52.7194 109.026L49.8975 78.5868C49.6532 75.9513 46.5271 74.6778 44.4921 76.3849L21.0882 96.0177C18.0316 98.5817 13.884 94.5342 16.4071 91.4495L35.9886 67.5101C37.6478 65.4816 36.3643 62.4337 33.746 62.1847L2.98076 59.2597Z" fill="#66C195"/>
</svg>
