<svg width="61" height="62" viewBox="0 0 61 62" fill="none" xmlns="http://www.w3.org/2000/svg">
<path d="M1.15601 18.788C-0.349493 17.1101 1.17528 14.4691 3.38117 14.9339L21.1892 18.6865C22.1757 18.8944 23.1867 18.4408 23.6935 17.563L32.8421 1.71718C33.9754 -0.245658 36.9434 0.379784 37.1734 2.6299L39.0308 20.795C39.1337 21.8013 39.8713 22.6233 40.8578 22.8312L58.6658 26.5838C60.8717 27.0487 61.1812 30.0762 59.1175 31.002L42.4574 38.476C41.5345 38.8901 40.9793 39.8517 41.0822 40.858L42.9396 59.0231C43.1696 61.2732 40.3929 62.5189 38.8874 60.8409L26.7336 47.295C26.0603 46.5446 24.9796 46.3169 24.0567 46.7309L7.39656 54.205C5.33286 55.1308 3.30722 52.8732 4.44047 50.9103L13.5891 35.0645C14.0959 34.1867 13.9832 33.0843 13.3099 32.3339L1.15601 18.788Z" fill="#EC6055"/>
</svg>
