<svg width="86" height="86" viewBox="0 0 86 86" fill="none" xmlns="http://www.w3.org/2000/svg">
<path d="M53.2381 18.283L53.2381 4.06793C53.2381 2.99533 52.8142 1.96612 52.0583 1.20427C51.3025 0.442419 50.2759 0.00959558 49.2021 -2.15069e-06L36.921 -1.61387e-06C36.3778 -1.59012e-06 35.84 0.106856 35.3382 0.31449C34.8363 0.522124 34.3804 0.826476 33.9963 1.21013C33.6122 1.59379 33.3075 2.04925 33.0997 2.55052C32.8918 3.05179 32.7847 3.58906 32.7847 4.13164L32.7847 18.3058L22.7104 8.23144C21.9519 7.47297 20.9244 7.04497 19.8512 7.04075C18.778 7.03652 17.7461 7.45636 16.98 8.20883L8.29594 16.8929C7.91186 17.277 7.60714 17.7328 7.39911 18.2345C7.19108 18.7362 7.08386 19.2738 7.08355 19.8167C7.08325 20.3596 7.18988 20.8971 7.39735 21.3985C7.60483 21.8999 7.90901 22.3556 8.29267 22.7392L18.3153 32.7619L4.07243 32.7619C2.99235 32.7619 1.95661 33.1905 1.19288 33.9534C0.429143 34.7163 -2.19644e-06 35.751 -2.14928e-06 36.8298L-1.61027e-06 49.1611C-4.25591e-06 50.2408 0.428736 51.2764 1.19221 52.0408C1.95569 52.8051 2.99151 53.2357 4.07243 53.2381L18.2831 53.2381L8.23468 63.2865C7.47095 64.0503 7.04163 65.0857 7.04103 66.1652C7.04043 67.2447 7.46861 68.2797 8.2315 69.0426L16.951 77.7621C17.7145 78.5256 18.7499 78.9547 19.8303 78.9554C20.9106 78.956 21.9475 78.528 22.7135 77.7654L32.7619 67.717L32.7619 81.9321C32.7619 83.0047 33.1858 84.0339 33.9417 84.7957C34.6975 85.5576 35.7241 85.9904 36.7979 86L49.079 86C49.6222 86 50.16 85.8931 50.6618 85.6855C51.1637 85.4779 51.6196 85.1735 52.0037 84.7899C52.3878 84.4062 52.6925 83.9507 52.9003 83.4495C53.1082 82.9482 53.2153 82.4109 53.2153 81.8684L53.2153 67.6942L63.2896 77.7685C64.0481 78.527 65.0756 78.955 66.1488 78.9592C67.222 78.9635 68.2539 78.5436 69.02 77.7912L77.7041 69.1071C78.0881 68.723 78.3929 68.2671 78.6009 67.7655C78.8089 67.2638 78.9161 66.7262 78.9164 66.1833C78.9167 65.6404 78.8101 65.1029 78.6026 64.6015C78.3952 64.1001 78.091 63.6444 77.7073 63.2608L67.6847 53.2381L81.9276 53.2381C83.0077 53.2381 84.0434 52.8095 84.8071 52.0466C85.5709 51.2837 86 50.249 86 49.1702L86 36.8389C86 35.7592 85.5713 34.7236 84.8078 33.9592C84.0443 33.1949 83.0085 32.7643 81.9276 32.7619L67.7169 32.7619L77.7653 22.7135C78.529 21.9497 78.9584 20.9143 78.959 19.8348C78.9596 18.7553 78.5314 17.7202 77.7685 16.9574L69.049 8.23787C68.2855 7.47439 67.2501 7.04525 66.1697 7.04464C65.0894 7.04403 64.0525 7.472 63.2865 8.23462L53.2381 18.283Z" fill="#FFD857"/>
</svg>
