<svg width="84" height="84" viewBox="0 0 84 84" fill="none" xmlns="http://www.w3.org/2000/svg">
<path d="M52 17.8578L52 3.97333C52 2.92566 51.586 1.92039 50.8477 1.17627C50.1094 0.432134 49.1067 0.00937438 48.0579 -2.10068e-06L36.0624 -1.57634e-06C35.5318 -1.55314e-06 35.0065 0.104369 34.5164 0.307173C34.0262 0.509985 33.5808 0.807257 33.2057 1.18199C32.8305 1.55672 32.5329 2.00159 32.3299 2.49121C32.1269 2.98082 32.0223 3.5056 32.0223 4.03556L32.0223 17.8801L22.1822 8.04002C21.4414 7.29918 20.4378 6.88114 19.3896 6.87701C18.3413 6.87288 17.3334 7.28296 16.5851 8.01793L8.10301 16.5001C7.72786 16.8752 7.43023 17.3204 7.22704 17.8105C7.02385 18.3005 6.91912 18.8256 6.91882 19.3558C6.91853 19.8861 7.02268 20.4111 7.22532 20.9009C7.42797 21.3906 7.72508 21.8357 8.09982 22.2104L17.8894 32L3.97773 32C2.92276 32 1.91111 32.4186 1.16514 33.1638C0.419163 33.9089 -2.14536e-06 34.9195 -2.0993e-06 35.9733L-1.57282e-06 48.0178C-4.15693e-06 49.0724 0.418766 50.084 1.16449 50.8305C1.9102 51.5771 2.92194 51.9976 3.97773 52L17.8579 52L8.04318 61.8147C7.2972 62.5607 6.87787 63.5721 6.87728 64.6264C6.8767 65.6808 7.29493 66.6918 8.04007 67.437L16.5568 75.9537C17.3025 76.6994 18.3139 77.1186 19.3691 77.1192C20.4243 77.1198 21.4371 76.7018 22.1853 75.9569L32 66.1422L32 80.0267C32 81.0743 32.414 82.0796 33.1523 82.8237C33.8906 83.5679 34.8933 83.9906 35.9421 84L47.9376 84C48.4682 84 48.9935 83.8956 49.4836 83.6928C49.9738 83.49 50.4192 83.1927 50.7943 82.818C51.1695 82.4433 51.4671 81.9984 51.6701 81.5088C51.8731 81.0192 51.9777 80.4944 51.9777 79.9644L51.9777 66.1199L61.8178 75.96C62.5586 76.7008 63.5622 77.1189 64.6104 77.123C65.6587 77.1271 66.6666 76.717 67.4148 75.9821L75.897 67.4999C76.2721 67.1248 76.5698 66.6795 76.773 66.1895C76.9761 65.6995 77.0809 65.1744 77.0812 64.6441C77.0815 64.1139 76.9773 63.5889 76.7747 63.0991C76.572 62.6094 76.2749 62.1643 75.9002 61.7896L66.1106 52L80.0223 52C81.0772 52 82.0889 51.5814 82.8349 50.8362C83.5808 50.0911 84 49.0805 84 48.0267L84 35.9822C84 34.9276 83.5812 33.916 82.8355 33.1695C82.0898 32.4229 81.0781 32.0024 80.0223 32L66.1421 32L75.9568 22.1853C76.7028 21.4393 77.1221 20.4279 77.1227 19.3736C77.1233 18.3192 76.7051 17.3081 75.9599 16.563L67.4432 8.04629C66.6975 7.30056 65.6861 6.88141 64.6309 6.88081C63.5757 6.88022 62.5629 7.29823 61.8147 8.04313L52 17.8578Z" fill="#EC6055"/>
</svg>
