<svg width="83" height="83" viewBox="0 0 83 83" fill="none" xmlns="http://www.w3.org/2000/svg">
<path d="M51.381 17.6452L51.381 3.92603C51.381 2.89084 50.9718 1.89754 50.2423 1.16226C49.5128 0.426985 48.5221 0.00925996 47.4858 -2.07567e-06L35.633 -1.55757e-06C35.1088 -1.53465e-06 34.5898 0.103125 34.1054 0.303519C33.6211 0.503912 33.181 0.797644 32.8103 1.16792C32.4397 1.53819 32.1456 1.97776 31.945 2.46155C31.7444 2.94533 31.641 3.46387 31.641 3.98752L31.641 17.6672L21.9181 7.9443C21.1862 7.21229 20.1945 6.79922 19.1587 6.79513C18.123 6.79106 17.127 7.19626 16.3877 7.92248L8.00655 16.3036C7.63586 16.6743 7.34178 17.1143 7.141 17.5984C6.94023 18.0826 6.83675 18.6015 6.83645 19.1254C6.83616 19.6494 6.93907 20.1681 7.13931 20.652C7.33954 21.136 7.63311 21.5757 8.00339 21.946L17.6764 31.619L3.93037 31.619C2.88796 31.619 1.88836 32.0327 1.15127 32.769C0.414173 33.5052 -2.11982e-06 34.5038 -2.07431e-06 35.5451L-1.5541e-06 47.4462C-4.10745e-06 48.4882 0.41378 49.4877 1.15062 50.2254C1.88746 50.9631 2.88716 51.3786 3.93037 51.381L17.6453 51.381L7.94742 61.0788C7.21033 61.8159 6.79599 62.8153 6.79541 63.8571C6.79483 64.8989 7.20808 65.8979 7.94436 66.6342L16.3597 75.0495C17.0965 75.7863 18.0959 76.2005 19.1385 76.2011C20.1812 76.2017 21.1819 75.7886 21.9212 75.0526L31.619 65.3548L31.619 79.074C31.619 80.1092 32.0281 81.1025 32.7577 81.8377C33.4872 82.573 34.4779 82.9907 35.5142 83L47.367 83C47.8912 83 48.4102 82.8969 48.8945 82.6965C49.3789 82.4961 49.819 82.2024 50.1896 81.8321C50.5603 81.4618 50.8544 81.0222 51.055 80.5384C51.2556 80.0547 51.3589 79.5361 51.3589 79.0125L51.359 65.3328L61.0819 75.0557C61.8138 75.7877 62.8055 76.2008 63.8413 76.2049C64.877 76.2089 65.873 75.8037 66.6123 75.0775L74.9935 66.6964C75.3641 66.3257 75.6582 65.8857 75.859 65.4016C76.0598 64.9174 76.1633 64.3985 76.1635 63.8746C76.1638 63.3506 76.0609 62.8319 75.8607 62.348C75.6605 61.864 75.3669 61.4243 74.9966 61.054L65.3236 51.381L79.0696 51.381C80.112 51.381 81.1116 50.9673 81.8487 50.231C82.5858 49.4948 83 48.4962 83 47.4549L83 35.5538C83 34.5118 82.5862 33.5123 81.8494 32.7746C81.1125 32.0369 80.1128 31.6214 79.0696 31.619L65.3547 31.619L75.0526 21.9211C75.7897 21.1841 76.204 20.1847 76.2046 19.1429C76.2052 18.1011 75.7919 17.1021 75.0556 16.3658L66.6403 7.95051C65.9035 7.21365 64.9041 6.79948 63.8615 6.7989C62.8188 6.79831 61.8181 7.21135 61.0788 7.94737L51.381 17.6452Z" fill="#66C195"/>
</svg>
