<svg width="118" height="85" viewBox="0 0 118 85" fill="none" xmlns="http://www.w3.org/2000/svg">
<circle cx="58" cy="40" r="26" fill="#FFD857"/>
<circle cx="12.7103" cy="38.9254" r="11.7103" fill="white" stroke="#1E2227" stroke-width="2"/>
<path d="M116.57 38.9254C116.57 45.4229 111.475 50.6357 105.256 50.6357C99.0381 50.6357 93.9434 45.4229 93.9434 38.9254C93.9434 32.4278 99.0381 27.2151 105.256 27.2151C111.475 27.2151 116.57 32.4278 116.57 38.9254Z" fill="white" stroke="#1E2227" stroke-width="2"/>
<path d="M12.0623 32.8614C12.2323 32.1885 13.1883 32.1885 13.3583 32.8614C13.7657 34.4737 15.5327 35.3246 17.0473 34.6379C17.6793 34.3513 18.2754 35.0987 17.8553 35.6512C16.8488 36.975 17.2852 38.887 18.7664 39.643C19.3846 39.9584 19.1719 40.8905 18.478 40.9065C16.8155 40.9449 15.5927 42.4782 15.9252 44.1077C16.0639 44.7877 15.2026 45.2024 14.7575 44.67C13.6909 43.3941 11.7297 43.3941 10.6631 44.67C10.2179 45.2024 9.35662 44.7877 9.49537 44.1077C9.82787 42.4782 8.60508 40.9449 6.94253 40.9065C6.24871 40.8905 6.03599 39.9584 6.65413 39.643C8.13537 38.887 8.57178 36.975 7.56523 35.6512C7.14519 35.0987 7.74123 34.3513 8.37329 34.6379C9.88788 35.3246 11.6549 34.4737 12.0623 32.8614Z" stroke="#1E2227" stroke-width="2"/>
<path d="M102.789 43.9448H105.875C106.41 43.9448 106.923 43.7322 107.302 43.3537C107.68 42.9752 107.893 42.4619 107.893 41.9267C107.895 41.6604 107.844 41.3965 107.743 41.1499C107.643 40.9034 107.495 40.6792 107.307 40.4902C107.119 40.3013 106.896 40.1513 106.65 40.049C106.405 39.9466 106.141 39.8939 105.875 39.894H104.807C104.272 39.894 103.759 39.6813 103.38 39.3028C103.002 38.9244 102.789 38.4111 102.789 37.8758C102.789 37.3406 103.002 36.8273 103.38 36.4488C103.759 36.0703 104.272 35.8577 104.807 35.8577H107.893" stroke="#1E2227" stroke-width="2" stroke-miterlimit="10" stroke-linecap="round"/>
<path d="M105.348 33.4446V35.8283" stroke="#1E2227" stroke-width="2" stroke-miterlimit="10" stroke-linecap="round"/>
<path d="M105.348 43.9158V46.3141" stroke="#1E2227" stroke-width="2" stroke-miterlimit="10" stroke-linecap="round"/>
<line x1="27.2716" y1="8.57024" x2="91.783" y2="73.0817" stroke="#1E2227" stroke-width="2"/>
<line y1="-1" x2="91.2329" y2="-1" transform="matrix(-0.707107 0.707107 0.707107 0.707107 91.0742 9.27734)" stroke="#1E2227" stroke-width="2"/>
<line x1="23.832" y1="40.3083" x2="93.7386" y2="40.3083" stroke="#1E2227" stroke-width="2"/>
<circle cx="30.1868" cy="72.2896" r="11.7103" fill="white" stroke="#1E2227" stroke-width="2"/>
<path d="M34.0402 71.5823C34.0431 72.3371 33.8011 73.0725 33.3505 73.6781C33.0258 74.1392 32.5945 74.5151 32.0934 74.7737C31.5922 75.0324 31.036 75.1662 30.4721 75.1637C29.9081 75.1643 29.3519 75.0312 28.8492 74.7753C28.3466 74.5194 27.9118 74.1479 27.5805 73.6914C27.1272 73.0822 26.885 72.3417 26.8907 71.5823C26.8907 71.1126 26.9835 70.6476 27.1636 70.2138C27.3437 69.78 27.6077 69.3861 27.9405 69.0546C28.2732 68.7231 28.6681 68.4605 29.1026 68.282C29.537 68.1035 30.0024 68.0124 30.4721 68.0142C30.9412 68.0124 31.4059 68.1035 31.8396 68.2822C32.2733 68.4609 32.6674 68.7237 32.999 69.0554C33.3307 69.387 33.5935 69.7811 33.7721 70.2148C33.9508 70.6485 34.042 71.1133 34.0402 71.5823Z" stroke="#1E2227" stroke-width="2"/>
<path d="M36.9005 81.5987C36.9005 78.045 34.0197 75.1641 30.4659 75.1641C26.9121 75.1641 24.0312 78.045 24.0312 81.5987" stroke="#1E2227" stroke-width="2" stroke-linecap="round"/>
<circle cx="86.5899" cy="68.3177" r="7.73832" fill="white" stroke="#1E2227" stroke-width="2"/>
<path d="M94.3283 14.2989C94.3283 18.5727 90.8637 22.0372 86.5899 22.0372C82.3162 22.0372 78.8516 18.5727 78.8516 14.2989C78.8516 10.0251 82.3162 6.56059 86.5899 6.56059C90.8637 6.56059 94.3283 10.0251 94.3283 14.2989Z" fill="white" stroke="#1E2227" stroke-width="2"/>
<circle cx="26.2149" cy="8.73832" r="7.73832" fill="white" stroke="#1E2227" stroke-width="2"/>
<circle cx="57.8071" cy="40.5214" r="18.8598" fill="white" stroke="#1E2227" stroke-width="2"/>
<path d="M61.7717 35.5433H61.7716L61.7717 35.5508C61.7748 36.3828 61.5081 37.1934 61.0114 37.8609L61.0036 37.8714L60.9961 37.8821C60.6379 38.3908 60.162 38.8055 59.6091 39.0909L60.0678 39.9795L59.6091 39.0909C59.0562 39.3763 58.4426 39.5239 57.8204 39.5212L57.8149 39.5212C57.1896 39.5218 56.5731 39.3743 56.0158 39.0905C55.4586 38.8068 54.9766 38.395 54.6093 37.8889L54.6093 37.8889L54.6022 37.8793C54.1025 37.2078 53.8356 36.3916 53.8419 35.5546L53.8419 35.5546V35.547C53.8419 35.0263 53.9447 34.5108 54.1444 34.0299C54.3442 33.549 54.6368 33.1123 55.0057 32.7448C55.3746 32.3772 55.8124 32.0862 56.294 31.8882C56.7757 31.6903 57.2916 31.5894 57.8123 31.5913V31.5914L57.8198 31.5913C58.3392 31.5894 58.854 31.6903 59.3344 31.8882C59.8147 32.0862 60.2512 32.3772 60.6185 32.7445C60.9858 33.1119 61.2769 33.5483 61.4748 34.0287C61.6727 34.509 61.7736 35.0238 61.7717 35.5433Z" stroke="#1E2227" stroke-width="2"/>
<path d="M67.7368 49.7561C67.7368 44.3269 63.291 39.9255 57.8069 39.9255C52.3227 39.9255 47.877 44.3269 47.877 49.7561" stroke="#1E2227" stroke-width="2" stroke-linecap="round"/>
</svg>
