<svg width="69" height="69" viewBox="0 0 69 69" fill="none" xmlns="http://www.w3.org/2000/svg">
<circle cx="26" cy="26" r="26" fill="#66C195"/>
<circle cx="25.8" cy="25.8" r="18.8" fill="white" stroke="#1E2227" stroke-width="2"/>
<path d="M27.6543 17.0144C22.9863 15.7637 18.1883 18.5338 16.9375 23.2018" stroke="#1E2227" stroke-width="2" stroke-linecap="round"/>
<circle cx="25.6879" cy="25.6875" r="13.2191" stroke="#1E2227" stroke-width="2"/>
<rect x="35.2108" y="42.5361" width="10.3582" height="27.8345" transform="rotate(-45 35.2108 42.5361)" fill="white" stroke="#1E2227" stroke-width="2" stroke-linejoin="round"/>
<mask id="path-6-outside-1_426_991" maskUnits="userSpaceOnUse" x="53.8884" y="53.4342" width="17.6777" height="17.6777" fill="black">
<rect fill="white" x="53.8884" y="53.4342" width="17.6777" height="17.6777"/>
<path fill-rule="evenodd" clip-rule="evenodd" d="M62.627 56.7164L65.3134 59.4029L59.4032 65.313L56.7168 62.6266L62.627 56.7164ZM59.4032 65.313L62.3583 62.3579L65.3134 59.4029C66.7971 60.8865 66.6768 63.4123 65.0447 65.0444C63.4127 66.6764 60.8869 66.7967 59.4032 65.313Z"/>
</mask>
<path fill-rule="evenodd" clip-rule="evenodd" d="M62.627 56.7164L65.3134 59.4029L59.4032 65.313L56.7168 62.6266L62.627 56.7164ZM59.4032 65.313L62.3583 62.3579L65.3134 59.4029C66.7971 60.8865 66.6768 63.4123 65.0447 65.0444C63.4127 66.6764 60.8869 66.7967 59.4032 65.313Z" fill="white"/>
<path d="M62.627 56.7164L64.0412 55.3022L62.627 53.888L61.2127 55.3022L62.627 56.7164ZM56.7168 62.6266L55.3026 61.2124L53.8884 62.6266L55.3026 64.0408L56.7168 62.6266ZM62.3583 62.3579L63.7725 63.7722L63.7725 63.7722L62.3583 62.3579ZM66.7276 57.9887L64.0412 55.3022L61.2127 58.1306L63.8992 60.8171L66.7276 57.9887ZM60.8174 66.7272L66.7276 60.8171L63.8992 57.9887L57.989 63.8988L60.8174 66.7272ZM55.3026 64.0408L57.989 66.7272L60.8174 63.8988L58.131 61.2124L55.3026 64.0408ZM61.2127 55.3022L55.3026 61.2124L58.131 64.0408L64.0412 58.1306L61.2127 55.3022ZM60.8174 66.7272L63.7725 63.7722L60.9441 60.9437L57.989 63.8988L60.8174 66.7272ZM63.7725 63.7722L66.7276 60.8171L63.8992 57.9887L60.9441 60.9437L63.7725 63.7722ZM63.8992 60.8171C64.478 61.3959 64.6114 62.6493 63.6305 63.6302L66.459 66.4586C68.7422 64.1754 69.1161 60.3772 66.7276 57.9887L63.8992 60.8171ZM63.6305 63.6302C62.6497 64.611 61.3963 64.4776 60.8174 63.8988L57.989 66.7272C60.3776 69.1158 64.1757 68.7418 66.459 66.4586L63.6305 63.6302Z" fill="#1E2227" mask="url(#path-6-outside-1_426_991)"/>
<line x1="41.8029" y1="43.0743" x2="54.3581" y2="55.6296" stroke="black" stroke-width="2" stroke-linecap="round"/>
</svg>
