<svg width="499" height="492" viewBox="0 0 499 492" fill="none" xmlns="http://www.w3.org/2000/svg">
<path d="M240.541 8.30971C241.583 -2.54343 257.417 -2.54343 258.459 8.30972L273.806 168.158C274.492 175.302 282.853 178.808 288.43 174.291L414.346 72.3003C422.836 65.423 433.94 76.7742 426.878 85.1113L323.227 207.468C318.519 213.025 322.019 221.582 329.272 222.248L490.376 237.038C501.279 238.039 501.279 253.961 490.376 254.962L329.272 269.752C322.019 270.418 318.519 278.975 323.227 284.532L426.878 406.889C433.94 415.226 422.836 426.577 414.346 419.7L288.43 317.709C282.853 313.192 274.492 316.698 273.806 323.842L258.459 483.69C257.417 494.543 241.583 494.543 240.541 483.69L225.194 323.842C224.508 316.698 216.147 313.192 210.57 317.709L84.6544 419.7C76.1638 426.577 65.0599 415.226 72.1224 406.889L175.773 284.532C180.481 278.975 176.981 270.418 169.728 269.752L8.62429 254.962C-2.27867 253.961 -2.27865 238.039 8.62431 237.038L169.728 222.248C176.981 221.582 180.481 213.025 175.773 207.468L72.1225 85.1113C65.06 76.7742 76.1639 65.4231 84.6544 72.3004L210.57 174.291C216.147 178.808 224.508 175.302 225.194 168.158L240.541 8.30971Z" fill="#66C195"/>
</svg>
