<svg width="1103" height="625" viewBox="0 0 1103 625" fill="none" xmlns="http://www.w3.org/2000/svg">
<path d="M686.5 29C738.691 29 781 71.3103 781 123.503L781 334.497C781 386.69 738.691 429 686.5 429C634.309 429 592 386.69 592 334.497L592 123.503C592 71.3103 634.309 29 686.5 29Z" fill="#EC6055"/>
<path d="M328.675 411.517L465.708 411.517L534.225 530.191L465.708 648.866L328.675 648.866L260.158 530.191L328.675 411.517Z" fill="#2A7DDD"/>
<path d="M264 176L339.344 306.5H188.656L264 176Z" fill="#FFD74A"/>
<path d="M825.041 117.474C826.081 106.619 841.919 106.619 842.959 117.474L852.988 222.11C853.673 229.257 862.041 232.764 867.617 228.24L949.756 161.592C958.241 154.707 969.354 166.049 962.299 174.392L894.86 254.141C890.16 259.699 893.659 268.248 900.908 268.915L1005.55 278.538C1016.45 279.54 1016.45 295.46 1005.55 296.462L900.908 306.085C893.659 306.752 890.16 315.301 894.86 320.859L962.299 400.608C969.354 408.951 958.241 420.293 949.756 413.408L867.617 346.76C862.041 342.236 853.673 345.743 852.988 352.89L842.959 457.526C841.919 468.381 826.081 468.381 825.041 457.526L815.012 352.89C814.327 345.743 805.959 342.236 800.383 346.76L718.244 413.408C709.759 420.293 698.646 408.952 705.701 400.608L773.14 320.859C777.84 315.301 774.341 306.752 767.092 306.085L662.452 296.462C651.551 295.46 651.551 279.54 662.452 278.538L767.092 268.915C774.341 268.248 777.84 259.699 773.14 254.141L705.701 174.392C698.646 166.048 709.759 154.707 718.244 161.592L800.383 228.24C805.959 232.764 814.327 229.257 815.012 222.11L825.041 117.474Z" fill="#FFD857"/>
<ellipse cx="162.5" cy="-66.5" rx="162.5" ry="161.5" fill="#66C195"/>
<ellipse cx="1003.5" cy="625" rx="64.5" ry="64" fill="#66C195"/>
</svg>
