<svg width="670" height="242" viewBox="0 0 670 242" fill="none" xmlns="http://www.w3.org/2000/svg">
<path d="M0.914264 202.975C3.75002 199.249 7.91438 199.711 10.5127 195.72C9.0178 192.736 5.90618 195.09 4.40069 192.602C3.72174 190.508 4.65113 189.127 5.83105 187.819C7.65096 185.685 10.0432 185.226 12.2258 184.273C30.8259 176.302 49.7666 169.722 68.9553 164.563C95.8551 157.087 122.885 150.577 150.046 145.033C157.854 143.441 165.647 141.85 173.455 140.335C176.413 139.79 179.294 138.705 182.014 137.114L179.692 133.66L184.281 130.415C184.568 129.554 184.271 129.098 183.505 128.952C180.008 128.389 176.469 128.477 172.995 129.212C166.038 130.491 159.095 131.827 152.137 133.087C149.539 133.567 146.911 133.875 144.209 134.26C144.229 136.703 145.693 136.004 146.575 135.996C154.174 135.781 161.742 135.432 169.296 135.121C170.103 136.698 169.238 137.03 168.432 137.246C151.626 140.535 134.659 142.108 117.769 144.061C112.541 144.677 107.232 144.492 101.969 144.517C99.9554 144.533 97.867 144.436 96.0651 141.665C98.7299 140.364 101.298 141.621 103.751 141.277C106.203 140.932 108.423 140.913 110.758 140.645C113.387 140.337 116 139.857 118.628 139.511C120.949 139.224 123.299 139.053 125.634 138.747C127.969 138.441 130.765 138.8 133.399 137.289C132.043 136.2 130.422 135.818 128.862 136.22C124.454 136.467 120.044 136.503 115.728 137.302C109.299 138.462 102.853 137.677 96.4172 138.036C95.2829 138.242 94.1262 138.113 93.0331 137.659C91.9401 137.206 90.9387 136.44 90.1033 135.416C88.2398 132.302 90.2587 129.326 89.8212 126.219L86.3186 118.71C86.7014 117.008 87.0278 115.593 87.3962 113.93L82.2918 108.246C81.357 105.429 81.424 102.89 83.2747 99.153C84.1997 97.2368 87.6801 98.563 89.4216 95.8384C89.4181 95.4186 89.6789 94.9391 89.5595 94.7302C88.5588 92.8299 86.0948 93.5374 85.4663 90.4317C86.1108 86.6093 88.4444 84.3952 91.1664 82.903C93.608 81.6319 96.1138 80.5783 98.667 79.7491C112.798 74.803 127.207 71.4766 141.601 68.1125C153.691 65.2637 165.797 62.5614 177.919 60.005C192.594 56.9057 207.404 54.0342 222.138 50.9917C237.151 47.8323 252.276 45.7026 267.288 42.4669C286.365 38.3386 305.543 35.6789 324.67 32.3136C336.562 30.3062 348.421 27.9556 360.311 25.8146C365.815 24.8146 371.32 23.8147 376.841 22.9864C391.407 20.9567 405.977 19.2133 420.53 17.2983C429.561 16.0972 438.576 14.8007 447.607 13.5614C449.07 13.3258 450.54 13.1863 452.014 13.1432C459.036 12.9257 466.042 12.2304 473.005 11.0602C483.18 9.58236 493.452 8.98147 503.677 8.19033C527.655 6.46421 551.649 4.89109 575.672 3.27912C585.604 2.60492 595.57 2.44546 605.48 0.817175C611.91 -0.247795 617.091 2.20925 624.388 8.19869C624.768 8.77678 625.09 9.41554 625.345 10.0993C625.724 11.5085 625.957 12.9953 626.264 14.5196C625.617 16.2999 625.013 18.0037 624.482 19.4395C623.662 20.1335 622.784 20.7041 621.864 21.1406C617.596 22.3784 613.268 23.4261 609.001 24.7402C608.677 24.8137 608.368 24.9741 608.095 25.2114C607.822 25.4487 607.591 25.7575 607.415 26.1182C607.24 26.4789 607.124 26.8838 607.076 27.3064C607.028 27.7291 607.049 28.1603 607.137 28.5728C613.603 31.859 620.804 28.0203 627.472 30.7895C629.983 34.0323 629.778 37.6029 628.823 41.218C625.915 45.0592 622.086 46.0262 618.283 48.3862L627.343 50.6966C628.138 51.3984 628.747 52.4006 629.088 53.5659C629.429 54.7311 629.486 56.0031 629.25 57.2083C628.778 60.5522 628.07 63.8406 627.48 67.1282C626.022 68.6481 624.726 70.0521 623.356 71.4758C624.514 72.9564 625.907 74.0911 627.437 74.8005C628.967 75.5099 630.596 75.7765 632.21 75.5818C637.179 75.5405 642.162 75.4994 647.144 75.2098C652.148 75.2326 657.07 76.9125 661.444 80.0911C662.654 80.7361 663.718 81.7738 664.532 83.104C665.346 84.4341 665.884 86.0121 666.094 87.6867C666.128 91.7707 661.083 89.6367 662.223 94.2077C651.364 96.676 640.357 97.9234 629.324 97.9357C623.444 97.9846 617.564 98.0781 611.685 98.216C610.938 98.4633 610.22 98.8351 609.548 99.3218C619.69 100.917 629.33 98.699 638.835 99.727C639.92 100.458 640.968 101.278 641.972 102.182C645.065 105.176 648.887 106.61 652.723 106.215C655.942 106.074 659.158 105.666 662.375 105.429C664.511 104.961 666.706 105.564 668.52 107.114C670.233 109.791 670.288 112.979 669.173 116.767C660.805 123.478 651.122 124.112 641.663 125.03C640.99 127.231 642.268 127.086 642.856 127.081C648.134 127.132 653.411 126.994 658.674 127.045C661.879 127.019 665.123 126.534 668.193 127.921C668.693 128.327 669.109 128.886 669.405 129.549C669.7 130.212 669.865 130.959 669.886 131.724C669.705 136.318 668.849 140.82 667.364 144.99C663.246 148.269 659.068 146.165 655.546 148.638C658.513 151.896 663.405 147.962 665.696 153.02C665.763 154.033 665.535 155.039 665.057 155.841C664.579 156.644 663.887 157.184 663.116 157.354C661.112 157.865 659.088 158.232 657.053 158.454C655.083 158.435 653.13 158.912 651.302 159.858C651.226 160.493 651.338 161.143 651.615 161.679C651.892 162.214 652.313 162.595 652.796 162.745C653.631 163.094 654.483 163.369 655.346 163.565C656.215 163.787 657.098 163.874 657.953 164.077C658.807 164.28 659.604 164.693 659.776 165.97C659.458 166.507 659.201 167.426 658.805 167.525C655.96 168.393 653.079 169.054 650.177 169.505C642.834 170.425 635.594 171.325 628.277 171.825C611.321 173.015 594.334 173.9 577.364 175.015C556.303 176.398 535.244 177.846 514.185 179.357C512.716 179.464 511.247 179.648 509.778 179.756C490.472 181.112 471.166 182.463 451.86 183.806C441.34 184.524 430.803 185.069 420.285 185.977C411.235 186.727 402.197 187.674 393.17 188.818C381.789 190.267 370.401 190.916 358.963 190.877C356.621 190.907 354.284 191.156 351.971 191.622C340.654 193.625 329.248 193.929 317.861 194.692C313.777 194.828 309.702 195.25 305.655 195.957C296.402 197.621 287.088 198.68 277.749 199.129C271.872 199.597 266.088 200.466 260.256 201.087C245.083 202.683 229.909 204.164 214.722 205.817C208.597 206.498 202.49 207.446 196.382 208.375C177.485 211.28 158.589 214.128 139.723 217.205C119.977 220.423 100.231 223.659 80.5315 227.239C67.5117 229.657 54.5709 232.741 41.6143 235.693C34.7032 237.277 27.8546 239.262 20.9737 240.941C19.2393 241.23 17.4932 241.391 15.744 241.424C15.8933 239.934 15.9878 238.921 16.0822 237.89C15.6955 237.359 15.3651 236.522 14.9078 236.335C13.2414 235.719 11.5327 235.294 9.13071 234.608L14.6011 229.486C12.0329 226.492 8.2609 225.493 8.0945 221.391C7.31133 217.37 10.8358 216.883 10.4531 213.298C7.61486 211.413 3.33814 213.357 2.19857 210.675C-0.00671053 207.125 0.213308 205.31 0.914264 202.975ZM100.146 218.794C104.553 218.337 109.232 218.889 113.232 215.459C117.666 216.544 122.24 216.024 126.45 213.956C129.389 213.797 132.33 213.907 135.178 213.425C155.441 210.394 175.698 207.286 195.949 204.103C196.61 204.002 197.696 203.859 197.106 201.841C193.968 201.506 190.811 201.647 187.701 202.263C185.397 202.683 183.139 203.484 180.819 203.828C168.398 205.744 155.961 207.546 143.54 209.481C139.209 210.147 134.879 210.965 130.595 211.974C129.209 212.486 127.873 213.202 126.613 214.107C122.201 213.838 117.686 213.666 113.395 215.591C110.883 215.918 108.373 216.301 105.861 216.532C103.885 216.635 101.975 217.465 100.353 218.925C96.479 218.473 92.5771 218.978 88.8544 220.414C76.217 221.091 63.8985 224.725 51.6671 228.262C50.9046 228.497 50.7773 229.109 51.2235 229.735C51.4889 229.829 51.7851 230.074 52.0345 230.015C62.9966 227.652 73.9589 225.328 84.9051 222.813C86.2699 222.213 87.5603 221.361 88.7359 220.282C92.5828 220.934 96.4901 220.412 100.146 218.755L100.146 218.794ZM330.363 175.98C332.686 175.961 335.02 175.655 337.33 175.769C344.329 176.12 351.336 175.589 358.251 174.183C359.718 173.885 361.187 173.644 362.582 173.517C374.511 172.521 386.426 171.563 398.34 170.529C399.413 170.52 400.663 170.509 401.266 168.806C400.178 167.021 398.623 167.416 397.227 167.542C389.088 168.201 380.965 168.994 372.826 169.653L339.685 172.639C336.483 172.933 333.281 173.341 330.584 176.016C318.02 173.181 305.718 175.325 292.548 179.137C295.313 180.007 298.158 180.356 300.996 180.174C303.318 180.155 305.639 179.964 307.96 179.716C311.147 179.346 314.302 178.689 317.491 178.453C321.842 178.234 326.158 177.392 330.363 175.942L330.363 175.98ZM256.711 193.769C259.553 194.711 262.507 194.914 265.404 194.365C273.279 193.746 281.153 192.974 289.042 192.413C293.45 192.09 297.866 192.721 302.165 191.75C310.537 189.962 319.012 189.074 327.502 189.096C328.966 189.018 330.418 188.731 331.832 188.24C336.087 186.768 340.582 186.91 344.787 188.648C347.862 187.261 351.096 186.557 354.355 186.564C356.398 186.547 358.457 186.529 360.483 186.245C372.075 184.749 383.661 183.184 395.241 181.548C396.299 181.387 397.864 182.194 398.432 179.899C390.171 179.968 381.982 179.864 373.795 180.104C368.239 180.284 362.703 180.979 357.165 181.521C351.627 182.063 346.039 181.823 340.585 183.567C339.143 184.009 337.662 184.208 336.179 184.157C327.979 184.27 319.79 184.917 311.644 186.097C302.334 187.301 292.99 187.99 283.663 189.06C274.939 190.048 266.231 191.247 257.508 192.407C257.362 192.485 257.204 192.963 256.711 193.692L256.711 193.769ZM246.562 88.7304C246.852 88.2318 246.642 87.7945 245.789 87.7634C239.906 87.4497 233.844 86.8323 228.49 90.045C228.199 92.1086 228.852 92.8665 229.693 93.2412C231.657 93.7969 233.701 93.5872 235.568 92.6388C239.233 91.3487 242.809 90.002 246.561 88.654L246.562 88.7304ZM424.923 178.037C420.046 176.704 415.288 177.316 408.959 178.17C414.235 179.592 419.68 179.522 424.923 177.962L424.923 178.037ZM466.644 31.0763C467.093 31.516 467.621 31.8006 468.177 31.9028C468.734 32.005 469.301 31.9217 469.824 31.6608C471.085 31.2495 472.666 32.1716 473.591 30.2554C471.599 27.6191 471.599 27.5806 466.392 29.0744C466.471 29.6845 466.564 30.3517 466.702 30.9994L466.644 31.0763ZM583.878 100.986C586.905 102.077 590.102 102.05 593.11 100.909L583.878 100.986ZM413.888 166.315C416.555 167.056 419.095 168.352 421.664 166.25L413.888 166.315ZM33.6979 234.804C35.8828 234.137 38.0974 233.508 40.2235 232.842C40.634 232.705 40.9373 232.053 41.6799 231.188C40.2276 230.904 38.7453 231.077 37.3584 231.693C35.9716 232.309 34.7209 233.35 33.712 234.728L33.6979 234.804ZM443.403 163.952L443.406 164.295C444.127 164.385 444.878 164.55 445.584 164.563C446.262 164.548 446.939 164.485 447.611 164.375L447.607 163.917L443.403 163.952ZM259.946 85.9856C259.69 85.6298 259.375 85.3544 259.025 85.1806C258.674 85.0068 258.298 84.9388 257.926 84.9824C257.553 85.026 257.193 85.1798 256.874 85.4319C256.555 85.6841 256.284 86.0282 256.084 86.4375C256.676 86.9566 257.39 87.1884 258.099 87.0917C258.809 86.995 259.468 86.5761 259.961 85.909L259.946 85.9856ZM319.091 50.8727C319.408 50.1258 319.314 49.3824 318.68 49.1587C318.435 49.0661 318.177 49.0414 317.924 49.0862C317.671 49.131 317.429 49.2442 317.212 49.4188C317.07 49.6635 316.976 49.9496 316.938 50.2523C316.899 50.555 316.918 50.8656 316.992 51.1577C317.147 51.3208 317.326 51.4412 317.519 51.5116C317.711 51.582 317.912 51.601 318.11 51.5673C318.308 51.5335 318.498 51.4477 318.669 51.3152C318.84 51.1827 318.989 51.0059 319.105 50.7962L319.091 50.8727ZM167.042 122.219L164.738 122.695C165.543 124.006 166.365 123.904 167.056 122.142L167.042 122.219ZM167.912 198.553C167.402 198.308 166.88 198.107 166.349 197.955C165.494 197.771 165.145 198.175 165.459 198.86C165.564 199.069 166.02 199.103 166.299 199.062C166.849 198.891 167.393 198.683 167.926 198.438L167.912 198.553ZM625.487 126.309L625.486 126.138L622.547 126.334L625.487 126.309ZM183.405 196.573C182.649 195.72 181.567 194.679 180.818 196.594L183.405 196.573ZM482.146 136.338C481.911 136.34 481.645 136.189 481.455 136.344C480.987 136.653 481.166 136.842 481.929 136.74C482.031 136.568 482.088 136.338 482.16 136.223L482.146 136.338ZM152.202 201.031C151.683 200.482 151.18 200.104 150.734 201.177L152.202 201.031ZM133.956 128.219C133.954 128.009 133.833 127.628 133.73 127.61C133.447 127.564 133.16 127.567 132.877 127.617C132.953 127.826 133 128.208 133.103 128.245C133.376 128.232 133.646 128.186 133.911 128.105L133.956 128.219ZM248.276 61.5194C247.868 61.9426 247.194 62.2725 247.081 62.8079C246.968 63.3432 247.534 64.1593 248.223 63.9246C248.677 63.7681 249.334 63.2476 249.404 62.7699C249.499 61.8149 248.936 61.3611 248.231 61.4051L248.276 61.5194ZM360.594 43.9052C360.489 43.672 360.338 43.4789 360.158 43.3451C359.977 43.2112 359.773 43.1414 359.565 43.1431C359.358 43.1448 359.155 43.218 358.976 43.3549C358.798 43.4917 358.651 43.6873 358.55 43.9222C359.235 44.9281 359.925 44.884 360.548 43.791L360.594 43.9052ZM210.914 94.3516C211.106 94.4645 211.329 94.7106 211.475 94.6521C211.622 94.5936 211.663 94.1927 211.749 93.963C211.557 93.8501 211.334 93.6035 211.203 93.6619C211.071 93.7202 210.955 93.9885 210.869 94.2373L210.914 94.3516ZM148.813 125.729C148.63 125.024 148.262 124.931 147.693 125.432C147.827 125.622 147.962 125.965 148.109 125.982C148.345 125.916 148.568 125.791 148.768 125.614L148.813 125.729ZM116.639 130.099L116.069 130.524L116.82 130.671L116.639 130.099ZM194.771 193.272L194.024 193.583C194.173 193.792 194.308 194.154 194.47 194.172C194.724 194.125 194.972 194.026 195.202 193.879L194.771 193.272ZM25.3457 236.325C24.8208 235.089 24.0857 235.095 23.3123 235.788C23.1809 235.904 23.1276 236.572 23.2461 236.685C23.3938 236.868 23.5723 237.003 23.7673 237.08C23.9623 237.156 24.1684 237.171 24.3685 237.125C24.5686 237.079 24.7574 236.972 24.9194 236.813C25.0813 236.654 25.2119 236.448 25.3006 236.21L25.3457 236.325Z" fill="#FFD857"/>
</svg>
