<svg width="1440" height="802" viewBox="0 0 1440 802" fill="rgba(30,34,39,0.30)" xmlns="http://www.w3.org/2000/svg">
<mask id="mask0_467_838" style="mask-type:alpha" maskUnits="userSpaceOnUse" x="0" y="0" width="1438" height="802">
<rect width="1438" height="802" fill="rgba(30,34,39,0.30)"/>
</mask>
<g mask="url(#mask0_467_838)">
<g style="mix-blend-mode:multiply" opacity="0.3">
<path d="M976.883 486.438C975.127 489.508 970.7 489.508 968.944 486.438L910.826 384.851C909.082 381.802 911.283 378.007 914.795 378.007L1031.03 378.007C1034.54 378.007 1036.74 381.802 1035 384.851L976.883 486.438Z" fill="rgba(30,34,39,0.30)"/>
<path d="M976.563 782.614C976.14 787.037 969.687 787.037 969.264 782.614L965.989 748.378C965.71 745.464 962.298 744.036 960.027 745.882L933.224 767.673C929.77 770.481 925.239 765.865 928.109 762.464L950.09 736.419C952.002 734.154 950.576 730.676 947.625 730.404L913.545 727.263C909.105 726.854 909.105 720.371 913.545 719.962L947.625 716.822C950.576 716.55 952.002 713.071 950.09 710.806L928.109 684.762C925.239 681.36 929.77 676.745 933.224 679.553L960.027 701.343C962.298 703.19 965.71 701.761 965.989 698.848L969.264 664.611C969.687 660.189 976.14 660.189 976.563 664.611L979.838 698.848C980.117 701.761 983.529 703.19 985.8 701.343L1012.6 679.553C1016.06 676.745 1020.59 681.36 1017.72 684.762L995.736 710.806C993.825 713.071 995.251 716.55 998.202 716.822L1032.28 719.962C1036.72 720.371 1036.72 726.854 1032.28 727.263L998.202 730.404C995.251 730.676 993.825 734.154 995.736 736.419L1017.72 762.464C1020.59 765.865 1016.06 770.481 1012.6 767.673L985.8 745.882C983.529 744.036 980.117 745.464 979.838 748.378L976.563 782.614Z" fill="rgba(30,34,39,0.30)"/>
<path d="M978.592 640.204C975.078 642.233 970.749 642.233 967.235 640.204L915.894 610.562C912.38 608.534 910.215 604.784 910.215 600.727L910.215 541.443C910.215 537.386 912.38 533.637 915.894 531.608L967.235 501.966C970.749 499.938 975.078 499.938 978.592 501.966L1029.93 531.608C1033.45 533.637 1035.61 537.386 1035.61 541.443L1035.61 600.727C1035.61 604.785 1033.45 608.534 1029.93 610.562L978.592 640.204Z" fill="rgba(30,34,39,0.30)"/>
<path d="M1103.12 236.491C1104.87 233.422 1109.3 233.422 1111.06 236.491L1169.17 338.078C1170.92 341.127 1168.72 344.922 1165.2 344.922L1048.97 344.922C1045.46 344.922 1043.26 341.127 1045 338.078L1103.12 236.491Z" fill="rgba(30,34,39,0.30)"/>
<path d="M1103.44 -59.6829C1103.86 -64.1057 1110.31 -64.1057 1110.74 -59.6829L1114.01 -25.4464C1114.29 -22.5328 1117.7 -21.1044 1119.97 -22.9508L1146.78 -44.7417C1150.23 -47.5495 1154.76 -42.9338 1151.89 -39.5324L1129.91 -13.4879C1128 -11.2233 1129.42 -7.74448 1132.37 -7.47258L1166.45 -4.33228C1170.89 -3.92317 1170.89 2.56009 1166.45 2.96918L1132.37 6.10948C1129.42 6.38139 1128 9.86022 1129.91 12.1248L1151.89 38.1693C1154.76 41.5708 1150.23 46.1864 1146.78 43.3786L1119.97 21.5877C1117.7 19.7413 1114.29 21.1697 1114.01 24.0833L1110.74 58.3198C1110.31 62.7426 1103.86 62.7426 1103.44 58.3198L1100.16 24.0833C1099.88 21.1697 1096.47 19.7413 1094.2 21.5877L1067.4 43.3786C1063.94 46.1864 1059.41 41.5707 1062.28 38.1693L1084.26 12.1248C1086.17 9.86021 1084.75 6.38138 1081.8 6.10947L1047.72 2.96916C1043.28 2.56007 1043.28 -3.9232 1047.72 -4.3323L1081.8 -7.47259C1084.75 -7.7445 1086.17 -11.2233 1084.26 -13.4879L1062.28 -39.5325C1059.41 -42.9339 1063.94 -47.5495 1067.4 -44.7417L1094.2 -22.9508C1096.47 -21.1044 1099.88 -22.5328 1100.16 -25.4464L1103.44 -59.6829Z" fill="rgba(30,34,39,0.30)"/>
<path d="M1101.41 82.725C1104.92 80.6964 1109.25 80.6964 1112.76 82.725L1164.11 112.367C1167.62 114.396 1169.78 118.145 1169.78 122.202L1169.78 181.486C1169.78 185.543 1167.62 189.292 1164.11 191.321L1112.76 220.963C1109.25 222.992 1104.92 222.992 1101.41 220.963L1050.07 191.321C1046.55 189.292 1044.39 185.543 1044.39 181.486L1044.39 122.202C1044.39 118.145 1046.55 114.396 1050.07 112.367L1101.41 82.725Z" fill="rgba(30,34,39,0.30)"/>
<path d="M29.7288 236.491C31.4848 233.422 35.9111 233.422 37.6671 236.491L95.7855 338.078C97.5295 341.127 95.3285 344.922 91.8163 344.922L-24.4204 344.922C-27.9326 344.922 -30.1337 341.127 -28.3896 338.078L29.7288 236.491Z" fill="rgba(30,34,39,0.30)"/>
<path d="M30.0484 -59.6829C30.4715 -64.1057 36.9244 -64.1057 37.3475 -59.6829L40.6224 -25.4464C40.9011 -22.5328 44.3136 -21.1044 46.5847 -22.9508L73.3875 -44.7417C76.8411 -47.5495 81.3727 -42.9338 78.502 -39.5324L56.521 -13.4879C54.6097 -11.2233 56.0355 -7.74448 58.9863 -7.47258L93.0661 -4.33228C97.5058 -3.92317 97.5058 2.56009 93.0661 2.96918L58.9863 6.10948C56.0355 6.38139 54.6097 9.86022 56.521 12.1248L78.502 38.1693C81.3727 41.5708 76.841 46.1864 73.3875 43.3786L46.5847 21.5877C44.3136 19.7413 40.9011 21.1697 40.6224 24.0833L37.3475 58.3198C36.9244 62.7426 30.4715 62.7426 30.0484 58.3198L26.7735 24.0833C26.4948 21.1697 23.0823 19.7413 20.8112 21.5877L-5.99162 43.3786C-9.44517 46.1864 -13.9768 41.5707 -11.1061 38.1693L10.8749 12.1248C12.7862 9.86021 11.3604 6.38138 8.40956 6.10947L-25.6702 2.96916C-30.1099 2.56007 -30.1099 -3.9232 -25.6702 -4.3323L8.40957 -7.47259C11.3604 -7.7445 12.7862 -11.2233 10.8749 -13.4879L-11.1061 -39.5325C-13.9768 -42.9339 -9.44513 -47.5495 -5.99159 -44.7417L20.8112 -22.9508C23.0823 -21.1044 26.4948 -22.5328 26.7735 -25.4464L30.0484 -59.6829Z" fill="rgba(30,34,39,0.30)"/>
<path d="M28.0197 82.725C31.5334 80.6964 35.8625 80.6964 39.3762 82.725L90.7177 112.367C94.2314 114.396 96.3959 118.145 96.3959 122.202L96.3959 181.486C96.3959 185.543 94.2314 189.292 90.7177 191.321L39.3762 220.963C35.8625 222.992 31.5334 222.992 28.0197 220.963L-23.3218 191.321C-26.8355 189.292 -29 185.543 -29 181.486L-29 122.202C-29 118.145 -26.8355 114.396 -23.3218 112.367L28.0197 82.725Z" fill="rgba(30,34,39,0.30)"/>
<path d="M582.896 774.989C579.564 787.906 561.22 787.906 557.888 774.989L556.842 770.936C554.848 763.208 546.391 759.12 539.096 762.36L535.431 763.988C523.162 769.436 511.757 754.871 519.989 744.267L521.735 742.017C526.729 735.583 524.594 726.189 517.308 722.547L514.851 721.319C502.802 715.296 506.866 697.162 520.332 696.857L523.597 696.783C531.667 696.601 537.593 689.142 535.947 681.239L535.235 677.826C532.509 664.74 549.022 656.642 557.7 666.808L560.57 670.17C565.725 676.21 575.059 676.21 580.214 670.17L583.084 666.808C591.761 656.642 608.274 664.74 605.548 677.826L604.837 681.239C603.191 689.142 609.117 696.601 617.187 696.784L620.452 696.857C633.918 697.162 637.982 715.296 625.933 721.319L623.475 722.547C616.19 726.189 614.054 735.583 619.049 742.017L620.795 744.267C629.027 754.871 617.622 769.436 605.353 763.988L601.687 762.36C594.393 759.12 585.936 763.208 583.942 770.936L582.896 774.989Z" fill="rgba(30,34,39,0.30)"/>
<path d="M572.299 494.577C572.015 496.829 568.77 496.829 568.486 494.577L565.02 467.087C564.791 465.272 562.413 464.764 561.47 466.328L547.18 490.024C546.01 491.965 543.046 490.639 543.697 488.465L551.652 461.934C552.177 460.182 550.211 458.746 548.716 459.789L526.075 475.594C524.221 476.889 522.049 474.464 523.524 472.745L541.525 451.761C542.714 450.375 541.499 448.259 539.711 448.601L512.633 453.781C510.415 454.206 509.412 451.103 511.455 450.136L536.39 438.326C538.036 437.546 537.782 435.116 536.01 434.697L509.178 428.358C506.98 427.838 507.319 424.594 509.576 424.545L537.134 423.953C538.953 423.913 539.704 421.59 538.255 420.483L516.307 403.719C514.509 402.346 516.132 399.521 518.214 400.4L543.628 411.126C545.307 411.835 546.933 410.019 546.057 408.415L532.789 384.126C531.702 382.136 534.327 380.219 535.874 381.873L554.751 402.065C555.998 403.398 558.218 402.404 558.066 400.581L555.772 372.966C555.584 370.704 558.758 370.026 559.502 372.169L568.578 398.334C569.178 400.062 571.608 400.062 572.207 398.334L581.284 372.169C582.027 370.026 585.201 370.704 585.013 372.966L582.719 400.581C582.568 402.404 584.788 403.398 586.035 402.065L604.912 381.873C606.459 380.219 609.084 382.137 607.997 384.126L594.729 408.415C593.853 410.019 595.479 411.835 597.157 411.126L622.572 400.4C624.654 399.521 626.276 402.346 624.478 403.719L602.531 420.483C601.081 421.59 601.832 423.913 603.652 423.953L631.209 424.545C633.467 424.594 633.806 427.838 631.608 428.358L604.775 434.697C603.004 435.116 602.75 437.546 604.396 438.326L629.331 450.136C631.374 451.103 630.371 454.206 628.153 453.781L601.075 448.601C599.287 448.259 598.072 450.375 599.261 451.761L617.262 472.745C618.736 474.464 616.565 476.889 614.71 475.594L592.07 459.789C590.575 458.746 588.608 460.182 589.134 461.934L597.089 488.465C597.74 490.639 594.776 491.965 593.605 490.024L579.316 466.328C578.372 464.764 575.995 465.272 575.766 467.087L572.299 494.577Z" fill="rgba(30,34,39,0.30)"/>
<path d="M515.012 625.93C524.768 635.686 540.585 635.686 550.341 625.93L569.916 606.356L590.445 626.885C600.2 636.641 616.018 636.641 625.774 626.885C635.53 617.129 635.53 601.311 625.774 591.556L605.245 571.027L625.774 550.497C635.53 540.742 635.53 524.924 625.774 515.168C616.018 505.412 600.201 505.412 590.445 515.168L569.916 535.697L550.341 516.123C540.585 506.367 524.768 506.367 515.012 516.123C505.256 525.879 505.256 541.696 515.012 551.452L534.586 571.027L515.012 590.601C505.256 600.357 505.256 616.174 515.012 625.93Z" fill="rgba(30,34,39,0.30)"/>
<path d="M423.714 -52.0561C427.047 -64.973 445.39 -64.9731 448.723 -52.0561L449.768 -48.0033C451.762 -40.2749 460.219 -36.1876 467.514 -39.4271L471.18 -41.0551C483.449 -46.5037 494.854 -31.9382 486.622 -21.3341L484.875 -19.0843C479.881 -12.6506 482.017 -3.25638 489.302 0.38537L491.76 1.614C503.808 7.63669 499.744 25.7704 486.278 26.0752L483.014 26.1491C474.944 26.3318 469.017 33.7908 470.664 41.6933L471.375 45.107C474.101 58.1923 457.588 66.291 448.91 56.1245L446.041 52.7623C440.885 46.7223 431.552 46.7223 426.396 52.7623L423.526 56.1244C414.849 66.2909 398.336 58.1923 401.062 45.107L401.773 41.6933C403.42 33.7908 397.493 26.3318 389.423 26.1491L386.159 26.0752C372.693 25.7704 368.629 7.63669 380.677 1.61399L383.135 0.385351C390.42 -3.2564 392.556 -12.6506 387.562 -19.0843L385.815 -21.3341C377.583 -31.9382 388.988 -46.5037 401.257 -41.0551L404.923 -39.4271C412.218 -36.1876 420.675 -40.2749 422.669 -48.0033L423.714 -52.0561Z" fill="rgba(30,34,39,0.30)"/>
<path d="M434.312 228.357C434.596 226.105 437.841 226.105 438.125 228.357L441.592 255.847C441.821 257.662 444.198 258.17 445.142 256.606L459.431 232.91C460.601 230.969 463.566 232.295 462.914 234.469L454.959 261C454.434 262.752 456.4 264.188 457.895 263.145L480.536 247.34C482.391 246.045 484.562 248.47 483.087 250.189L465.086 271.173C463.898 272.559 465.113 274.675 466.901 274.333L493.978 269.153C496.197 268.729 497.199 271.831 495.157 272.799L470.222 284.608C468.575 285.388 468.829 287.818 470.601 288.237L497.433 294.576C499.632 295.096 499.292 298.34 497.035 298.389L469.478 298.981C467.658 299.021 466.907 301.344 468.356 302.451L490.304 319.215C492.102 320.588 490.479 323.413 488.397 322.535L462.983 311.808C461.305 311.099 459.678 312.915 460.554 314.519L473.823 338.808C474.909 340.798 472.284 342.715 470.738 341.061L451.86 320.869C450.614 319.536 448.393 320.53 448.545 322.353L450.839 349.968C451.027 352.23 447.853 352.908 447.109 350.765L438.033 324.6C437.434 322.872 435.003 322.872 434.404 324.6L425.327 350.765C424.584 352.908 421.41 352.23 421.598 349.968L423.892 322.353C424.044 320.53 421.823 319.536 420.577 320.869L401.699 341.061C400.153 342.715 397.527 340.798 398.614 338.808L411.882 314.519C412.759 312.915 411.132 311.099 409.454 311.808L384.039 322.535C381.958 323.413 380.335 320.588 382.133 319.215L404.081 302.451C405.53 301.344 404.779 299.021 402.959 298.981L375.402 298.389C373.145 298.34 372.805 295.096 375.003 294.576L401.836 288.237C403.608 287.818 403.862 285.388 402.215 284.608L377.28 272.799C375.238 271.831 376.24 268.729 378.459 269.153L405.536 274.333C407.324 274.675 408.539 272.559 407.351 271.173L389.349 250.189C387.875 248.47 390.046 246.045 391.901 247.34L414.542 263.145C416.037 264.188 418.003 262.752 417.478 261L409.523 234.469C408.871 232.295 411.836 230.969 413.006 232.91L427.295 256.606C428.239 258.17 430.616 257.662 430.845 255.847L434.312 228.357Z" fill="rgba(30,34,39,0.30)"/>
<path d="M491.599 97.0038C481.844 87.2479 466.026 87.2479 456.27 97.0038L436.696 116.578L416.167 96.0492C406.411 86.2933 390.593 86.2933 380.837 96.0492C371.082 105.805 371.082 121.623 380.837 131.378L401.366 151.908L380.837 172.437C371.082 182.192 371.082 198.01 380.837 207.766C390.593 217.522 406.411 217.522 416.167 207.766L436.696 187.237L456.27 206.811C466.026 216.567 481.844 216.567 491.599 206.811C501.355 197.055 501.355 181.238 491.599 171.482L472.025 151.908L491.599 132.333C501.355 122.577 501.355 106.76 491.599 97.0038Z" fill="rgba(30,34,39,0.30)"/>
<path fill-rule="evenodd" clip-rule="evenodd" d="M972.913 -63C978.107 -63 982.317 -58.7894 982.317 -53.5953V-22.8248L1005.45 -45.9563C1009.12 -49.6291 1015.08 -49.6291 1018.75 -45.9563C1022.42 -42.2836 1022.42 -36.3288 1018.75 -32.6561L995.8 -9.70716H1026.21C1031.4 -9.70716 1035.61 -5.49654 1035.61 -0.302475C1035.61 4.89159 1031.4 9.10221 1026.21 9.10221H995.435L1018.38 32.0469C1022.05 35.7196 1022.05 41.6744 1018.38 45.3471C1014.71 49.0199 1008.75 49.0199 1005.08 45.3471L982.317 22.585V52.9912C982.317 58.1853 978.107 62.3959 972.913 62.3959C967.719 62.3959 963.508 58.1853 963.508 52.9912V22.5851L940.746 45.3471C937.073 49.0199 931.118 49.0199 927.446 45.3471C923.773 41.6744 923.773 35.7196 927.446 32.0469L950.39 9.10222H919.62C914.425 9.10222 910.215 4.89159 910.215 -0.302475C910.215 -5.49654 914.425 -9.70716 919.62 -9.70716H950.025L927.076 -32.6561C923.403 -36.3288 923.403 -42.2836 927.076 -45.9563C930.749 -49.6291 936.704 -49.6291 940.376 -45.9563L963.508 -22.8249V-53.5953C963.508 -58.7894 967.719 -63 972.913 -63Z" fill="rgba(30,34,39,0.30)"/>
<path d="M967.925 94.0843C968.996 88.6152 976.829 88.6152 977.901 94.0843C978.801 98.6762 984.951 99.6463 987.315 95.6071C990.117 90.8215 997.546 93.2686 996.749 98.7546C996.078 103.37 1001.59 106.265 1005.13 103.226C1009.32 99.6349 1015.58 104.293 1013.03 109.18C1010.88 113.302 1015.13 117.825 1019.45 116.092C1024.55 114.046 1028.94 120.459 1024.95 124.231C1021.58 127.419 1024.09 133.071 1028.72 132.804C1034.21 132.49 1036.2 139.976 1031.21 142.261C1026.99 144.191 1027.49 150.336 1031.97 151.558C1037.27 153.005 1036.6 160.719 1031.13 161.292C1026.52 161.776 1025 167.757 1028.84 170.348C1033.4 173.414 1030.16 180.461 1024.8 179.267C1020.26 178.256 1016.83 183.418 1019.63 187.12C1022.95 191.506 1017.55 197.113 1012.84 194.261C1008.85 191.846 1003.9 195.606 1005.33 200.036C1007.03 205.295 1000.09 208.889 996.549 204.647C993.551 201.06 987.636 203.016 987.521 207.687C987.385 213.244 979.656 214.489 977.687 209.289C976.028 204.908 969.798 204.908 968.139 209.289C966.17 214.489 958.441 213.244 958.304 207.687C958.19 203.016 952.275 201.06 949.277 204.647C945.731 208.889 938.794 205.295 940.496 200.036C941.93 195.606 936.971 191.846 932.986 194.261C928.281 197.113 922.879 191.506 926.198 187.12C929 183.418 925.566 178.256 921.03 179.267C915.671 180.461 912.428 173.414 916.981 170.348C920.83 167.757 919.31 161.776 914.694 161.292C909.225 160.719 908.551 153.005 913.855 151.558C918.333 150.336 918.838 144.191 914.618 142.261C909.624 139.976 911.618 132.49 917.102 132.804C921.737 133.071 924.249 127.419 920.877 124.231C916.885 120.459 921.274 114.046 926.373 116.092C930.691 117.825 934.949 113.302 932.799 109.18C930.248 104.293 936.506 99.6349 940.691 103.226C944.233 106.265 949.748 103.37 949.077 98.7546C948.279 93.2686 955.709 90.8215 958.51 95.6071C960.875 99.6463 967.025 98.6762 967.925 94.0843Z" fill="rgba(30,34,39,0.30)"/>
<circle cx="972.913" cy="289.363" r="62.698" fill="rgba(30,34,39,0.30)"/>
<path fill-rule="evenodd" clip-rule="evenodd" d="M1107.09 370.869C1112.28 370.869 1116.49 375.08 1116.49 380.274V411.044L1139.62 387.913C1143.3 384.24 1149.25 384.24 1152.92 387.913C1156.6 391.586 1156.6 397.54 1152.92 401.213L1129.97 424.162H1160.38C1165.57 424.162 1169.78 428.373 1169.78 433.567C1169.78 438.761 1165.57 442.971 1160.38 442.971H1129.61L1152.55 465.916C1156.23 469.589 1156.23 475.544 1152.55 479.216C1148.88 482.889 1142.93 482.889 1139.25 479.216L1116.49 456.454V486.86C1116.49 492.055 1112.28 496.265 1107.09 496.265C1101.89 496.265 1097.68 492.055 1097.68 486.86V456.454L1074.92 479.216C1071.25 482.889 1065.29 482.889 1061.62 479.216C1057.95 475.544 1057.95 469.589 1061.62 465.916L1084.56 442.971H1053.79C1048.6 442.971 1044.39 438.761 1044.39 433.567C1044.39 428.373 1048.6 424.162 1053.79 424.162H1084.2L1061.25 401.213C1057.58 397.54 1057.58 391.586 1061.25 387.913C1064.92 384.24 1070.88 384.24 1074.55 387.913L1097.68 411.045V380.274C1097.68 375.08 1101.89 370.869 1107.09 370.869Z" fill="rgba(30,34,39,0.30)"/>
<path d="M1102.1 527.954C1103.17 522.484 1111 522.484 1112.07 527.954C1112.97 532.545 1119.12 533.516 1121.49 529.476C1124.29 524.691 1131.72 527.138 1130.92 532.624C1130.25 537.24 1135.77 540.135 1139.31 537.095C1143.49 533.504 1149.75 538.162 1147.2 543.049C1145.05 547.171 1149.31 551.695 1153.63 549.962C1158.73 547.915 1163.11 554.328 1159.12 558.101C1155.75 561.288 1158.26 566.94 1162.9 566.674C1168.38 566.359 1170.38 573.845 1165.38 576.13C1161.16 578.06 1161.67 584.205 1166.14 585.427C1171.45 586.875 1170.77 594.588 1165.31 595.162C1160.69 595.645 1159.17 601.626 1163.02 604.217C1167.57 607.283 1164.33 614.331 1158.97 613.136C1154.43 612.125 1151 617.287 1153.8 620.99C1157.12 625.375 1151.72 630.983 1147.01 628.13C1143.03 625.715 1138.07 629.475 1139.5 633.905C1141.21 639.164 1134.27 642.759 1130.72 638.516C1127.72 634.929 1121.81 636.885 1121.69 641.556C1121.56 647.114 1113.83 648.358 1111.86 643.158C1110.2 638.777 1103.97 638.777 1102.31 643.158C1100.34 648.358 1092.61 647.114 1092.48 641.556C1092.36 636.885 1086.45 634.929 1083.45 638.516C1079.9 642.759 1072.97 639.164 1074.67 633.905C1076.1 629.475 1071.15 625.715 1067.16 628.13C1062.45 630.983 1057.05 625.375 1060.37 620.99C1063.17 617.287 1059.74 612.125 1055.2 613.136C1049.84 614.331 1046.6 607.283 1051.16 604.217C1055 601.626 1053.48 595.645 1048.87 595.162C1043.4 594.588 1042.72 586.875 1048.03 585.427C1052.51 584.205 1053.01 578.06 1048.79 576.13C1043.8 573.845 1045.79 566.359 1051.28 566.674C1055.91 566.94 1058.42 561.288 1055.05 558.101C1051.06 554.328 1055.45 547.915 1060.55 549.962C1064.86 551.695 1069.12 547.171 1066.97 543.049C1064.42 538.162 1070.68 533.504 1074.86 537.095C1078.41 540.135 1083.92 537.24 1083.25 532.624C1082.45 527.138 1089.88 524.691 1092.68 529.476C1095.05 533.516 1101.2 532.545 1102.1 527.954Z" fill="rgba(30,34,39,0.30)"/>
<circle cx="1107.09" cy="723.232" r="62.698" fill="rgba(30,34,39,0.30)"/>
<path fill-rule="evenodd" clip-rule="evenodd" d="M33.6976 785.93C28.5036 785.93 24.2929 781.719 24.2929 776.525L24.2929 745.755L1.16149 768.886C-2.51128 772.559 -8.466 772.559 -12.1388 768.886C-15.8115 765.213 -15.8115 759.259 -12.1388 755.586L10.8102 732.637L-19.5957 732.637C-24.7898 732.637 -29.0004 728.426 -29.0004 723.232C-29.0004 718.038 -24.7898 713.828 -19.5957 713.828L11.1751 713.828L-11.7695 690.883C-15.4423 687.21 -15.4423 681.255 -11.7695 677.583C-8.09675 673.91 -2.14203 673.91 1.53074 677.583L24.2929 700.345L24.2929 669.939C24.2929 664.744 28.5036 660.534 33.6976 660.534C38.8917 660.534 43.1023 664.744 43.1023 669.939L43.1023 700.345L65.8644 677.583C69.5372 673.91 75.4919 673.91 79.1647 677.583C82.8374 681.255 82.8374 687.21 79.1647 690.883L56.22 713.828L86.9908 713.828C92.1849 713.828 96.3955 718.038 96.3955 723.232C96.3955 728.426 92.1849 732.637 86.9908 732.637L56.585 732.637L79.5339 755.586C83.2067 759.259 83.2067 765.213 79.5339 768.886C75.8612 772.559 69.9064 772.559 66.2337 768.886L43.1023 745.755L43.1023 776.525C43.1023 781.719 38.8917 785.93 33.6976 785.93Z" fill="rgba(30,34,39,0.30)"/>
<path d="M38.6858 628.846C37.6142 634.315 29.7809 634.315 28.7093 628.846C27.8095 624.254 21.6597 623.283 19.2952 627.323C16.4938 632.108 9.06395 629.661 9.86165 624.175C10.5328 619.559 5.01769 616.664 1.47555 619.704C-2.70971 623.295 -8.96685 618.637 -6.41672 613.75C-4.26592 609.628 -8.52421 605.104 -12.8422 606.837C-17.9413 608.884 -22.3303 602.471 -18.3385 598.698C-14.9659 595.511 -17.4783 589.859 -22.1135 590.125C-27.5969 590.44 -29.5912 582.954 -24.5976 580.669C-20.3773 578.739 -20.8823 572.594 -25.3601 571.372C-30.6645 569.924 -29.9898 562.211 -24.521 561.638C-19.9053 561.154 -18.3855 555.173 -22.2339 552.582C-26.7874 549.516 -23.5447 542.468 -18.1852 543.663C-13.6496 544.674 -10.2149 539.512 -13.0172 535.81C-16.3367 531.424 -10.9347 525.817 -6.22884 528.669C-2.2438 531.084 2.7145 527.324 1.28064 522.894C-0.421445 517.635 6.5155 514.04 10.0616 518.283C13.0594 521.87 18.9744 519.914 19.0892 515.243C19.2258 509.685 26.9548 508.441 28.9237 513.641C30.5825 518.022 36.8127 518.022 38.4714 513.641C40.4403 508.441 48.1693 509.685 48.3059 515.243C48.4208 519.914 54.3357 521.87 57.3335 518.283C60.8796 514.04 67.8166 517.635 66.1145 522.894C64.6806 527.324 69.6389 531.084 73.624 528.669C78.3298 525.817 83.7318 531.424 80.4124 535.81C77.61 539.512 81.0447 544.674 85.5803 543.663C90.9398 542.468 94.1825 549.516 89.629 552.582C85.7806 555.173 87.3005 561.154 91.9161 561.638C97.385 562.211 98.0596 569.924 92.7552 571.372C88.2774 572.594 87.7724 578.739 91.9927 580.669C96.9863 582.954 94.992 590.44 89.5086 590.125C84.8734 589.859 82.361 595.511 85.7336 598.698C89.7254 602.471 85.3365 608.884 80.2373 606.837C75.9193 605.104 71.661 609.628 73.8118 613.75C76.362 618.637 70.1048 623.295 65.9196 619.704C62.3774 616.664 56.8623 619.559 57.5335 624.175C58.3312 629.661 50.9013 632.108 48.0999 627.323C45.7354 623.283 39.5856 624.254 38.6858 628.846Z" fill="rgba(30,34,39,0.30)"/>
<circle cx="33.6976" cy="433.567" r="62.698" transform="rotate(-180 33.6976 433.567)" fill="rgba(30,34,39,0.30)"/>
<path fill-rule="evenodd" clip-rule="evenodd" d="M704.566 370.869C709.76 370.869 713.971 375.08 713.971 380.274V411.044L737.102 387.913C740.775 384.24 746.73 384.24 750.402 387.913C754.075 391.586 754.075 397.54 750.402 401.213L727.454 424.162H757.859C763.053 424.162 767.264 428.373 767.264 433.567C767.264 438.761 763.053 442.971 757.859 442.971H727.089L750.033 465.916C753.706 469.589 753.706 475.544 750.033 479.216C746.36 482.889 740.406 482.889 736.733 479.216L713.971 456.454V486.86C713.971 492.055 709.76 496.265 704.566 496.265C699.372 496.265 695.161 492.055 695.161 486.86V456.454L672.399 479.216C668.726 482.889 662.772 482.889 659.099 479.216C655.426 475.544 655.426 469.589 659.099 465.916L682.044 442.971H651.273C646.079 442.971 641.868 438.761 641.868 433.567C641.868 428.373 646.079 424.162 651.273 424.162H681.679L658.73 401.213C655.057 397.54 655.057 391.586 658.73 387.913C662.403 384.24 668.357 384.24 672.03 387.913L695.161 411.044V380.274C695.161 375.08 699.372 370.869 704.566 370.869Z" fill="rgba(30,34,39,0.30)"/>
<path d="M699.578 527.954C700.649 522.484 708.483 522.484 709.554 527.954C710.454 532.545 716.604 533.516 718.968 529.476C721.77 524.691 729.2 527.138 728.402 532.624C727.731 537.24 733.246 540.135 736.788 537.095C740.973 533.504 747.231 538.162 744.68 543.049C742.53 547.171 746.788 551.695 751.106 549.962C756.205 547.915 760.594 554.328 756.602 558.101C753.23 561.288 755.742 566.94 760.377 566.674C765.861 566.359 767.855 573.845 762.861 576.13C758.641 578.06 759.146 584.205 763.624 585.427C768.928 586.875 768.254 594.588 762.785 595.162C758.169 595.645 756.649 601.626 760.498 604.217C765.051 607.283 761.808 614.331 756.449 613.136C751.913 612.125 748.479 617.287 751.281 620.99C754.6 625.375 749.198 630.983 744.493 628.13C740.507 625.715 735.549 629.475 736.983 633.905C738.685 639.164 731.748 642.759 728.202 638.516C725.204 634.929 719.289 636.885 719.174 641.556C719.038 647.114 711.309 648.358 709.34 643.158C707.681 638.777 701.451 638.777 699.792 643.158C697.823 648.358 690.094 647.114 689.958 641.556C689.843 636.885 683.928 634.929 680.93 638.516C677.384 642.759 670.447 639.164 672.149 633.905C673.583 629.475 668.625 625.715 664.64 628.13C659.934 630.983 654.532 625.375 657.851 620.99C660.654 617.287 657.219 612.125 652.683 613.136C647.324 614.331 644.081 607.283 648.635 604.217C652.483 601.626 650.963 595.645 646.348 595.162C640.879 594.588 640.204 586.875 645.508 585.427C649.986 584.205 650.491 578.06 646.271 576.13C641.277 573.845 643.272 566.359 648.755 566.674C653.39 566.94 655.903 561.288 652.53 558.101C648.538 554.328 652.927 547.915 658.026 549.962C662.344 551.695 666.603 547.171 664.452 543.049C661.902 538.162 668.159 533.504 672.344 537.095C675.886 540.135 681.401 537.24 680.73 532.624C679.933 527.138 687.362 524.691 690.164 529.476C692.528 533.516 698.678 532.545 699.578 527.954Z" fill="rgba(30,34,39,0.30)"/>
<circle cx="704.566" cy="723.232" r="62.698" fill="rgba(30,34,39,0.30)"/>
<path fill-rule="evenodd" clip-rule="evenodd" d="M1375.44 352.063C1370.24 352.063 1366.03 347.853 1366.03 342.659L1366.03 311.888L1342.9 335.02C1339.23 338.692 1333.27 338.692 1329.6 335.02C1325.93 331.347 1325.93 325.392 1329.6 321.719L1352.55 298.77L1322.14 298.77C1316.95 298.77 1312.74 294.56 1312.74 289.366C1312.74 284.172 1316.95 279.961 1322.14 279.961L1352.91 279.961L1329.97 257.016C1326.3 253.344 1326.3 247.389 1329.97 243.716C1333.64 240.043 1339.6 240.043 1343.27 243.716L1366.03 266.478L1366.03 236.072C1366.03 230.878 1370.24 226.667 1375.44 226.667C1380.63 226.667 1384.84 230.878 1384.84 236.072L1384.84 266.478L1407.6 243.716C1411.27 240.043 1417.23 240.043 1420.9 243.716C1424.57 247.389 1424.57 253.344 1420.9 257.016L1397.96 279.961L1428.73 279.961C1433.92 279.961 1438.13 284.172 1438.13 289.366C1438.13 294.56 1433.92 298.77 1428.73 298.77L1398.32 298.77L1421.27 321.719C1424.94 325.392 1424.94 331.347 1421.27 335.02C1417.6 338.692 1411.64 338.692 1407.97 335.02L1384.84 311.888L1384.84 342.659C1384.84 347.853 1380.63 352.063 1375.44 352.063Z" fill="rgba(30,34,39,0.30)"/>
<path d="M1380.42 194.979C1379.35 200.448 1371.52 200.448 1370.45 194.979C1369.55 190.387 1363.4 189.417 1361.03 193.456C1358.23 198.242 1350.8 195.795 1351.6 190.309C1352.27 185.693 1346.75 182.798 1343.21 185.837C1339.03 189.428 1332.77 184.771 1335.32 179.884C1337.47 175.762 1333.21 171.238 1328.9 172.971C1323.8 175.017 1319.41 168.604 1323.4 164.832C1326.77 161.645 1324.26 155.993 1319.62 156.259C1314.14 156.574 1312.15 149.087 1317.14 146.803C1321.36 144.872 1320.85 138.728 1316.38 137.506C1311.07 136.058 1311.75 128.344 1317.22 127.771C1321.83 127.287 1323.35 121.306 1319.5 118.715C1314.95 115.649 1318.19 108.602 1323.55 109.796C1328.09 110.807 1331.52 105.646 1328.72 101.943C1325.4 97.5571 1330.8 91.95 1335.51 94.8022C1339.49 97.2176 1344.45 93.4573 1343.02 89.0272C1341.32 83.7683 1348.25 80.1739 1351.8 84.4166C1354.8 88.0032 1360.71 86.0476 1360.83 81.3768C1360.96 75.8189 1368.69 74.5746 1370.66 79.7747C1372.32 84.1558 1378.55 84.1558 1380.21 79.7747C1382.18 74.5746 1389.91 75.8189 1390.04 81.3768C1390.16 86.0476 1396.07 88.0032 1399.07 84.4166C1402.62 80.1739 1409.55 83.7683 1407.85 89.0272C1406.42 93.4573 1411.38 97.2176 1415.36 94.8022C1420.07 91.95 1425.47 97.5572 1422.15 101.943C1419.35 105.646 1422.78 110.807 1427.32 109.796C1432.68 108.602 1435.92 115.649 1431.37 118.715C1427.52 121.306 1429.04 127.287 1433.65 127.771C1439.12 128.344 1439.8 136.058 1434.49 137.506C1430.01 138.728 1429.51 144.872 1433.73 146.803C1438.72 149.087 1436.73 156.574 1431.25 156.259C1426.61 155.993 1424.1 161.645 1427.47 164.832C1431.46 168.604 1427.07 175.017 1421.97 172.971C1417.66 171.238 1413.4 175.762 1415.55 179.884C1418.1 184.771 1411.84 189.428 1407.66 185.837C1404.11 182.798 1398.6 185.693 1399.27 190.309C1400.07 195.795 1392.64 198.242 1389.84 193.456C1387.47 189.417 1381.32 190.387 1380.42 194.979Z" fill="rgba(30,34,39,0.30)"/>
<circle cx="1375.43" cy="-0.299371" r="62.698" transform="rotate(-180 1375.43 -0.299371)" fill="rgba(30,34,39,0.30)"/>
<path fill-rule="evenodd" clip-rule="evenodd" d="M302.045 352.063C296.851 352.063 292.641 347.853 292.641 342.659L292.641 311.888L269.509 335.02C265.836 338.692 259.882 338.692 256.209 335.02C252.536 331.347 252.536 325.392 256.209 321.719L279.158 298.77L248.752 298.77C243.558 298.77 239.347 294.56 239.347 289.366C239.347 284.172 243.558 279.961 248.752 279.961L279.523 279.961L256.578 257.016C252.905 253.344 252.905 247.389 256.578 243.716C260.251 240.043 266.206 240.043 269.878 243.716L292.641 266.478L292.641 236.072C292.641 230.878 296.851 226.667 302.045 226.667C307.239 226.667 311.45 230.878 311.45 236.072L311.45 266.478L334.212 243.716C337.885 240.043 343.84 240.043 347.512 243.716C351.185 247.389 351.185 253.344 347.512 257.016L324.568 279.961L355.338 279.961C360.533 279.961 364.743 284.172 364.743 289.366C364.743 294.56 360.533 298.77 355.338 298.77L324.933 298.77L347.881 321.719C351.554 325.392 351.554 331.347 347.881 335.02C344.209 338.692 338.254 338.692 334.581 335.02L311.45 311.888L311.45 342.659C311.45 347.853 307.239 352.063 302.045 352.063Z" fill="rgba(30,34,39,0.30)"/>
<path d="M307.034 194.979C305.962 200.448 298.129 200.448 297.057 194.979C296.157 190.387 290.007 189.417 287.643 193.456C284.841 198.242 277.412 195.795 278.209 190.309C278.88 185.693 273.365 182.798 269.823 185.837C265.638 189.428 259.381 184.771 261.931 179.884C264.082 175.762 259.823 171.238 255.505 172.971C250.406 175.017 246.017 168.604 250.009 164.832C253.382 161.645 250.869 155.993 246.234 156.259C240.751 156.574 238.756 149.087 243.75 146.803C247.97 144.872 247.465 138.728 242.988 137.506C237.683 136.058 238.358 128.344 243.827 127.771C248.442 127.287 249.962 121.306 246.114 118.715C241.56 115.649 244.803 108.602 250.162 109.796C254.698 110.807 258.133 105.646 255.33 101.943C252.011 97.5571 257.413 91.95 262.119 94.8022C266.104 97.2176 271.062 93.4573 269.628 89.0272C267.926 83.7683 274.863 80.1739 278.409 84.4166C281.407 88.0032 287.322 86.0476 287.437 81.3768C287.573 75.8189 295.302 74.5746 297.271 79.7747C298.93 84.1558 305.16 84.1558 306.819 79.7747C308.788 74.5746 316.517 75.8189 316.654 81.3768C316.768 86.0476 322.683 88.0032 325.681 84.4166C329.227 80.1739 336.164 83.7683 334.462 89.0272C333.028 93.4573 337.987 97.2176 341.972 94.8022C346.677 91.95 352.079 97.5572 348.76 101.943C345.958 105.646 349.392 110.807 353.928 109.796C359.288 108.602 362.53 115.649 357.977 118.715C354.128 121.306 355.648 127.287 360.264 127.771C365.733 128.344 366.407 136.058 361.103 137.506C356.625 138.728 356.12 144.872 360.34 146.803C365.334 149.087 363.34 156.574 357.856 156.259C353.221 155.993 350.709 161.645 354.081 164.832C358.073 168.604 353.684 175.017 348.585 172.971C344.267 171.238 340.009 175.762 342.159 179.884C344.71 184.771 338.452 189.428 334.267 185.837C330.725 182.798 325.21 185.693 325.881 190.309C326.679 195.795 319.249 198.242 316.448 193.456C314.083 189.417 307.933 190.387 307.034 194.979Z" fill="rgba(30,34,39,0.30)"/>
<circle cx="302.045" cy="-0.299371" r="62.698" transform="rotate(-180 302.045 -0.299371)" fill="rgba(30,34,39,0.30)"/>
<path d="M700.597 236.491C702.353 233.422 706.779 233.422 708.535 236.491L766.654 338.078C768.398 341.127 766.197 344.922 762.685 344.922H646.448C642.936 344.922 640.735 341.127 642.479 338.078L700.597 236.491Z" fill="rgba(30,34,39,0.30)"/>
<path d="M700.917 -59.6829C701.34 -64.1057 707.793 -64.1057 708.216 -59.6829L711.491 -25.4464C711.769 -22.5328 715.182 -21.1045 717.453 -22.9509L744.256 -44.7417C747.709 -47.5495 752.241 -42.9339 749.37 -39.5325L727.389 -13.4879C725.478 -11.2233 726.904 -7.7445 729.854 -7.4726L763.934 -4.3323C768.374 -3.92319 768.374 2.56007 763.934 2.96916L729.854 6.10947C726.904 6.38137 725.478 9.86021 727.389 12.1248L749.37 38.1693C752.241 41.5707 747.709 46.1864 744.256 43.3786L717.453 21.5877C715.182 19.7413 711.769 21.1697 711.491 24.0833L708.216 58.3198C707.793 62.7426 701.34 62.7426 700.917 58.3198L697.642 24.0833C697.363 21.1697 693.95 19.7413 691.679 21.5877L664.877 43.3786C661.423 46.1864 656.891 41.5707 659.762 38.1693L681.743 12.1248C683.654 9.8602 682.229 6.38137 679.278 6.10947L645.198 2.96916C640.758 2.56007 640.758 -3.92319 645.198 -4.3323L679.278 -7.4726C682.229 -7.74451 683.654 -11.2233 681.743 -13.4879L659.762 -39.5325C656.891 -42.9339 661.423 -47.5495 664.877 -44.7417L691.679 -22.9509C693.95 -21.1045 697.363 -22.5328 697.642 -25.4464L700.917 -59.6829Z" fill="rgba(30,34,39,0.30)"/>
<path d="M698.888 82.725C702.402 80.6964 706.731 80.6964 710.244 82.725L761.586 112.367C765.1 114.396 767.264 118.145 767.264 122.202V181.486C767.264 185.543 765.1 189.292 761.586 191.321L710.244 220.963C706.731 222.992 702.402 222.992 698.888 220.963L647.546 191.321C644.033 189.292 641.868 185.543 641.868 181.486V122.202C641.868 118.145 644.033 114.396 647.546 112.367L698.888 82.725Z" fill="rgba(30,34,39,0.30)"/>
<path d="M1379.4 486.438C1377.65 489.508 1373.22 489.508 1371.47 486.438L1313.35 384.851C1311.6 381.802 1313.8 378.007 1317.32 378.007L1433.55 378.007C1437.07 378.007 1439.27 381.802 1437.52 384.851L1379.4 486.438Z" fill="rgba(30,34,39,0.30)"/>
<path d="M1379.08 782.614C1378.66 787.037 1372.21 787.037 1371.79 782.614L1368.51 748.378C1368.23 745.464 1364.82 744.036 1362.55 745.882L1335.75 767.673C1332.29 770.481 1327.76 765.865 1330.63 762.464L1352.61 736.419C1354.52 734.154 1353.1 730.676 1350.15 730.404L1316.07 727.263C1311.63 726.854 1311.63 720.371 1316.07 719.962L1350.15 716.822C1353.1 716.55 1354.52 713.071 1352.61 710.806L1330.63 684.762C1327.76 681.36 1332.29 676.745 1335.75 679.553L1362.55 701.343C1364.82 703.19 1368.23 701.761 1368.51 698.848L1371.79 664.611C1372.21 660.189 1378.66 660.189 1379.08 664.611L1382.36 698.848C1382.64 701.761 1386.05 703.19 1388.32 701.343L1415.12 679.553C1418.58 676.745 1423.11 681.36 1420.24 684.762L1398.26 710.806C1396.35 713.071 1397.77 716.55 1400.72 716.822L1434.8 719.962C1439.24 720.371 1439.24 726.854 1434.8 727.263L1400.72 730.404C1397.77 730.676 1396.35 734.154 1398.26 736.419L1420.24 762.464C1423.11 765.865 1418.58 770.481 1415.12 767.673L1388.32 745.882C1386.05 744.036 1382.64 745.464 1382.36 748.378L1379.08 782.614Z" fill="rgba(30,34,39,0.30)"/>
<path d="M1381.11 640.204C1377.6 642.233 1373.27 642.233 1369.76 640.204L1318.42 610.562C1314.9 608.534 1312.74 604.784 1312.74 600.727L1312.74 541.443C1312.74 537.386 1314.9 533.637 1318.42 531.608L1369.76 501.966C1373.27 499.938 1377.6 499.938 1381.11 501.966L1432.45 531.608C1435.97 533.637 1438.13 537.386 1438.13 541.443L1438.13 600.727C1438.13 604.785 1435.97 608.534 1432.45 610.562L1381.11 640.204Z" fill="rgba(30,34,39,0.30)"/>
<path d="M306.014 486.438C304.258 489.508 299.832 489.508 298.076 486.438L239.958 384.851C238.214 381.802 240.415 378.007 243.927 378.007L360.164 378.007C363.676 378.007 365.877 381.802 364.133 384.851L306.014 486.438Z" fill="rgba(30,34,39,0.30)"/>
<path d="M305.695 782.614C305.272 787.037 298.819 787.037 298.396 782.614L295.121 748.378C294.842 745.464 291.43 744.036 289.158 745.882L262.356 767.673C258.902 770.481 254.37 765.865 257.241 762.464L279.222 736.419C281.133 734.154 279.708 730.676 276.757 730.404L242.677 727.263C238.237 726.854 238.237 720.371 242.677 719.962L276.757 716.822C279.708 716.55 281.133 713.071 279.222 710.806L257.241 684.762C254.371 681.36 258.902 676.745 262.356 679.553L289.158 701.343C291.43 703.19 294.842 701.761 295.121 698.848L298.396 664.611C298.819 660.189 305.272 660.189 305.695 664.611L308.97 698.848C309.248 701.761 312.661 703.19 314.932 701.343L341.735 679.553C345.188 676.745 349.72 681.36 346.849 684.762L324.868 710.806C322.957 713.071 324.383 716.55 327.334 716.822L361.413 719.962C365.853 720.371 365.853 726.854 361.413 727.263L327.334 730.404C324.383 730.676 322.957 734.154 324.868 736.419L346.849 762.464C349.72 765.865 345.188 770.481 341.735 767.673L314.932 745.882C312.661 744.036 309.248 745.464 308.97 748.378L305.695 782.614Z" fill="rgba(30,34,39,0.30)"/>
<path d="M307.723 640.204C304.21 642.233 299.881 642.233 296.367 640.204L245.025 610.562C241.512 608.534 239.347 604.784 239.347 600.727L239.347 541.443C239.347 537.386 241.512 533.637 245.025 531.608L296.367 501.966C299.881 499.938 304.21 499.938 307.723 501.966L359.065 531.608C362.579 533.637 364.743 537.386 364.743 541.443L364.743 600.727C364.743 604.785 362.579 608.534 359.065 610.562L307.723 640.204Z" fill="rgba(30,34,39,0.30)"/>
<circle cx="570.392" cy="-0.302044" r="62.698" fill="rgba(30,34,39,0.30)"/>
<path d="M565.855 85.9125C567.283 81.3088 573.502 81.3088 574.93 85.9125L586.46 123.078C587.099 125.137 588.931 126.531 590.998 126.531H628.31C632.932 126.531 634.854 132.725 631.114 135.57L600.928 158.54C599.256 159.812 598.556 162.068 599.195 164.126L610.725 201.292C612.153 205.896 607.122 209.724 603.383 206.879L573.197 183.909C571.524 182.637 569.26 182.637 567.588 183.909L537.402 206.879C533.662 209.724 528.631 205.896 530.06 201.292L541.59 164.126C542.228 162.068 541.529 159.812 539.857 158.54L509.67 135.57C505.931 132.725 507.853 126.531 512.475 126.531H549.787C551.854 126.531 553.686 125.137 554.325 123.078L565.855 85.9125Z" fill="rgba(30,34,39,0.30)"/>
<path d="M566.579 227.423C569.021 226.412 571.764 226.412 574.205 227.423L611.494 242.869C613.935 243.88 615.875 245.82 616.886 248.261L632.332 285.55C633.343 287.991 633.343 290.734 632.332 293.176L616.886 330.464C615.875 332.906 613.935 334.845 611.494 335.857L574.205 351.302C571.764 352.313 569.021 352.313 566.579 351.302L529.291 335.857C526.849 334.845 524.91 332.906 523.898 330.464L508.453 293.176C507.442 290.734 507.442 287.991 508.453 285.55L523.898 248.261C524.91 245.82 526.849 243.88 529.291 242.869L566.579 227.423Z" fill="rgba(30,34,39,0.30)"/>
<circle cx="436.219" cy="723.233" r="62.698" transform="rotate(-180 436.219 723.233)" fill="rgba(30,34,39,0.30)"/>
<path d="M440.757 637.017C439.328 641.62 433.11 641.62 431.681 637.017L420.151 599.851C419.513 597.792 417.681 596.398 415.614 596.398L378.301 596.398C373.679 596.398 371.758 590.204 375.497 587.359L405.683 564.389C407.355 563.117 408.055 560.862 407.416 558.803L395.886 521.637C394.458 517.034 399.489 513.205 403.228 516.051L433.415 539.02C435.087 540.293 437.351 540.293 439.023 539.02L469.21 516.051C472.949 513.205 477.98 517.034 476.552 521.637L465.022 558.803C464.383 560.862 465.083 563.117 466.755 564.389L496.941 587.359C500.68 590.204 498.759 596.398 494.137 596.398L456.824 596.398C454.757 596.398 452.926 597.792 452.287 599.851L440.757 637.017Z" fill="rgba(30,34,39,0.30)"/>
<path d="M440.032 495.508C437.591 496.519 434.847 496.519 432.406 495.508L395.117 480.062C392.676 479.051 390.736 477.111 389.725 474.67L374.28 437.381C373.268 434.94 373.268 432.196 374.28 429.755L389.725 392.466C390.736 390.025 392.676 388.085 395.117 387.074L432.406 371.628C434.847 370.617 437.591 370.617 440.032 371.628L477.321 387.074C479.762 388.085 481.702 390.025 482.713 392.466L498.159 429.755C499.17 432.196 499.17 434.94 498.159 437.381L482.713 474.67C481.702 477.111 479.762 479.051 477.321 480.062L440.032 495.508Z" fill="rgba(30,34,39,0.30)"/>
<circle cx="838.739" cy="433.569" r="62.698" fill="rgba(30,34,39,0.30)"/>
<path d="M834.201 519.784C835.63 515.18 841.848 515.18 843.277 519.784L854.807 556.949C855.445 559.008 857.277 560.402 859.344 560.402H896.657C901.279 560.402 903.2 566.596 899.461 569.441L869.275 592.411C867.603 593.683 866.903 595.939 867.542 597.998L879.072 635.163C880.5 639.767 875.469 643.595 871.73 640.75L841.543 617.78C839.871 616.508 837.607 616.508 835.935 617.78L805.748 640.75C802.009 643.595 796.978 639.767 798.406 635.163L809.936 597.998C810.575 595.939 809.875 593.683 808.203 592.411L778.017 569.441C774.278 566.596 776.199 560.402 780.821 560.402H818.134C820.201 560.402 822.032 559.008 822.671 556.949L834.201 519.784Z" fill="rgba(30,34,39,0.30)"/>
<path d="M834.926 661.294C837.367 660.283 840.111 660.283 842.552 661.294L879.841 676.74C882.282 677.751 884.222 679.691 885.233 682.132L900.678 719.421C901.69 721.862 901.69 724.605 900.678 727.047L885.233 764.336C884.222 766.777 882.282 768.717 879.841 769.728L842.552 785.173C840.111 786.185 837.367 786.185 834.926 785.173L797.637 769.728C795.196 768.717 793.256 766.777 792.245 764.336L776.799 727.047C775.788 724.605 775.788 721.862 776.799 719.421L792.245 682.132C793.256 679.691 795.196 677.751 797.637 676.74L834.926 661.294Z" fill="rgba(30,34,39,0.30)"/>
<circle cx="1241.26" cy="289.362" r="62.698" transform="rotate(-180 1241.26 289.362)" fill="rgba(30,34,39,0.30)"/>
<path d="M1245.8 203.149C1244.37 207.753 1238.15 207.753 1236.72 203.149L1225.19 165.984C1224.55 163.925 1222.72 162.531 1220.66 162.531L1183.34 162.531C1178.72 162.531 1176.8 156.337 1180.54 153.492L1210.73 130.522C1212.4 129.25 1213.1 126.994 1212.46 124.935L1200.93 87.77C1199.5 83.1663 1204.53 79.338 1208.27 82.1833L1238.46 105.153C1240.13 106.425 1242.39 106.425 1244.07 105.153L1274.25 82.1833C1277.99 79.338 1283.02 83.1663 1281.59 87.77L1270.06 124.935C1269.42 126.994 1270.12 129.25 1271.8 130.522L1301.98 153.492C1305.72 156.337 1303.8 162.531 1299.18 162.531L1261.87 162.531C1259.8 162.531 1257.97 163.925 1257.33 165.984L1245.8 203.149Z" fill="rgba(30,34,39,0.30)"/>
<path d="M1245.07 61.6388C1242.63 62.65 1239.89 62.65 1237.45 61.6388L1200.16 46.1933C1197.72 45.182 1195.78 43.2423 1194.77 40.8009L1179.32 3.51221C1178.31 1.07081 1178.31 -1.67231 1179.32 -4.11371L1194.77 -41.4024C1195.78 -43.8438 1197.72 -45.7835 1200.16 -46.7948L1237.45 -62.2403C1239.89 -63.2515 1242.63 -63.2515 1245.07 -62.2403L1282.36 -46.7948C1284.8 -45.7835 1286.74 -43.8438 1287.76 -41.4024L1303.2 -4.11371C1304.21 -1.67231 1304.21 1.07082 1303.2 3.51222L1287.76 40.8009C1286.74 43.2423 1284.8 45.182 1282.36 46.1933L1245.07 61.6388Z" fill="rgba(30,34,39,0.30)"/>
<circle cx="167.871" cy="289.362" r="62.698" transform="rotate(-180 167.871 289.362)" fill="rgba(30,34,39,0.30)"/>
<path d="M172.409 203.149C170.981 207.753 164.762 207.753 163.334 203.149L151.804 165.984C151.165 163.925 149.333 162.531 147.266 162.531L109.954 162.531C105.332 162.531 103.41 156.337 107.149 153.492L137.336 130.522C139.008 129.25 139.708 126.994 139.069 124.935L127.539 87.77C126.11 83.1663 131.141 79.338 134.881 82.1833L165.067 105.153C166.739 106.425 169.004 106.425 170.676 105.153L200.862 82.1833C204.601 79.338 209.632 83.1663 208.204 87.77L196.674 124.935C196.035 126.994 196.735 129.25 198.407 130.522L228.593 153.492C232.333 156.337 230.411 162.531 225.789 162.531L188.477 162.531C186.41 162.531 184.578 163.925 183.939 165.984L172.409 203.149Z" fill="rgba(30,34,39,0.30)"/>
<path d="M171.684 61.6388C169.243 62.65 166.5 62.65 164.058 61.6388L126.77 46.1933C124.328 45.182 122.389 43.2423 121.377 40.8009L105.932 3.51221C104.921 1.07081 104.921 -1.67231 105.932 -4.11371L121.377 -41.4024C122.389 -43.8438 124.328 -45.7835 126.77 -46.7948L164.058 -62.2403C166.5 -63.2515 169.243 -63.2515 171.684 -62.2403L208.973 -46.7948C211.414 -45.7835 213.354 -43.8438 214.365 -41.4024L229.811 -4.11371C230.822 -1.67231 230.822 1.07082 229.811 3.51222L214.365 40.8009C213.354 43.2423 211.414 45.182 208.973 46.1933L171.684 61.6388Z" fill="rgba(30,34,39,0.30)"/>
<path d="M826.235 -52.0561C829.567 -64.973 847.911 -64.9731 851.243 -52.0561L852.289 -48.0033C854.283 -40.2749 862.74 -36.1876 870.034 -39.4271L873.7 -41.0551C885.969 -46.5037 897.374 -31.9382 889.142 -21.3341L887.396 -19.0843C882.401 -12.6506 884.537 -3.2564 891.823 0.385349L894.28 1.61398C906.329 7.63667 902.265 25.7704 888.799 26.0752L885.534 26.1491C877.464 26.3318 871.538 33.7908 873.184 41.6933L873.895 45.107C876.622 58.1923 860.108 66.291 851.431 56.1244L848.561 52.7623C843.406 46.7223 834.072 46.7223 828.917 52.7623L826.047 56.1244C817.37 66.2909 800.856 58.1923 803.583 45.107L804.294 41.6933C805.94 33.7908 800.014 26.3318 791.944 26.1491L788.679 26.0752C775.213 25.7704 771.149 7.63669 783.198 1.61399L785.655 0.385349C792.941 -3.2564 795.077 -12.6506 790.082 -19.0843L788.336 -21.3341C780.104 -31.9382 791.509 -46.5037 803.778 -41.0551L807.444 -39.4271C814.738 -36.1876 823.195 -40.2749 825.189 -48.0033L826.235 -52.0561Z" fill="rgba(30,34,39,0.30)"/>
<path d="M836.832 228.357C837.116 226.105 840.361 226.105 840.645 228.357L844.112 255.847C844.341 257.662 846.719 258.17 847.662 256.606L861.951 232.91C863.122 230.969 866.086 232.295 865.435 234.469L857.48 261C856.954 262.752 858.921 264.188 860.416 263.145L883.057 247.34C884.911 246.045 887.083 248.47 885.608 250.189L867.607 271.173C866.418 272.559 867.633 274.675 869.421 274.333L896.499 269.153C898.717 268.729 899.72 271.831 897.677 272.799L872.742 284.608C871.096 285.388 871.35 287.818 873.121 288.237L899.954 294.576C902.152 295.096 901.813 298.34 899.555 298.389L871.998 298.981C870.178 299.021 869.427 301.344 870.877 302.451L892.824 319.215C894.622 320.588 893 323.413 890.918 322.535L865.503 311.808C863.825 311.099 862.199 312.915 863.075 314.519L876.343 338.808C877.43 340.798 874.805 342.715 873.258 341.061L854.381 320.869C853.134 319.536 850.914 320.53 851.065 322.353L853.36 349.968C853.547 352.23 850.373 352.908 849.63 350.765L840.554 324.6C839.954 322.872 837.524 322.872 836.924 324.6L827.848 350.765C827.104 352.908 823.93 352.23 824.118 349.968L826.413 322.353C826.564 320.53 824.344 319.536 823.097 320.869L804.22 341.061C802.673 342.715 800.048 340.798 801.135 338.808L814.403 314.519C815.279 312.915 813.653 311.099 811.975 311.808L786.56 322.535C784.478 323.413 782.856 320.588 784.654 319.215L806.601 302.451C808.051 301.344 807.299 299.021 805.48 298.981L777.923 298.389C775.665 298.34 775.326 295.096 777.524 294.576L804.356 288.237C806.128 287.818 806.382 285.388 804.736 284.608L779.801 272.799C777.758 271.831 778.761 268.729 780.979 269.153L808.057 274.333C809.845 274.675 811.06 272.559 809.871 271.173L791.87 250.189C790.395 248.47 792.567 246.045 794.421 247.34L817.062 263.145C818.557 264.188 820.524 262.752 819.998 261L812.043 234.469C811.392 232.295 814.356 230.969 815.527 232.91L829.816 256.606C830.759 258.17 833.137 257.662 833.366 255.847L836.832 228.357Z" fill="rgba(30,34,39,0.30)"/>
<path d="M894.12 97.0038C884.364 87.2479 868.547 87.2479 858.791 97.0038L839.216 116.578L818.687 96.0492C808.931 86.2933 793.114 86.2933 783.358 96.0492C773.602 105.805 773.602 121.623 783.358 131.378L803.887 151.908L783.358 172.437C773.602 182.192 773.602 198.01 783.358 207.766C793.114 217.522 808.931 217.522 818.687 207.766L839.216 187.237L858.791 206.811C868.547 216.567 884.364 216.567 894.12 206.811C903.876 197.055 903.876 181.238 894.12 171.482L874.546 151.908L894.12 132.333C903.876 122.577 903.876 106.76 894.12 97.0038Z" fill="rgba(30,34,39,0.30)"/>
<path d="M1253.77 774.989C1250.43 787.906 1232.09 787.906 1228.76 774.989L1227.71 770.936C1225.72 763.208 1217.26 759.12 1209.97 762.36L1206.3 763.988C1194.03 769.436 1182.63 754.871 1190.86 744.267L1192.6 742.017C1197.6 735.583 1195.46 726.189 1188.18 722.547L1185.72 721.319C1173.67 715.296 1177.74 697.162 1191.2 696.857L1194.47 696.783C1202.54 696.601 1208.46 689.142 1206.82 681.239L1206.1 677.826C1203.38 664.74 1219.89 656.642 1228.57 666.808L1231.44 670.17C1236.59 676.21 1245.93 676.21 1251.08 670.17L1253.95 666.808C1262.63 656.642 1279.14 664.74 1276.42 677.826L1275.71 681.239C1274.06 689.142 1279.99 696.601 1288.06 696.784L1291.32 696.857C1304.79 697.162 1308.85 715.296 1296.8 721.319L1294.34 722.547C1287.06 726.189 1284.92 735.583 1289.92 742.017L1291.66 744.267C1299.9 754.871 1288.49 769.436 1276.22 763.988L1272.56 762.36C1265.26 759.12 1256.8 763.208 1254.81 770.936L1253.77 774.989Z" fill="rgba(30,34,39,0.30)"/>
<path d="M1243.17 494.577C1242.88 496.829 1239.64 496.829 1239.35 494.577L1235.89 467.087C1235.66 465.272 1233.28 464.764 1232.34 466.328L1218.05 490.024C1216.88 491.965 1213.91 490.639 1214.57 488.465L1222.52 461.934C1223.05 460.182 1221.08 458.746 1219.58 459.789L1196.94 475.594C1195.09 476.889 1192.92 474.464 1194.39 472.745L1212.39 451.761C1213.58 450.375 1212.37 448.259 1210.58 448.601L1183.5 453.781C1181.28 454.206 1180.28 451.103 1182.32 450.136L1207.26 438.326C1208.9 437.546 1208.65 435.116 1206.88 434.697L1180.05 428.358C1177.85 427.838 1178.19 424.594 1180.44 424.545L1208 423.953C1209.82 423.913 1210.57 421.59 1209.12 420.483L1187.18 403.719C1185.38 402.346 1187 399.521 1189.08 400.4L1214.5 411.126C1216.17 411.835 1217.8 410.019 1216.93 408.415L1203.66 384.126C1202.57 382.136 1205.2 380.219 1206.74 381.873L1225.62 402.065C1226.87 403.398 1229.09 402.404 1228.93 400.581L1226.64 372.966C1226.45 370.704 1229.63 370.026 1230.37 372.169L1239.45 398.334C1240.05 400.062 1242.48 400.062 1243.08 398.334L1252.15 372.169C1252.9 370.026 1256.07 370.704 1255.88 372.966L1253.59 400.581C1253.44 402.404 1255.66 403.398 1256.9 402.065L1275.78 381.873C1277.33 380.219 1279.95 382.137 1278.87 384.126L1265.6 408.415C1264.72 410.019 1266.35 411.835 1268.03 411.126L1293.44 400.4C1295.52 399.521 1297.14 402.346 1295.35 403.719L1273.4 420.483C1271.95 421.59 1272.7 423.913 1274.52 423.953L1302.08 424.545C1304.33 424.594 1304.67 427.838 1302.48 428.358L1275.64 434.697C1273.87 435.116 1273.62 437.546 1275.26 438.326L1300.2 450.136C1302.24 451.103 1301.24 454.206 1299.02 453.781L1271.94 448.601C1270.16 448.259 1268.94 450.375 1270.13 451.761L1288.13 472.745C1289.6 474.464 1287.43 476.889 1285.58 475.594L1262.94 459.789C1261.44 458.746 1259.48 460.182 1260 461.934L1267.96 488.465C1268.61 490.639 1265.64 491.965 1264.47 490.024L1250.18 466.328C1249.24 464.764 1246.86 465.272 1246.63 467.087L1243.17 494.577Z" fill="rgba(30,34,39,0.30)"/>
<path d="M1185.88 625.93C1195.64 635.686 1211.45 635.686 1221.21 625.93L1240.78 606.356L1261.31 626.885C1271.07 636.641 1286.89 636.641 1296.64 626.885C1306.4 617.129 1306.4 601.311 1296.64 591.556L1276.11 571.027L1296.64 550.497C1306.4 540.742 1306.4 524.924 1296.64 515.168C1286.89 505.412 1271.07 505.412 1261.31 515.168L1240.78 535.697L1221.21 516.123C1211.45 506.367 1195.64 506.367 1185.88 516.123C1176.12 525.879 1176.12 541.696 1185.88 551.452L1205.45 571.027L1185.88 590.601C1176.12 600.357 1176.12 616.174 1185.88 625.93Z" fill="rgba(30,34,39,0.30)"/>
<path d="M180.376 774.989C177.043 787.906 158.7 787.906 155.367 774.989L154.322 770.936C152.328 763.208 143.87 759.12 136.576 762.36L132.91 763.988C120.641 769.436 109.236 754.871 117.468 744.267L119.215 742.017C124.209 735.583 122.073 726.189 114.788 722.547L112.33 721.319C100.282 715.296 104.346 697.162 117.812 696.857L121.076 696.783C129.146 696.601 135.072 689.142 133.426 681.239L132.715 677.826C129.989 664.74 146.502 656.642 155.179 666.808L158.049 670.17C163.204 676.21 172.538 676.21 177.694 670.17L180.563 666.808C189.241 656.642 205.754 664.74 203.028 677.826L202.317 681.239C200.67 689.142 206.597 696.601 214.667 696.784L217.931 696.857C231.397 697.162 235.461 715.296 223.413 721.319L220.955 722.547C213.67 726.189 211.534 735.583 216.528 742.017L218.275 744.267C226.507 754.871 215.102 769.436 202.833 763.988L199.167 762.36C191.872 759.12 183.415 763.208 181.421 770.936L180.376 774.989Z" fill="rgba(30,34,39,0.30)"/>
<path d="M169.778 494.577C169.494 496.829 166.249 496.829 165.965 494.577L162.498 467.087C162.269 465.272 159.892 464.764 158.948 466.328L144.659 490.024C143.488 491.965 140.524 490.639 141.176 488.465L149.131 461.934C149.656 460.182 147.69 458.746 146.195 459.789L123.554 475.594C121.699 476.889 119.528 474.464 121.002 472.745L139.004 451.761C140.192 450.375 138.977 448.259 137.189 448.601L110.111 453.781C107.893 454.206 106.891 451.103 108.933 450.136L133.868 438.326C135.515 437.546 135.261 435.116 133.489 434.697L106.656 428.358C104.458 427.838 104.798 424.594 107.055 424.545L134.612 423.953C136.432 423.913 137.183 421.59 135.734 420.483L113.786 403.719C111.988 402.346 113.61 399.521 115.692 400.4L141.107 411.126C142.785 411.835 144.411 410.019 143.535 408.415L130.267 384.126C129.18 382.136 131.806 380.219 133.352 381.873L152.23 402.065C153.476 403.398 155.696 402.404 155.545 400.581L153.251 372.966C153.063 370.704 156.237 370.026 156.98 372.169L166.057 398.334C166.656 400.062 169.087 400.062 169.686 398.334L178.762 372.169C179.506 370.026 182.68 370.704 182.492 372.966L180.198 400.581C180.046 402.404 182.267 403.398 183.513 402.065L202.391 381.873C203.937 380.219 206.562 382.137 205.475 384.126L192.207 408.415C191.331 410.019 192.958 411.835 194.636 411.126L220.05 400.4C222.132 399.521 223.755 402.346 221.957 403.719L200.009 420.483C198.56 421.59 199.311 423.913 201.131 423.953L228.688 424.545C230.945 424.594 231.284 427.838 229.086 428.358L202.254 434.697C200.482 435.116 200.228 437.546 201.875 438.326L226.81 450.136C228.852 451.103 227.849 454.206 225.631 453.781L198.554 448.601C196.766 448.259 195.55 450.375 196.739 451.761L214.74 472.745C216.215 474.464 214.044 476.889 212.189 475.594L189.548 459.789C188.053 458.746 186.087 460.182 186.612 461.934L194.567 488.465C195.219 490.639 192.254 491.965 191.084 490.024L176.795 466.328C175.851 464.764 173.474 465.272 173.245 467.087L169.778 494.577Z" fill="rgba(30,34,39,0.30)"/>
<path d="M112.49 625.93C122.246 635.686 138.064 635.686 147.82 625.93L167.394 606.356L187.923 626.885C197.679 636.641 213.496 636.641 223.252 626.885C233.008 617.129 233.008 601.311 223.252 591.556L202.723 571.027L223.252 550.497C233.008 540.742 233.008 524.924 223.252 515.168C213.497 505.412 197.679 505.412 187.923 515.168L167.394 535.697L147.82 516.123C138.064 506.367 122.246 506.367 112.49 516.123C102.734 525.879 102.734 541.696 112.49 551.452L132.065 571.027L112.49 590.601C102.735 600.357 102.734 616.174 112.49 625.93Z" fill="rgba(30,34,39,0.30)"/>
</g>
</g>
</svg>
