<svg width="34" height="12" viewBox="0 0 34 12" fill="#66C195" xmlns="http://www.w3.org/2000/svg">
<path d="M1 5.25C0.585786 5.25 0.25 5.58579 0.25 6C0.25 6.41421 0.585786 6.75 1 6.75L1 5.25ZM33.5303 6.53033C33.8232 6.23744 33.8232 5.76257 33.5303 5.46967L28.7574 0.696702C28.4645 0.403808 27.9896 0.403808 27.6967 0.696701C27.4038 0.989595 27.4038 1.46447 27.6967 1.75736L31.9393 6L27.6967 10.2426C27.4038 10.5355 27.4038 11.0104 27.6967 11.3033C27.9896 11.5962 28.4645 11.5962 28.7574 11.3033L33.5303 6.53033ZM1 6.75L33 6.75L33 5.25L1 5.25L1 6.75Z" fill="#66C195"/>
</svg>
