<svg width="581" height="519" viewBox="0 0 581 519" fill="none" xmlns="http://www.w3.org/2000/svg">
<path d="M57.701 -2.27632e-05L736.661 -2.51565e-06C751.925 -3.95272e-05 766.565 5.99888 777.371 16.6813C788.176 27.3637 794.263 41.8569 794.297 56.981L794.297 515.891C794.263 531.027 788.18 545.535 777.378 556.238C766.577 566.94 751.937 572.966 736.661 573L562.339 573C547.075 572.966 532.448 566.935 521.667 556.229C510.886 545.522 504.832 531.016 504.832 515.891L504.832 344.31C504.832 328.894 498.651 314.109 487.649 303.208C476.647 292.307 461.726 286.181 446.167 286.181L58.6016 286.181C43.0992 286.147 28.2433 280.022 17.2934 269.148C6.34356 258.274 0.193898 243.543 0.193899 228.182L0.193906 56.343C0.363279 41.3413 6.49689 27.012 17.2632 16.4634C28.0296 5.91481 42.5601 -0.000962013 57.701 -2.27632e-05Z" fill="#2A7DDD"/>
</svg>
