<svg width="219" height="234" viewBox="0 0 219 234" fill="none" xmlns="http://www.w3.org/2000/svg">
<path d="M228.498 233.98H23.7882C20.7589 233.987 17.7586 233.396 14.958 232.243C12.1573 231.089 9.61143 229.395 7.46699 227.257C5.32254 225.119 3.62115 222.58 2.46031 219.784C1.29948 216.988 0.702129 213.991 0.702136 210.964L0.702136 6.21584C0.652574 4.99036 0.982261 3.77939 1.64533 2.74725C2.3084 1.71512 3.27317 0.911819 4.4089 0.446548C5.54464 -0.0187225 6.79515 -0.123413 7.99253 0.146576C9.18991 0.416565 10.2757 1.04825 11.1014 1.95578L233.073 223.537C233.998 224.387 234.635 225.504 234.894 226.733C235.152 227.962 235.021 229.24 234.517 230.39C234.013 231.541 233.161 232.505 232.082 233.148C231.003 233.792 229.751 234.082 228.498 233.98Z" fill="#EC6055"/>
</svg>
