<svg width="512" height="1014" viewBox="0 0 512 1014" fill="rgba(30,34,39,0.30)" xmlns="http://www.w3.org/2000/svg">
<mask id="mask0_760_6986" style="mask-type:alpha" maskUnits="userSpaceOnUse" x="0" y="0" width="512" height="1014">
<rect width="512" height="1014" fill="rgba(30,34,39,0.30)"/>
</mask>
<g mask="url(#mask0_760_6986)">
<g style="mix-blend-mode:multiply" opacity="0.3">
<path d="M87.8847 691.923C85.0058 703.082 69.1591 703.082 66.2803 691.923L65.377 688.422C63.6546 681.746 56.3485 678.215 50.047 681.013L46.8801 682.42C36.2812 687.127 26.4285 674.544 33.54 665.383L35.0487 663.44C39.3633 657.882 37.5182 649.766 31.2246 646.62L29.1013 645.559C18.693 640.356 22.2037 624.691 33.8369 624.427L36.6569 624.363C43.6285 624.206 48.7481 617.762 47.3258 610.935L46.7114 607.986C44.3564 596.682 58.6218 589.686 66.1181 598.468L68.5972 601.373C73.0508 606.591 81.1141 606.591 85.5678 601.373L88.0468 598.468C95.5431 589.686 109.809 596.682 107.454 607.986L106.839 610.935C105.417 617.762 110.536 624.206 117.508 624.363L120.328 624.427C131.961 624.691 135.472 640.356 125.064 645.559L122.94 646.62C116.647 649.766 114.802 657.882 119.116 663.44L120.625 665.383C127.736 674.544 117.884 687.127 107.285 682.42L104.118 681.013C97.8164 678.215 90.5104 681.746 88.7879 688.422L87.8847 691.923Z" fill="rgba(30,34,39,0.30)"/>
<path d="M78.7314 449.681C78.4861 451.626 75.6828 451.626 75.4375 449.681L72.4425 425.932C72.2447 424.364 70.191 423.925 69.3759 425.277L57.0317 445.747C56.0205 447.424 53.4596 446.278 54.0225 444.401L60.8947 421.481C61.3484 419.967 59.6498 418.727 58.3583 419.628L38.7993 433.281C37.197 434.4 35.3213 432.305 36.5952 430.82L52.1462 412.692C53.173 411.495 52.1232 409.667 50.5786 409.963L27.1867 414.438C25.2705 414.804 24.4042 412.124 26.1688 411.288L47.7097 401.086C49.1321 400.412 48.9126 398.313 47.382 397.951L24.2019 392.475C22.3031 392.026 22.5961 389.223 24.5463 389.181L48.3525 388.669C49.9244 388.636 50.5732 386.628 49.3213 385.672L30.361 371.19C28.8078 370.004 30.2094 367.563 32.008 368.322L53.9632 377.589C55.4129 378.201 56.8179 376.632 56.061 375.247L44.599 354.264C43.66 352.545 45.9279 350.889 47.2638 352.318L63.5718 369.761C64.6487 370.912 66.5668 370.054 66.4359 368.479L64.454 344.623C64.2917 342.669 67.0336 342.083 67.676 343.935L75.5169 366.538C76.0346 368.031 78.1343 368.031 78.652 366.538L86.4929 343.935C87.1353 342.083 89.8772 342.669 89.7149 344.623L87.733 368.479C87.6021 370.054 89.5202 370.912 90.5971 369.761L106.905 352.318C108.241 350.889 110.509 352.545 109.57 354.264L98.1079 375.247C97.351 376.632 98.756 378.201 100.206 377.589L122.161 368.322C123.959 367.563 125.361 370.004 123.808 371.19L104.848 385.672C103.596 386.628 104.244 388.636 105.816 388.669L129.623 389.181C131.573 389.223 131.866 392.026 129.967 392.475L106.787 397.952C105.256 398.313 105.037 400.412 106.459 401.086L128 411.288C129.765 412.124 128.898 414.804 126.982 414.438L103.59 409.963C102.046 409.667 100.996 411.495 102.023 412.692L117.574 430.82C118.848 432.305 116.972 434.4 115.37 433.281L95.8106 419.628C94.5191 418.727 92.8205 419.967 93.2742 421.481L100.146 444.401C100.709 446.278 98.1484 447.424 97.1372 445.747L84.793 425.277C83.9779 423.925 81.9241 424.364 81.7264 425.932L78.7314 449.681Z" fill="rgba(30,34,39,0.30)"/>
<path d="M29.2418 563.154C37.6698 571.582 51.3342 571.582 59.7621 563.154L76.6721 546.244L94.4068 563.979C102.835 572.407 116.499 572.407 124.927 563.979C133.355 555.551 133.355 541.887 124.927 533.459L107.192 515.724L124.927 497.989C133.355 489.561 133.355 475.897 124.927 467.469C116.499 459.041 102.835 459.041 94.4068 467.469L76.6721 485.204L59.7621 468.294C51.3342 459.866 37.6697 459.866 29.2418 468.294C20.8139 476.722 20.8138 490.386 29.2418 498.814L46.1518 515.724L29.2418 532.634C20.8139 541.062 20.8139 554.726 29.2418 563.154Z" fill="rgba(30,34,39,0.30)"/>
<path d="M-49.6268 727.077C-46.748 715.918 -30.9013 715.918 -28.0225 727.077L-27.1192 730.578C-25.3968 737.255 -18.0907 740.786 -11.7892 737.987L-8.62224 736.581C1.97661 731.874 11.8293 744.457 4.71786 753.617L3.20908 755.561C-1.10554 761.119 0.739623 769.234 7.03321 772.38L9.1565 773.442C19.5648 778.645 16.0541 794.31 4.42088 794.573L1.60088 794.637C-5.37073 794.795 -10.4903 801.239 -9.06802 808.065L-8.45363 811.014C-6.09859 822.319 -20.364 829.315 -27.8603 820.532L-30.3394 817.628C-34.793 812.41 -42.8563 812.41 -47.31 817.628L-49.789 820.532C-57.2853 829.315 -71.5508 822.319 -69.1957 811.014L-68.5813 808.065C-67.1591 801.239 -72.2786 794.795 -79.2502 794.637L-82.0703 794.573C-93.7035 794.31 -97.2141 778.645 -86.8059 773.442L-84.6826 772.38C-78.389 769.234 -76.5438 761.119 -80.8584 755.561L-82.3672 753.617C-89.4786 744.457 -79.6259 731.874 -69.0271 736.581L-65.8602 737.987C-59.5586 740.786 -52.2526 737.255 -50.5301 730.578L-49.6268 727.077Z" fill="rgba(30,34,39,0.30)"/>
<path d="M-40.4716 969.32C-40.2263 967.375 -37.4231 967.375 -37.1777 969.32L-34.1828 993.069C-33.985 994.637 -31.9312 995.076 -31.1161 993.724L-18.7719 973.254C-17.7607 971.577 -15.1998 972.723 -15.7628 974.6L-22.6349 997.52C-23.0887 999.034 -21.3901 1000.27 -20.0985 999.373L-0.539516 985.72C1.06273 984.601 2.93847 986.696 1.66455 988.181L-13.8864 1006.31C-14.9133 1007.51 -13.8635 1009.33 -12.3188 1009.04L11.073 1004.56C12.9893 1004.2 13.8555 1006.88 12.0909 1007.71L-9.44998 1017.91C-10.8724 1018.59 -10.6529 1020.69 -9.12226 1021.05L14.0578 1026.53C15.9567 1026.97 15.6637 1029.78 13.7135 1029.82L-10.0927 1030.33C-11.6647 1030.37 -12.3135 1032.37 -11.0615 1033.33L7.89874 1047.81C9.45194 1049 8.05032 1051.44 6.25178 1050.68L-15.7034 1041.41C-17.1532 1040.8 -18.5581 1042.37 -17.8012 1043.75L-6.33924 1064.74C-5.40029 1066.46 -7.66817 1068.11 -9.00409 1066.68L-25.3121 1049.24C-26.3889 1048.09 -28.307 1048.95 -28.1761 1050.52L-26.1943 1074.38C-26.0319 1076.33 -28.7739 1076.92 -29.4162 1075.07L-37.2571 1052.46C-37.7749 1050.97 -39.8745 1050.97 -40.3923 1052.46L-48.2332 1075.07C-48.8755 1076.92 -51.6175 1076.33 -51.4551 1074.38L-49.4733 1050.52C-49.3424 1048.95 -51.2605 1048.09 -52.3373 1049.24L-68.6453 1066.68C-69.9812 1068.11 -72.2491 1066.46 -71.3101 1064.74L-59.8481 1043.75C-59.0913 1042.37 -60.4962 1040.8 -61.9459 1041.41L-83.9012 1050.68C-85.6997 1051.44 -87.1013 1049 -85.5481 1047.81L-66.5879 1033.33C-65.3359 1032.37 -65.9847 1030.37 -67.5567 1030.33L-91.3629 1029.82C-93.3131 1029.78 -93.6061 1026.97 -91.7072 1026.53L-68.5271 1021.05C-66.9965 1020.69 -66.777 1018.59 -68.1994 1017.91L-89.7403 1007.71C-91.5049 1006.88 -90.6386 1004.2 -88.7224 1004.56L-65.3305 1009.04C-63.7859 1009.33 -62.7361 1007.51 -63.763 1006.31L-79.3139 988.181C-80.5878 986.696 -78.7121 984.601 -77.1098 985.72L-57.5508 999.373C-56.2593 1000.27 -54.5607 999.034 -55.0145 997.52L-61.8866 974.6C-62.4495 972.723 -59.8886 971.577 -58.8774 973.254L-46.5332 993.724C-45.7181 995.076 -43.6644 994.637 -43.4666 993.069L-40.4716 969.32Z" fill="rgba(30,34,39,0.30)"/>
<path d="M9.01793 855.846C0.589981 847.418 -13.0744 847.418 -21.5024 855.846L-38.4124 872.756L-56.147 855.022C-64.5749 846.594 -78.2393 846.594 -86.6673 855.022C-95.0952 863.45 -95.0952 877.114 -86.6673 885.542L-68.9327 903.277L-86.6673 921.011C-95.0953 929.439 -95.0953 943.104 -86.6673 951.532C-78.2394 959.959 -64.575 959.959 -56.147 951.532L-38.4124 933.797L-21.5023 950.707C-13.0744 959.135 0.590008 959.135 9.01795 950.707C17.4459 942.279 17.4459 928.615 9.01797 920.187L-7.89207 903.277L9.01792 886.367C17.4459 877.939 17.4459 864.274 9.01793 855.846Z" fill="rgba(30,34,39,0.30)"/>
<path d="M-49.6268 -22.5458C-46.748 -33.7044 -30.9013 -33.7045 -28.0225 -22.5458L-27.1192 -19.0446C-25.3968 -12.3682 -18.0907 -8.83725 -11.7892 -11.6358L-8.62224 -13.0422C1.97661 -17.7491 11.8293 -5.16628 4.71786 3.99441L3.20908 5.93796C-1.10554 11.4959 0.739623 19.6114 7.03321 22.7575L9.1565 23.8189C19.5648 29.0217 16.0541 44.6871 4.42088 44.9505L1.60088 45.0143C-5.37073 45.1721 -10.4903 51.6158 -9.06802 58.4426L-8.45363 61.3916C-6.09859 72.6958 -20.364 79.6921 -27.8603 70.9094L-30.3394 68.0049C-34.793 62.7871 -42.8563 62.7871 -47.31 68.0049L-49.789 70.9094C-57.2853 79.6921 -71.5508 72.6958 -69.1957 61.3916L-68.5813 58.4426C-67.1591 51.6158 -72.2786 45.1721 -79.2502 45.0143L-82.0703 44.9505C-93.7035 44.6871 -97.2141 29.0217 -86.8059 23.8188L-84.6826 22.7574C-78.389 19.6114 -76.5438 11.4959 -80.8584 5.93794L-82.3672 3.99439C-89.4786 -5.1663 -79.6259 -17.7491 -69.0271 -13.0422L-65.8602 -11.6358C-59.5586 -8.83726 -52.2526 -12.3682 -50.5301 -19.0446L-49.6268 -22.5458Z" fill="rgba(30,34,39,0.30)"/>
<path d="M-40.4716 219.698C-40.2263 217.752 -37.4231 217.752 -37.1777 219.698L-34.1828 243.446C-33.985 245.014 -31.9312 245.453 -31.1161 244.101L-18.7719 223.631C-17.7607 221.954 -15.1998 223.1 -15.7628 224.978L-22.6349 247.897C-23.0887 249.411 -21.3901 250.652 -20.0985 249.75L-0.539516 236.097C1.06273 234.978 2.93847 237.073 1.66455 238.558L-13.8864 256.686C-14.9133 257.883 -13.8635 259.711 -12.3188 259.416L11.073 254.941C12.9893 254.574 13.8555 257.254 12.0909 258.09L-9.44998 268.292C-10.8724 268.966 -10.6529 271.065 -9.12226 271.427L14.0578 276.903C15.9567 277.352 15.6637 280.155 13.7135 280.197L-10.0927 280.709C-11.6647 280.743 -12.3135 282.75 -11.0615 283.706L7.89874 298.188C9.45194 299.374 8.05032 301.815 6.25178 301.056L-15.7034 291.789C-17.1532 291.177 -18.5581 292.746 -17.8012 294.132L-6.33924 315.114C-5.40029 316.833 -7.66817 318.49 -9.00409 317.061L-25.3121 299.618C-26.3889 298.466 -28.307 299.324 -28.1761 300.9L-26.1943 324.755C-26.0319 326.709 -28.7739 327.295 -29.4162 325.443L-37.2571 302.84C-37.7749 301.347 -39.8745 301.347 -40.3923 302.84L-48.2332 325.443C-48.8755 327.295 -51.6175 326.709 -51.4551 324.755L-49.4733 300.9C-49.3424 299.324 -51.2605 298.466 -52.3373 299.618L-68.6453 317.061C-69.9812 318.49 -72.2491 316.833 -71.3101 315.114L-59.8481 294.132C-59.0913 292.746 -60.4962 291.177 -61.9459 291.789L-83.9012 301.056C-85.6997 301.815 -87.1013 299.374 -85.5481 298.188L-66.5879 283.706C-65.3359 282.75 -65.9847 280.743 -67.5567 280.709L-91.3629 280.197C-93.3131 280.155 -93.6061 277.352 -91.7072 276.903L-68.5271 271.427C-66.9965 271.065 -66.777 268.966 -68.1994 268.292L-89.7403 258.09C-91.5049 257.254 -90.6386 254.574 -88.7224 254.941L-65.3305 259.416C-63.7859 259.711 -62.7361 257.883 -63.763 256.686L-79.3139 238.558C-80.5878 237.073 -78.7121 234.978 -77.1098 236.097L-57.5508 249.75C-56.2593 250.652 -54.5607 249.411 -55.0145 247.897L-61.8866 224.978C-62.4495 223.1 -59.8886 221.954 -58.8774 223.631L-46.5332 244.101C-45.7181 245.453 -43.6644 245.014 -43.4666 243.446L-40.4716 219.698Z" fill="rgba(30,34,39,0.30)"/>
<path d="M9.01793 106.224C0.589981 97.7965 -13.0744 97.7965 -21.5024 106.224L-38.4124 123.134L-56.147 105.4C-64.5749 96.9719 -78.2393 96.9719 -86.6673 105.4C-95.0952 113.828 -95.0952 127.492 -86.6673 135.92L-68.9327 153.655L-86.6673 171.389C-95.0953 179.817 -95.0953 193.482 -86.6673 201.91C-78.2394 210.338 -64.575 210.338 -56.147 201.91L-38.4124 184.175L-21.5023 201.085C-13.0744 209.513 0.590008 209.513 9.01795 201.085C17.4459 192.657 17.4459 178.993 9.01797 170.565L-7.89207 153.655L9.01792 136.745C17.4459 128.317 17.4459 114.652 9.01793 106.224Z" fill="rgba(30,34,39,0.30)"/>
<path fill-rule="evenodd" clip-rule="evenodd" d="M424.814 717.625C429.301 717.625 432.939 721.262 432.939 725.75V752.333L452.923 732.349C456.096 729.176 461.24 729.176 464.413 732.349C467.586 735.522 467.586 740.666 464.413 743.839L444.588 763.664H470.855C475.342 763.664 478.98 767.301 478.98 771.788C478.98 776.275 475.342 779.913 470.855 779.913H444.273L464.095 799.734C467.268 802.907 467.268 808.051 464.095 811.224C460.922 814.397 455.778 814.397 452.605 811.224L432.939 791.558V817.828C432.939 822.315 429.301 825.952 424.814 825.952C420.327 825.952 416.69 822.315 416.69 817.828V791.562L397.028 811.224C393.855 814.397 388.711 814.397 385.538 811.224C382.365 808.051 382.365 802.907 385.538 799.734L405.359 779.913H378.777C374.29 779.913 370.652 776.275 370.652 771.788C370.652 767.301 374.29 763.664 378.777 763.664H405.044L385.219 743.839C382.047 740.666 382.047 735.522 385.219 732.349C388.392 729.176 393.536 729.176 396.709 732.349L416.69 752.329V725.75C416.69 721.262 420.327 717.625 424.814 717.625Z" fill="rgba(30,34,39,0.30)"/>
<path d="M420.507 853.327C421.432 848.603 428.199 848.603 429.125 853.327C429.903 857.294 435.215 858.132 437.258 854.643C439.678 850.509 446.096 852.623 445.407 857.362C444.828 861.349 449.592 863.85 452.652 861.225C456.268 858.122 461.673 862.146 459.47 866.368C457.612 869.929 461.291 873.837 465.021 872.34C469.426 870.572 473.217 876.112 469.769 879.371C466.855 882.124 469.026 887.007 473.03 886.777C477.767 886.505 479.49 892.972 475.176 894.946C471.53 896.614 471.966 901.922 475.835 902.977C480.417 904.228 479.834 910.892 475.11 911.387C471.122 911.805 469.81 916.972 473.134 919.21C477.068 921.859 474.267 927.947 469.637 926.915C465.718 926.042 462.751 930.501 465.172 933.699C468.04 937.488 463.373 942.332 459.308 939.868C455.865 937.781 451.582 941.03 452.82 944.857C454.291 949.4 448.298 952.505 445.235 948.84C442.645 945.742 437.535 947.431 437.436 951.466C437.318 956.267 430.641 957.342 428.94 952.85C427.507 949.065 422.125 949.065 420.692 952.85C418.991 957.342 412.314 956.267 412.196 951.466C412.097 947.431 406.987 945.742 404.397 948.84C401.334 952.505 395.341 949.4 396.812 944.857C398.05 941.03 393.767 937.781 390.324 939.868C386.259 942.332 381.592 937.488 384.46 933.699C386.881 930.501 383.914 926.042 379.995 926.915C375.365 927.947 372.564 921.859 376.498 919.21C379.822 916.972 378.509 911.805 374.522 911.387C369.798 910.892 369.215 904.228 373.797 902.977C377.665 901.922 378.102 896.614 374.456 894.946C370.142 892.972 371.865 886.505 376.602 886.777C380.606 887.007 382.776 882.124 379.863 879.371C376.414 876.112 380.206 870.572 384.611 872.34C388.341 873.837 392.02 869.929 390.162 866.368C387.959 862.146 393.364 858.122 396.98 861.225C400.04 863.85 404.804 861.349 404.225 857.362C403.535 852.623 409.954 850.509 412.374 854.643C414.417 858.132 419.729 857.294 420.507 853.327Z" fill="rgba(30,34,39,0.30)"/>
<circle cx="424.816" cy="1022.02" r="54.1636" fill="rgba(30,34,39,0.30)"/>
<path fill-rule="evenodd" clip-rule="evenodd" d="M424.814 -32C429.301 -32 432.939 -28.3625 432.939 -23.8755V2.7083L452.923 -17.2762C456.096 -20.449 461.24 -20.449 464.413 -17.2762C467.586 -14.1033 467.586 -8.95917 464.413 -5.78634L444.588 14.0385H470.855C475.342 14.0385 478.98 17.676 478.98 22.1631C478.98 26.6501 475.342 30.2876 470.855 30.2876H444.273L464.095 50.1093C467.268 53.2822 467.268 58.4264 464.095 61.5992C460.922 64.772 455.778 64.772 452.605 61.5992L432.939 41.933V68.2027C432.939 72.6897 429.301 76.3272 424.814 76.3272C420.327 76.3272 416.69 72.6897 416.69 68.2027V41.937L397.028 61.5992C393.855 64.772 388.711 64.772 385.538 61.5992C382.365 58.4264 382.365 53.2822 385.538 50.1093L405.359 30.2876H378.777C374.29 30.2876 370.652 26.6501 370.652 22.1631C370.652 17.676 374.29 14.0385 378.777 14.0385H405.044L385.219 -5.78634C382.047 -8.95917 382.047 -14.1033 385.219 -17.2762C388.392 -20.449 393.536 -20.449 396.709 -17.2762L416.69 2.70422V-23.8755C416.69 -28.3625 420.327 -32 424.814 -32Z" fill="rgba(30,34,39,0.30)"/>
<path d="M420.507 103.702C421.432 98.9773 428.199 98.9773 429.125 103.702C429.903 107.669 435.215 108.507 437.258 105.017C439.678 100.883 446.096 102.997 445.407 107.737C444.828 111.724 449.592 114.225 452.652 111.599C456.268 108.497 461.673 112.521 459.47 116.743C457.612 120.303 461.291 124.212 465.021 122.714C469.426 120.946 473.217 126.487 469.769 129.745C466.855 132.499 469.026 137.382 473.03 137.152C477.767 136.88 479.49 143.347 475.176 145.321C471.53 146.988 471.966 152.296 475.835 153.352C480.417 154.603 479.834 161.267 475.11 161.762C471.122 162.18 469.81 167.347 473.134 169.585C477.068 172.233 474.267 178.322 469.637 177.29C465.718 176.417 462.751 180.875 465.172 184.074C468.04 187.863 463.373 192.707 459.308 190.243C455.865 188.156 451.582 191.405 452.82 195.232C454.291 199.775 448.298 202.88 445.235 199.215C442.645 196.116 437.535 197.806 437.436 201.841C437.318 206.642 430.641 207.717 428.94 203.225C427.507 199.44 422.125 199.44 420.692 203.225C418.991 207.717 412.314 206.642 412.196 201.841C412.097 197.806 406.987 196.116 404.397 199.215C401.334 202.88 395.341 199.775 396.812 195.232C398.05 191.405 393.767 188.156 390.324 190.243C386.259 192.707 381.592 187.863 384.46 184.074C386.881 180.875 383.914 176.417 379.995 177.29C375.365 178.322 372.564 172.233 376.498 169.585C379.822 167.347 378.509 162.18 374.522 161.762C369.798 161.267 369.215 154.603 373.797 153.352C377.665 152.296 378.102 146.988 374.456 145.321C370.142 143.347 371.865 136.88 376.602 137.152C380.606 137.382 382.776 132.499 379.863 129.745C376.414 126.487 380.206 120.946 384.611 122.714C388.341 124.212 392.02 120.303 390.162 116.743C387.959 112.521 393.364 108.497 396.98 111.599C400.04 114.225 404.804 111.724 404.225 107.737C403.535 102.997 409.954 100.883 412.374 105.017C414.417 108.507 419.729 107.669 420.507 103.702Z" fill="rgba(30,34,39,0.30)"/>
<circle cx="424.816" cy="272.399" r="54.1636" fill="rgba(30,34,39,0.30)"/>
<path fill-rule="evenodd" clip-rule="evenodd" d="M192.998 342.812C197.485 342.812 201.123 346.449 201.123 350.936V377.518L221.105 357.535C224.278 354.363 229.422 354.363 232.595 357.535C235.768 360.708 235.768 365.852 232.595 369.025L212.77 388.85H239.037C243.524 388.85 247.161 392.488 247.161 396.975C247.161 401.462 243.524 405.099 239.037 405.099H212.455L232.276 424.921C235.449 428.094 235.449 433.238 232.276 436.411C229.104 439.584 223.959 439.584 220.787 436.411L201.123 416.747V443.014C201.123 447.501 197.485 451.139 192.998 451.139C188.511 451.139 184.874 447.501 184.874 443.014V416.746L165.209 436.411C162.036 439.584 156.892 439.584 153.719 436.411C150.547 433.238 150.547 428.094 153.719 424.921L173.541 405.099H146.959C142.471 405.099 138.834 401.462 138.834 396.975C138.834 392.488 142.471 388.85 146.959 388.85H173.226L153.401 369.025C150.228 365.852 150.228 360.708 153.401 357.535C156.574 354.363 161.718 354.363 164.891 357.535L184.874 377.518V350.936C184.874 346.449 188.511 342.812 192.998 342.812Z" fill="rgba(30,34,39,0.30)"/>
<path d="M188.688 478.513C189.614 473.789 196.381 473.789 197.307 478.513C198.084 482.48 203.397 483.318 205.44 479.829C207.86 475.695 214.278 477.809 213.589 482.548C213.009 486.536 217.774 489.037 220.834 486.411C224.449 483.309 229.855 487.332 227.652 491.554C225.794 495.115 229.472 499.023 233.202 497.526C237.607 495.758 241.399 501.298 237.951 504.557C235.037 507.31 237.207 512.193 241.212 511.963C245.949 511.691 247.672 518.159 243.358 520.132C239.712 521.8 240.148 527.108 244.016 528.164C248.599 529.414 248.016 536.078 243.292 536.573C239.304 536.991 237.991 542.158 241.316 544.396C245.249 547.045 242.448 553.133 237.818 552.101C233.9 551.228 230.933 555.687 233.354 558.886C236.221 562.674 231.555 567.518 227.489 565.054C224.047 562.968 219.763 566.216 221.002 570.043C222.472 574.586 216.48 577.691 213.416 574.026C210.826 570.928 205.717 572.617 205.617 576.652C205.499 581.454 198.823 582.529 197.122 578.036C195.689 574.252 190.307 574.252 188.874 578.036C187.173 582.529 180.496 581.454 180.378 576.652C180.278 572.617 175.169 570.928 172.579 574.026C169.516 577.691 163.523 574.586 164.993 570.043C166.232 566.216 161.949 562.968 158.506 565.054C154.441 567.518 149.774 562.674 152.642 558.886C155.062 555.687 152.095 551.228 148.177 552.101C143.547 553.133 140.746 547.045 144.679 544.396C148.004 542.158 146.691 536.991 142.704 536.573C137.979 536.078 137.396 529.414 141.979 528.164C145.847 527.108 146.283 521.8 142.637 520.132C138.324 518.159 140.046 511.691 144.783 511.963C148.788 512.193 150.958 507.31 148.045 504.557C144.596 501.298 148.388 495.758 152.793 497.526C156.523 499.023 160.202 495.115 158.344 491.554C156.141 487.332 161.546 483.309 165.162 486.411C168.222 489.037 172.986 486.536 172.406 482.548C171.717 477.809 178.136 475.695 180.556 479.829C182.598 483.318 187.911 482.48 188.688 478.513Z" fill="rgba(30,34,39,0.30)"/>
<circle cx="192.998" cy="647.211" r="54.1636" fill="rgba(30,34,39,0.30)"/>
<path d="M189.569 976.35C191.086 973.698 194.909 973.698 196.426 976.35L246.634 1064.11C248.141 1066.74 246.239 1070.02 243.205 1070.02H142.79C139.756 1070.02 137.855 1066.74 139.361 1064.11L189.569 976.35Z" fill="rgba(30,34,39,0.30)"/>
<path d="M189.845 720.49C190.21 716.669 195.785 716.669 196.15 720.49L198.979 750.066C199.22 752.583 202.168 753.817 204.13 752.222L227.285 733.397C230.268 730.972 234.183 734.959 231.703 737.898L212.714 760.397C211.063 762.353 212.295 765.359 214.844 765.594L244.285 768.306C248.12 768.66 248.12 774.261 244.285 774.614L214.844 777.327C212.295 777.562 211.063 780.567 212.714 782.523L231.703 805.023C234.183 807.961 230.268 811.949 227.285 809.523L204.13 790.698C202.168 789.103 199.22 790.337 198.979 792.854L196.15 822.43C195.785 826.251 190.21 826.251 189.845 822.43L187.016 792.854C186.775 790.337 183.827 789.103 181.865 790.698L158.711 809.523C155.727 811.949 151.812 807.961 154.292 805.023L173.281 782.523C174.932 780.567 173.701 777.562 171.151 777.327L141.711 774.614C137.875 774.261 137.875 768.66 141.711 768.306L171.151 765.594C173.701 765.359 174.932 762.353 173.281 760.397L154.292 737.898C151.812 734.959 155.727 730.972 158.711 733.397L181.865 752.222C183.827 753.817 186.775 752.583 187.016 750.066L189.845 720.49Z" fill="rgba(30,34,39,0.30)"/>
<path d="M188.092 843.516C191.128 841.763 194.867 841.763 197.903 843.516L242.256 869.123C245.291 870.875 247.161 874.114 247.161 877.619V928.833C247.161 932.338 245.291 935.577 242.256 937.33L197.903 962.937C194.867 964.689 191.128 964.689 188.092 962.937L143.739 937.33C140.704 935.577 138.834 932.338 138.834 928.833V877.619C138.834 874.114 140.704 870.875 143.739 869.123L188.092 843.516Z" fill="rgba(30,34,39,0.30)"/>
<path d="M189.569 226.725C191.086 224.073 194.909 224.073 196.426 226.725L246.634 314.484C248.141 317.118 246.239 320.396 243.205 320.396H142.79C139.756 320.396 137.855 317.118 139.361 314.484L189.569 226.725Z" fill="rgba(30,34,39,0.30)"/>
<path d="M189.845 -29.1344C190.21 -32.9552 195.785 -32.9552 196.15 -29.1344L198.979 0.441833C199.22 2.95887 202.168 4.19279 204.13 2.59772L227.285 -16.227C230.268 -18.6526 234.183 -14.6652 231.703 -11.7268L212.714 10.7726C211.063 12.7289 212.295 15.7342 214.844 15.9691L244.285 18.6819C248.12 19.0354 248.12 24.6361 244.285 24.9896L214.844 27.7024C212.295 27.9373 211.063 30.9426 212.714 32.8989L231.703 55.3983C234.183 58.3367 230.268 62.3241 227.285 59.8985L204.13 41.0738C202.168 39.4787 199.22 40.7126 198.979 43.2297L196.15 72.8059C195.785 76.6267 190.21 76.6267 189.845 72.8059L187.016 43.2297C186.775 40.7126 183.827 39.4787 181.865 41.0738L158.711 59.8985C155.727 62.3241 151.812 58.3367 154.292 55.3983L173.281 32.8989C174.932 30.9426 173.701 27.9373 171.151 27.7024L141.711 24.9896C137.875 24.6361 137.875 19.0354 141.711 18.6819L171.151 15.9691C173.701 15.7342 174.932 12.7289 173.281 10.7726L154.292 -11.7268C151.812 -14.6652 155.727 -18.6526 158.711 -16.227L181.865 2.59772C183.827 4.19279 186.775 2.95887 187.016 0.441833L189.845 -29.1344Z" fill="rgba(30,34,39,0.30)"/>
<path d="M188.092 93.8891C191.128 92.1366 194.867 92.1366 197.903 93.8891L242.256 119.496C245.291 121.249 247.161 124.488 247.161 127.993V179.207C247.161 182.712 245.291 185.951 242.256 187.703L197.903 213.31C194.867 215.063 191.128 215.063 188.092 213.31L143.739 187.703C140.704 185.951 138.834 182.712 138.834 179.207V127.993C138.834 124.488 140.704 121.249 143.739 119.496L188.092 93.8891Z" fill="rgba(30,34,39,0.30)"/>
<path d="M428.246 442.649C426.729 445.301 422.905 445.301 421.388 442.649L371.181 354.89C369.674 352.256 371.575 348.978 374.609 348.978L475.024 348.978C478.058 348.978 479.96 352.256 478.453 354.89L428.246 442.649Z" fill="rgba(30,34,39,0.30)"/>
<path d="M427.97 698.51C427.604 702.331 422.03 702.331 421.664 698.51L418.835 668.934C418.594 666.417 415.646 665.183 413.684 666.778L390.53 685.603C387.546 688.029 383.632 684.041 386.111 681.103L405.1 658.603C406.752 656.647 405.52 653.642 402.971 653.407L373.53 650.694C369.694 650.341 369.694 644.74 373.53 644.386L402.971 641.674C405.52 641.439 406.752 638.433 405.1 636.477L386.112 613.978C383.632 611.039 387.546 607.052 390.53 609.477L413.684 628.302C415.646 629.897 418.594 628.663 418.835 626.146L421.664 596.57C422.03 592.749 427.604 592.749 427.97 596.57L430.799 626.146C431.04 628.663 433.988 629.897 435.949 628.302L459.104 609.477C462.087 607.052 466.002 611.039 463.522 613.978L444.533 636.477C442.882 638.433 444.114 641.439 446.663 641.674L476.104 644.386C479.939 644.74 479.939 650.341 476.104 650.694L446.663 653.407C444.114 653.642 442.882 656.647 444.533 658.603L463.522 681.103C466.002 684.041 462.087 688.029 459.104 685.603L435.949 666.778C433.988 665.183 431.04 666.417 430.799 668.934L427.97 698.51Z" fill="rgba(30,34,39,0.30)"/>
<path d="M429.722 575.485C426.687 577.237 422.947 577.237 419.912 575.485L375.559 549.878C372.523 548.125 370.653 544.886 370.653 541.381L370.653 490.167C370.653 486.662 372.523 483.423 375.559 481.671L419.912 456.064C422.947 454.311 426.687 454.311 429.722 456.064L474.075 481.671C477.111 483.423 478.98 486.662 478.98 490.167L478.98 541.381C478.98 544.886 477.111 548.125 474.075 549.878L429.722 575.485Z" fill="rgba(30,34,39,0.30)"/>
<circle cx="77.0874" cy="771.788" r="54.1636" fill="rgba(30,34,39,0.30)"/>
<path d="M73.1675 846.268C74.4013 842.291 79.7736 842.291 81.0074 846.268L90.9681 878.375C91.5199 880.154 93.1024 881.358 94.888 881.358H127.121C131.114 881.358 132.774 886.709 129.544 889.167L103.467 909.01C102.022 910.109 101.418 912.057 101.969 913.836L111.93 945.943C113.164 949.92 108.818 953.227 105.587 950.769L79.5101 930.926C78.0655 929.827 76.1094 929.827 74.6648 930.926L48.5874 950.769C45.3571 953.227 41.0109 949.92 42.2448 945.943L52.2054 913.836C52.7572 912.057 52.1527 910.109 50.7082 909.01L24.6307 889.167C21.4005 886.709 23.0606 881.358 27.0534 881.358H59.2868C61.0725 881.358 62.655 880.154 63.2068 878.375L73.1675 846.268Z" fill="rgba(30,34,39,0.30)"/>
<path d="M73.7935 968.516C75.9026 967.642 78.2723 967.642 80.3814 968.516L112.594 981.859C114.703 982.732 116.379 984.408 117.253 986.517L130.596 1018.73C131.469 1020.84 131.469 1023.21 130.596 1025.32L117.253 1057.53C116.379 1059.64 114.703 1061.32 112.594 1062.19L80.3814 1075.53C78.2723 1076.41 75.9026 1076.41 73.7935 1075.53L41.5805 1062.19C39.4714 1061.32 37.7957 1059.64 36.9221 1057.53L23.579 1025.32C22.7054 1023.21 22.7054 1020.84 23.579 1018.73L36.9221 986.517C37.7957 984.408 39.4714 982.732 41.5805 981.859L73.7935 968.516Z" fill="rgba(30,34,39,0.30)"/>
<circle cx="77.0874" cy="22.1636" r="54.1636" fill="rgba(30,34,39,0.30)"/>
<path d="M73.1675 96.6434C74.4013 92.6664 79.7736 92.6664 81.0074 96.6434L90.9681 128.75C91.5199 130.529 93.1024 131.733 94.888 131.733H127.121C131.114 131.733 132.774 137.084 129.544 139.542L103.467 159.385C102.022 160.484 101.418 162.432 101.969 164.211L111.93 196.318C113.164 200.295 108.818 203.602 105.587 201.144L79.5101 181.301C78.0655 180.202 76.1094 180.202 74.6648 181.301L48.5874 201.144C45.3571 203.602 41.0109 200.295 42.2448 196.318L52.2054 164.211C52.7572 162.432 52.1527 160.484 50.7082 159.385L24.6307 139.542C21.4005 137.084 23.0606 131.733 27.0534 131.733H59.2868C61.0725 131.733 62.655 130.529 63.2068 128.75L73.1675 96.6434Z" fill="rgba(30,34,39,0.30)"/>
<path d="M73.7935 218.891C75.9026 218.017 78.2723 218.017 80.3814 218.891L112.594 232.234C114.703 233.108 116.379 234.783 117.253 236.892L130.596 269.105C131.469 271.215 131.469 273.584 130.596 275.693L117.253 307.906C116.379 310.015 114.703 311.691 112.594 312.565L80.3814 325.908C78.2723 326.781 75.9026 326.781 73.7935 325.908L41.5805 312.565C39.4714 311.691 37.7957 310.016 36.9221 307.906L23.579 275.693C22.7054 273.584 22.7054 271.215 23.579 269.105L36.9221 236.892C37.7957 234.783 39.4714 233.108 41.5805 232.234L73.7935 218.891Z" fill="rgba(30,34,39,0.30)"/>
<circle cx="-38.8257" cy="647.212" r="54.1636" transform="rotate(-180 -38.8257 647.212)" fill="rgba(30,34,39,0.30)"/>
<path d="M-34.9058 572.732C-36.1396 576.709 -41.5118 576.709 -42.7457 572.732L-52.7063 540.625C-53.2581 538.847 -54.8407 537.643 -56.6263 537.643L-88.8597 537.643C-92.8525 537.643 -94.5126 532.292 -91.2824 529.834L-65.205 509.991C-63.7604 508.891 -63.1559 506.943 -63.7077 505.164L-73.6684 473.058C-74.9022 469.081 -70.556 465.774 -67.3258 468.232L-41.2484 488.075C-39.8038 489.174 -37.8476 489.174 -36.403 488.075L-10.3256 468.232C-7.09542 465.774 -2.7492 469.081 -3.98303 473.058L-13.9437 505.164C-14.4955 506.943 -13.891 508.891 -12.4464 509.991L13.631 529.834C16.8612 532.292 15.2011 537.643 11.2083 537.643L-21.0251 537.643C-22.8107 537.643 -24.3933 538.847 -24.9451 540.625L-34.9058 572.732Z" fill="rgba(30,34,39,0.30)"/>
<path d="M-35.5318 450.484C-37.6408 451.358 -40.0106 451.358 -42.1197 450.484L-74.3327 437.141C-76.4418 436.268 -78.1174 434.592 -78.991 432.483L-92.3341 400.27C-93.2077 398.161 -93.2077 395.791 -92.3341 393.682L-78.991 361.469C-78.1174 359.36 -76.4418 357.684 -74.3327 356.811L-42.1197 343.468C-40.0106 342.594 -37.6408 342.594 -35.5318 343.468L-3.31873 356.811C-1.20965 357.684 0.46601 359.36 1.33962 361.469L14.6827 393.682C15.5563 395.791 15.5563 398.161 14.6827 400.27L1.33961 432.483C0.466004 434.592 -1.20965 436.268 -3.31873 437.141L-35.5318 450.484Z" fill="rgba(30,34,39,0.30)"/>
<circle cx="308.904" cy="396.977" r="54.1636" fill="rgba(30,34,39,0.30)"/>
<path d="M304.984 471.456C306.218 467.479 311.59 467.479 312.824 471.456L322.784 503.562C323.336 505.341 324.919 506.545 326.704 506.545H358.938C362.931 506.545 364.591 511.896 361.361 514.354L335.283 534.197C333.839 535.297 333.234 537.245 333.786 539.024L343.747 571.13C344.98 575.107 340.634 578.414 337.404 575.956L311.327 556.113C309.882 555.014 307.926 555.014 306.481 556.113L280.404 575.956C277.174 578.414 272.827 575.107 274.061 571.13L284.022 539.024C284.574 537.245 283.969 535.297 282.525 534.197L256.447 514.354C253.217 511.896 254.877 506.545 258.87 506.545H291.103C292.889 506.545 294.471 505.341 295.023 503.562L304.984 471.456Z" fill="rgba(30,34,39,0.30)"/>
<path d="M305.61 593.704C307.719 592.83 310.089 592.83 312.198 593.704L344.411 607.047C346.52 607.921 348.196 609.596 349.069 611.705L362.412 643.918C363.286 646.028 363.286 648.397 362.412 650.506L349.069 682.719C348.196 684.828 346.52 686.504 344.411 687.378L312.198 700.721C310.089 701.594 307.719 701.594 305.61 700.721L273.397 687.378C271.288 686.504 269.612 684.828 268.739 682.719L255.395 650.506C254.522 648.397 254.522 646.028 255.395 643.918L268.739 611.705C269.612 609.596 271.288 607.921 273.397 607.047L305.61 593.704Z" fill="rgba(30,34,39,0.30)"/>
<path d="M298.102 727.077C300.981 715.918 316.827 715.918 319.706 727.077L320.609 730.578C322.332 737.255 329.638 740.786 335.939 737.987L339.106 736.581C349.705 731.874 359.558 744.457 352.446 753.617L350.938 755.561C346.623 761.119 348.468 769.234 354.762 772.38L356.885 773.442C367.293 778.645 363.783 794.31 352.149 794.573L349.329 794.637C342.358 794.795 337.238 801.239 338.661 808.065L339.275 811.014C341.63 822.319 327.365 829.315 319.868 820.532L317.389 817.628C312.936 812.41 304.872 812.41 300.419 817.628L297.939 820.532C290.443 829.315 276.178 822.319 278.533 811.014L279.147 808.065C280.569 801.239 275.45 794.795 268.478 794.637L265.658 794.573C254.025 794.31 250.514 778.645 260.923 773.442L263.046 772.38C269.34 769.234 271.185 761.119 266.87 755.561L265.361 753.617C258.25 744.457 268.103 731.874 278.701 736.581L281.868 737.987C288.17 740.786 295.476 737.255 297.198 730.578L298.102 727.077Z" fill="rgba(30,34,39,0.30)"/>
<path d="M307.257 969.32C307.502 967.375 310.305 967.375 310.551 969.32L313.546 993.069C313.744 994.637 315.797 995.076 316.612 993.724L328.957 973.254C329.968 971.577 332.529 972.723 331.966 974.6L325.094 997.52C324.64 999.034 326.338 1000.27 327.63 999.373L347.189 985.72C348.791 984.601 350.667 986.696 349.393 988.181L333.842 1006.31C332.815 1007.51 333.865 1009.33 335.41 1009.04L358.802 1004.56C360.718 1004.2 361.584 1006.88 359.819 1007.71L338.279 1017.91C336.856 1018.59 337.076 1020.69 338.606 1021.05L361.786 1026.53C363.685 1026.97 363.392 1029.78 361.442 1029.82L337.636 1030.33C336.064 1030.37 335.415 1032.37 336.667 1033.33L355.627 1047.81C357.18 1049 355.779 1051.44 353.98 1050.68L332.025 1041.41C330.575 1040.8 329.17 1042.37 329.927 1043.75L341.389 1064.74C342.328 1066.46 340.06 1068.11 338.724 1066.68L322.416 1049.24C321.34 1048.09 319.422 1048.95 319.552 1050.52L321.534 1074.38C321.697 1076.33 318.955 1076.92 318.312 1075.07L310.471 1052.46C309.954 1050.97 307.854 1050.97 307.336 1052.46L299.495 1075.07C298.853 1076.92 296.111 1076.33 296.273 1074.38L298.255 1050.52C298.386 1048.95 296.468 1048.09 295.391 1049.24L279.083 1066.68C277.747 1068.11 275.479 1066.46 276.418 1064.74L287.88 1043.75C288.637 1042.37 287.232 1040.8 285.783 1041.41L263.827 1050.68C262.029 1051.44 260.627 1049 262.18 1047.81L281.141 1033.33C282.393 1032.37 281.744 1030.37 280.172 1030.33L256.366 1029.82C254.415 1029.78 254.122 1026.97 256.021 1026.53L279.201 1021.05C280.732 1020.69 280.952 1018.59 279.529 1017.91L257.988 1007.71C256.224 1006.88 257.09 1004.2 259.006 1004.56L282.398 1009.04C283.943 1009.33 284.992 1007.51 283.966 1006.31L268.415 988.181C267.141 986.696 269.016 984.601 270.619 985.72L290.178 999.373C291.469 1000.27 293.168 999.034 292.714 997.52L285.842 974.6C285.279 972.723 287.84 971.577 288.851 973.254L301.195 993.724C302.01 995.076 304.064 994.637 304.262 993.069L307.257 969.32Z" fill="rgba(30,34,39,0.30)"/>
<path d="M356.746 855.846C348.318 847.418 334.654 847.418 326.226 855.846L309.316 872.756L291.582 855.022C283.154 846.594 269.489 846.594 261.061 855.022C252.633 863.45 252.633 877.114 261.061 885.542L278.796 903.277L261.061 921.011C252.633 929.439 252.633 943.104 261.061 951.532C269.489 959.959 283.154 959.959 291.581 951.532L309.316 933.797L326.226 950.707C334.654 959.135 348.319 959.135 356.746 950.707C365.174 942.279 365.174 928.615 356.746 920.187L339.836 903.277L356.746 886.367C365.174 877.939 365.174 864.274 356.746 855.846Z" fill="rgba(30,34,39,0.30)"/>
<path d="M298.102 -22.5458C300.981 -33.7045 316.827 -33.7045 319.706 -22.5458L320.609 -19.0446C322.332 -12.3682 329.638 -8.83727 335.939 -11.6358L339.106 -13.0422C349.705 -17.7491 359.558 -5.1663 352.446 3.9944L350.938 5.93794C346.623 11.4959 348.468 19.6114 354.762 22.7574L356.885 23.8188C367.293 29.0217 363.783 44.6871 352.149 44.9505L349.329 45.0143C342.358 45.1721 337.238 51.6158 338.661 58.4426L339.275 61.3916C341.63 72.6958 327.365 79.6921 319.868 70.9094L317.389 68.0049C312.936 62.7871 304.872 62.7871 300.419 68.0049L297.939 70.9094C290.443 79.6921 276.178 72.6958 278.533 61.3916L279.147 58.4426C280.569 51.6158 275.45 45.1721 268.478 45.0143L265.658 44.9505C254.025 44.6871 250.514 29.0217 260.923 23.8188L263.046 22.7574C269.34 19.6114 271.185 11.4959 266.87 5.93794L265.361 3.99439C258.25 -5.1663 268.103 -17.7491 278.701 -13.0422L281.868 -11.6358C288.17 -8.83727 295.476 -12.3682 297.198 -19.0446L298.102 -22.5458Z" fill="rgba(30,34,39,0.30)"/>
<path d="M307.257 219.698C307.502 217.752 310.305 217.752 310.551 219.698L313.546 243.446C313.744 245.014 315.797 245.453 316.612 244.101L328.957 223.631C329.968 221.954 332.529 223.1 331.966 224.978L325.094 247.897C324.64 249.411 326.338 250.652 327.63 249.75L347.189 236.097C348.791 234.978 350.667 237.073 349.393 238.558L333.842 256.686C332.815 257.883 333.865 259.711 335.41 259.416L358.802 254.941C360.718 254.574 361.584 257.254 359.819 258.09L338.279 268.292C336.856 268.966 337.076 271.065 338.606 271.427L361.786 276.903C363.685 277.352 363.392 280.155 361.442 280.197L337.636 280.709C336.064 280.743 335.415 282.75 336.667 283.706L355.627 298.188C357.18 299.374 355.779 301.815 353.98 301.056L332.025 291.789C330.575 291.177 329.17 292.746 329.927 294.132L341.389 315.114C342.328 316.833 340.06 318.489 338.724 317.061L322.416 299.618C321.34 298.466 319.422 299.324 319.552 300.899L321.534 324.755C321.697 326.709 318.955 327.295 318.312 325.443L310.471 302.84C309.954 301.347 307.854 301.347 307.336 302.84L299.495 325.443C298.853 327.295 296.111 326.709 296.273 324.755L298.255 300.899C298.386 299.324 296.468 298.466 295.391 299.618L279.083 317.061C277.747 318.49 275.479 316.833 276.418 315.114L287.88 294.132C288.637 292.746 287.232 291.177 285.783 291.789L263.827 301.056C262.029 301.815 260.627 299.374 262.18 298.188L281.141 283.706C282.393 282.75 281.744 280.743 280.172 280.709L256.366 280.197C254.415 280.155 254.122 277.352 256.021 276.903L279.201 271.427C280.732 271.065 280.952 268.966 279.529 268.292L257.988 258.09C256.224 257.254 257.09 254.574 259.006 254.941L282.398 259.416C283.943 259.711 284.992 257.883 283.966 256.686L268.415 238.558C267.141 237.073 269.016 234.978 270.619 236.097L290.178 249.75C291.469 250.652 293.168 249.411 292.714 247.897L285.842 224.978C285.279 223.1 287.84 221.954 288.851 223.631L301.195 244.101C302.01 245.453 304.064 245.014 304.262 243.446L307.257 219.698Z" fill="rgba(30,34,39,0.30)"/>
<path d="M356.746 106.224C348.318 97.7965 334.654 97.7965 326.226 106.224L309.316 123.134L291.582 105.4C283.154 96.9719 269.489 96.9719 261.061 105.4C252.633 113.828 252.633 127.492 261.061 135.92L278.796 153.655L261.061 171.389C252.633 179.817 252.633 193.482 261.061 201.91C269.489 210.338 283.154 210.338 291.581 201.91L309.316 184.175L326.226 201.085C334.654 209.513 348.319 209.513 356.746 201.085C365.174 192.657 365.174 178.993 356.746 170.565L339.836 153.655L356.746 136.745C365.174 128.317 365.174 114.652 356.746 106.224Z" fill="rgba(30,34,39,0.30)"/>
</g>
</g>
</svg>
