<svg width="299" height="347" viewBox="0 0 299 347" fill="none" xmlns="http://www.w3.org/2000/svg">
<mask id="mask0_760_6976" style="mask-type:alpha" maskUnits="userSpaceOnUse" x="0" y="0" width="299" height="347">
<rect width="299" height="347" fill="#C4C4C4"/>
</mask>
<g mask="url(#mask0_760_6976)">
<path d="M3 325.524V176.517C3 174.086 3.47968 171.678 4.4113 169.431C5.34292 167.184 6.70761 165.143 8.42902 163.424C10.1504 161.704 12.1948 160.34 14.444 159.409C16.6931 158.479 19.1034 158 21.5379 158H170.504C175.413 158.011 180.118 159.967 183.585 163.438C187.053 166.91 189 171.613 189 176.517V232.524C189 237.424 187.051 242.124 183.582 245.588C180.113 249.053 175.409 251 170.504 251H114.766C109.761 251 104.962 252.986 101.423 256.52C97.8848 260.055 95.8965 264.849 95.8965 269.848V325.235C95.8965 327.699 95.41 330.139 94.466 332.416C93.5219 334.693 92.1381 336.761 90.3937 338.504C88.6492 340.246 86.5782 341.629 84.2989 342.572C82.0197 343.515 79.5771 344 77.1101 344H21.3308C16.4539 343.956 11.7914 341.991 8.3583 338.53C4.92524 335.07 2.9998 330.396 3 325.524Z" fill="#EC6055"/>
<path d="M228.306 10.0946C229.082 1.96843 240.918 1.96848 241.694 10.0947L247.701 72.9986C248.212 78.3519 254.471 80.9762 258.637 77.5838L307.798 37.5466C314.133 32.3878 322.445 40.8683 317.179 47.1178L276.862 94.9704C273.356 99.1312 275.971 105.523 281.384 106.023L343.893 111.792C352.036 112.544 352.036 124.456 343.893 125.208L281.384 130.977C275.971 131.477 273.356 137.869 276.862 142.03L317.179 189.882C322.445 196.132 314.133 204.612 307.798 199.453L258.637 159.416C254.471 156.024 248.212 158.648 247.701 164.001L241.694 226.905C240.918 235.032 229.082 235.032 228.306 226.905L222.299 164.001C221.788 158.648 215.529 156.024 211.363 159.416L162.202 199.453C155.867 204.612 147.555 196.132 152.821 189.882L193.138 142.03C196.644 137.869 194.029 131.477 188.616 130.977L126.107 125.208C117.964 124.456 117.964 112.544 126.107 111.792L188.616 106.023C194.029 105.523 196.644 99.1312 193.138 94.9704L152.821 47.1178C147.555 40.8683 155.867 32.3878 162.202 37.5466L211.363 77.5838C215.529 80.9763 221.788 78.3519 222.299 72.9986L228.306 10.0946Z" fill="#FFD857"/>
</g>
</svg>
