<svg width="227" height="375" viewBox="0 0 227 375" fill="none" xmlns="http://www.w3.org/2000/svg">
<mask id="mask0_760_6973" style="mask-type:alpha" maskUnits="userSpaceOnUse" x="0" y="0" width="227" height="375">
<rect width="227" height="375" fill="#C4C4C4"/>
</mask>
<g mask="url(#mask0_760_6973)">
<path d="M175.179 87.7115C175.661 88.4792 175.897 89.377 175.854 90.2851C175.812 91.1933 175.494 92.0683 174.942 92.7934C171.642 97.825 168.378 102.845 165.032 107.83C164.022 109.319 162.896 110.727 161.665 112.04C150.437 124.158 139.138 136.205 127.969 148.358C112.727 164.957 97.614 181.662 82.4073 198.273C67.2007 214.884 51.9824 231.39 36.6466 248.013C25.2693 260.373 13.8452 272.711 2.37413 285.025C1.1033 286.296 -0.237839 287.496 -1.53208 288.743C-11.5189 298.245 -20.7587 308.503 -29.1688 319.423C-35.3869 327.538 -42.9864 334.435 -50.4219 341.426C-54.7295 345.167 -58.5221 349.463 -61.6988 354.201C-64.5335 358.815 -68.4166 362.698 -73.0304 365.532C-74.7553 369.855 -77.8973 373.091 -80.8755 376.514C-83.2298 379.22 -85.596 381.937 -88.0089 384.607C-89.3104 386.251 -90.7773 387.758 -92.3865 389.102C-98.5947 393.555 -102.321 400.347 -107.861 404.951C-107.301 406.006 -107.055 406.486 -106.798 406.978C-104.415 406.679 -103.295 404.739 -102.082 403.128C-94.0622 392.533 -84.415 383.518 -74.9901 374.257C-67.4949 366.902 -59.8943 359.629 -52.5747 352.099C-47.138 346.522 -42.1342 340.512 -36.8499 334.876C-28.8705 326.382 -20.7271 317.91 -12.5837 309.509C-9.05359 306.249 -5.87698 302.626 -3.10751 298.699C-2.07435 297.223 -0.912135 295.842 0.36543 294.571C11.9117 281.948 23.5046 269.348 35.0275 256.702C46.3385 244.267 57.6145 231.774 68.9139 219.327C72.339 215.551 75.8111 211.798 79.2596 208.022C95.4668 190.293 111.58 172.471 127.905 154.836C144.876 136.507 161.976 118.423 179.041 100.235C180.459 98.6848 181.984 97.2373 183.606 95.9036C187.793 92.5596 190.351 92.8112 195.351 96.8466C196.178 99.0859 195.012 100.932 194.091 102.788C193.171 104.645 192.215 106.49 191.284 108.288C192.113 109.565 192.878 108.753 193.431 108.27C196.595 105.527 199.409 102.293 204.152 101.599C208.399 102.034 210.055 105.949 211.975 107.54C214.361 110.796 212.841 113.112 213.011 115.424C215.036 117.097 217.027 114.404 219.254 115.525L220.362 117.904C215.635 125.838 211.154 133.924 204.095 140.303C199.896 144.129 196.222 148.551 192.338 152.739C179.875 166.163 167.388 179.563 155.017 193.08C148.744 199.939 142.506 206.856 136.595 214.03C131.615 220.064 126.249 225.711 120.882 231.265C115.034 237.324 109.232 243.407 103.992 250.005C101.857 252.564 99.5948 255.014 97.2127 257.346C89.281 265.558 81.2673 273.665 74.1317 282.627C70.7875 286.837 66.6939 290.463 62.975 294.392C59.5268 298.004 56.0197 301.769 52.3831 305.64C54.3295 306.292 54.8493 304.976 55.5553 304.293C65.8508 294.185 76.1932 284.147 85.2832 272.833C87.9089 269.576 90.9679 266.751 93.9686 263.68C99.7702 257.714 105.537 251.503 110.847 244.952C114.627 240.306 119.121 236.234 123.181 231.822C127.865 226.74 132.374 221.505 137.07 216.458C141.613 211.588 146.261 207.01 150.768 202.198C157.583 194.892 164.198 187.622 170.918 180.34C173.978 177.022 177.05 173.74 180.098 170.41C185.983 163.987 191.973 157.669 197.683 151.094C205.193 142.46 213.323 134.47 221.489 126.491C222.289 125.691 223.078 124.692 224.463 124.923C224.602 125.439 225.023 126.189 224.834 126.424C221.055 131.093 217.415 135.879 213.343 140.255C204.34 149.938 195.079 159.362 186.005 168.975C181.05 174.21 176.318 179.668 171.387 184.951C165.02 191.762 158.571 198.469 152.18 205.234C148.954 208.386 146.018 211.823 143.41 215.503C142.351 216.958 141.178 218.327 139.902 219.596C131.192 229.117 122.467 238.623 113.726 248.113C103.368 259.407 93.0227 270.688 82.6067 281.924C64.8349 301.1 47.0163 320.206 29.2328 339.371C15.1331 354.547 1.1152 369.829 -13.0664 384.924C-18.7509 391.006 -24.9627 396.82 -30.7294 402.938C-36.9315 409.468 -42.8175 416.29 -49.0664 422.773C-63.8707 438.116 -78.1248 453.985 -93.9473 468.309C-95.6523 469.556 -97.0764 471.147 -98.1259 472.979C-99.98 477.315 -103.379 480.246 -106.486 483.447C-111.499 488.624 -116.407 493.953 -121.783 498.744C-132.323 508.16 -142.032 518.361 -151.87 528.456C-153.553 530.139 -155.306 531.728 -156.494 532.846C-158.737 533.45 -159.367 532.161 -160.457 531.565C-163.603 532.02 -164.857 535.473 -167.711 536.479C-168.156 536.568 -168.617 536.53 -169.04 536.37C-169.463 536.209 -169.832 535.931 -170.103 535.569C-171.399 533.238 -169.269 531.014 -169.767 528.562C-172.195 528.205 -173.082 530.66 -175.538 531.758L-190.261 534.309C-192.744 532.414 -189.876 530.646 -190.857 529.006C-191.349 528.773 -192.052 528.188 -192.299 528.341C-196.168 530.87 -200.368 532.848 -204.778 534.218C-208.414 533.524 -211.742 531.96 -213.211 528.139C-213.362 523.28 -209.834 520.267 -208.287 516.589C-208.903 514.701 -210.137 515.139 -211.148 515.681C-214.297 517.38 -217.377 519.195 -219.974 520.693C-220.833 520.753 -221.689 520.561 -222.437 520.14C-223.184 519.718 -223.791 519.086 -224.181 518.321C-225.765 515.927 -226.578 513.103 -226.511 510.226C-226.445 507.349 -225.502 504.555 -223.81 502.219C-221.44 498.749 -218.714 495.536 -215.675 492.633C-199.53 476.489 -183.328 460.403 -167.242 444.201C-153.71 430.528 -140.306 416.75 -127.418 402.48C-117.954 392.01 -107.823 382.067 -98.0794 371.948C-93.4546 367.159 -88.9941 362.371 -84.744 357.302C-80.494 352.232 -75.5415 347.842 -70.9988 343.041C-65.8324 337.594 -60.7481 332.112 -56.1084 326.161C-53.225 322.7 -50.1522 319.401 -46.9046 316.279C-41.0442 310.231 -35.2777 304.137 -29.8738 297.679C-25.2471 292.163 -19.7886 287.314 -15.2555 281.704C-3.53985 267.179 10.3182 254.608 22.1039 240.177C24.7648 236.931 27.8352 234.142 30.7306 230.965C35.5799 225.648 40.3939 220.272 45.2433 214.884C46.3023 213.825 47.1742 212.579 48.1981 211.485C61.4741 197.155 74.82 182.92 88.0022 168.52C101.796 153.462 115.38 138.193 129.163 123.123C137.272 114.264 145.557 105.558 153.901 96.91C156.205 94.5352 158.766 92.4226 161.534 90.6111C163.467 89.1687 165.689 88.1623 168.045 87.6616C170.401 87.1609 172.835 87.178 175.179 87.7115ZM-128.415 428.759C-121.267 424.139 -117.431 420.115 -112.07 412.156L-113.348 411.584C-115.05 413.604 -116.945 415.453 -119.007 417.103C-122.875 419.566 -125.219 423.176 -128.473 428.7L-128.415 428.759ZM23.5351 337.156C27.3441 335.007 30.7196 332.164 33.4858 328.774C36.3459 325.657 39.6273 322.913 41.6444 319.047L23.5351 337.156ZM-203.09 508.466C-199.185 505.311 -199.185 505.311 -199.93 502.965C-200.541 503.529 -201.089 504.156 -201.566 504.836C-202.145 506.015 -202.654 507.227 -203.09 508.466ZM-27.2169 392.73C-27.0296 392.918 -26.7488 393.198 -26.5373 393.104C-25.7855 392.844 -25.737 392.304 -26.264 391.871C-26.4044 391.731 -26.8858 391.814 -27.0388 391.967C-27.1918 392.12 -27.2161 392.425 -27.2638 392.683L-27.2169 392.73Z" fill="#FFD857"/>
<path d="M69.4204 138.562L107.196 176.337C109.665 178.807 113.01 180.2 116.504 180.214C119.999 180.228 123.358 178.861 125.852 176.411L154.126 148.137C155.377 146.886 156.369 145.402 157.046 143.769C157.723 142.136 158.073 140.385 158.074 138.618C158.075 136.85 157.727 135.1 157.052 133.468C156.376 131.835 155.386 130.352 154.137 129.102L126.062 101.028C123.528 98.4938 122.106 95.0559 122.108 91.4706C122.11 87.8852 123.536 84.446 126.073 81.9093L154.326 53.6565C156.812 51.17 158.21 47.7988 158.212 44.2842C158.214 40.7696 156.82 37.3995 154.336 34.9157L125.947 6.52663C123.461 4.04088 120.09 2.6437 116.573 2.64172C113.055 2.63975 109.679 4.03313 107.185 6.51609L69.4204 44.2809L31.6452 6.50572C29.1759 4.03625 25.8305 2.64278 22.3364 2.62902C18.8423 2.61527 15.4825 3.98218 12.9884 6.43209L-15.2854 34.7059C-16.5359 35.9564 -17.528 37.4405 -18.2053 39.0739C-18.8826 40.7072 -19.2317 42.4576 -19.2327 44.2252C-19.2337 45.9927 -18.8865 47.7426 -18.2111 49.3752C-17.5356 51.0078 -16.5452 52.4912 -15.2961 53.7404L12.7787 81.8151C15.3125 84.3489 16.7346 87.7868 16.7326 91.3722C16.7306 94.9576 15.3045 98.3968 12.7679 100.933L-15.4849 129.186C-17.9715 131.673 -19.3692 135.044 -19.3712 138.559C-19.3731 142.073 -17.9791 145.443 -15.4952 147.927L12.8938 176.316C15.3796 178.802 18.7509 180.199 22.2682 180.201C25.7855 180.203 29.1615 178.81 31.6556 176.327L69.4204 138.562Z" fill="#66C195"/>
</g>
</svg>
